<svg width="50" height="50" viewBox="0 0 50 50" fill="none" xmlns="http://www.w3.org/2000/svg">
<path d="M42.9645 0.632348L2.3395 24.0601C-1.01987 26.0034 -0.697605 30.9741 2.89614 32.4488L14.0583 37.0679V45.3101C14.0583 49.8413 19.8395 51.7066 22.5153 48.1031L26.7926 42.3316L37.7204 46.8433C38.2965 47.0777 38.902 47.1948 39.5075 47.1948C40.3083 47.1948 41.0993 46.9898 41.8122 46.5894C43.0622 45.8863 43.9215 44.6363 44.1461 43.2202L49.9469 5.40774C50.5426 1.49172 46.3434 -1.31101 42.9645 0.632348ZM18.7458 45.3101V39.0015L22.32 40.4761L18.7458 45.3101ZM39.5075 42.5073L24.4879 36.3062L38.1793 16.5503C39.2243 15.0366 37.2516 13.2788 35.8649 14.48L15.2106 32.4781L4.68325 28.1226L45.3083 4.68508L39.5075 42.5073Z" fill="white"/>
</svg>
