<svg width="51" height="51" viewBox="0 0 51 51" fill="none" xmlns="http://www.w3.org/2000/svg">
<g id="SVG" clip-path="url(#clip0_151_546)">
<path id="Vector" d="M35.0209 12.7113C32.2777 12.7113 29.7387 13.1527 27.4955 13.9672L28.7074 1.9447C28.8129 0.925174 27.9154 0.096072 26.892 0.224002C19.1088 1.20056 13.0902 7.79334 13.0902 15.7806C13.0902 18.5238 13.5316 21.0629 14.3461 23.306L2.32361 22.0941C1.30408 21.9887 0.474978 22.8861 0.602908 23.9095C1.57947 31.6928 8.17224 37.7113 16.1595 37.7113C18.9027 37.7113 21.4418 37.2699 23.6849 36.4554L22.473 48.4779C22.3705 49.4965 23.265 50.3265 24.2885 50.1986C32.0717 49.222 38.0902 42.6293 38.0902 34.642C38.0902 31.8988 37.6488 29.3597 36.8344 27.1166L48.8568 28.3285C49.8763 28.431 50.7054 27.5365 50.5775 26.5131C49.601 18.7299 43.0082 12.7113 35.0209 12.7113ZM25.5902 28.3363C24.9721 28.3363 24.368 28.153 23.8541 27.8096C23.3402 27.4663 22.9396 26.9782 22.7031 26.4072C22.4666 25.8362 22.4047 25.2078 22.5253 24.6017C22.6458 23.9955 22.9435 23.4386 23.3805 23.0016C23.8175 22.5646 24.3744 22.2669 24.9806 22.1464C25.5867 22.0258 26.2151 22.0877 26.7861 22.3242C27.3571 22.5607 27.8452 22.9612 28.1886 23.4752C28.5319 23.9891 28.7152 24.5932 28.7152 25.2113C28.7152 26.0401 28.386 26.835 27.7999 27.421C27.2139 28.0071 26.419 28.3363 25.5902 28.3363Z" fill="#F50C18"/>
</g>
<defs>
<clipPath id="clip0_151_546">
<rect width="50" height="50" fill="white" transform="translate(0.589844 0.210938)"/>
</clipPath>
</defs>
</svg>
