<svg width="51" height="45" viewBox="0 0 51 45" fill="none" xmlns="http://www.w3.org/2000/svg">
<g id="SVG" clip-path="url(#clip0_151_542)">
<path id="Vector" d="M25.7549 9.93123C27.3692 9.93123 28.8967 10.2611 30.3375 10.7645C31.4918 9.87047 32.3858 8.65531 32.8978 7.23185C30.7107 6.28576 28.2979 5.7563 25.7635 5.7563C23.2379 5.7563 20.8251 6.27708 18.6379 7.22317C19.15 8.64664 20.044 9.86179 21.1983 10.7558C22.6304 10.2611 24.1492 9.93123 25.7549 9.93123ZM14.9666 38.2878C16.0081 37.2636 16.7372 35.9963 17.093 34.6076C14.2376 32.3161 12.3368 28.9397 11.981 25.0946C11.2432 24.8516 10.4882 24.6954 9.68967 24.6954C9.03005 24.6954 8.37043 24.7822 7.73685 24.9644C8.09269 30.4153 10.844 35.2065 14.9666 38.2878ZM34.4254 34.5902C34.7812 35.979 35.5103 37.2549 36.5518 38.2791C40.6657 35.1978 43.417 30.4066 43.7555 24.9558C43.1306 24.7822 42.4797 24.6954 41.8287 24.6954C41.0303 24.6954 40.2665 24.8603 39.5201 25.1033C39.1642 28.9397 37.2635 32.2988 34.4254 34.5902ZM44.2763 16.7969C42.7487 15.8942 41.1257 15.356 39.4767 15.0696C39.9974 13.5333 40.3446 11.9102 40.3446 10.1916C40.3446 6.63295 39.0861 3.17843 36.7861 0.45301C36.5691 0.19262 36.2133 0.131862 35.9182 0.296776C35.6318 0.46169 35.5016 0.817557 35.6058 1.13871C35.9963 2.3365 36.1786 3.42146 36.1786 4.48039C36.1786 10.3652 31.5092 15.1477 25.7635 15.1477C20.0179 15.1477 15.3485 10.3652 15.3485 4.48039C15.3485 3.43014 15.5394 2.3365 15.9213 1.13871C16.0255 0.817557 15.8953 0.46169 15.6089 0.296776C15.3138 0.131862 14.9579 0.19262 14.741 0.45301C12.4497 3.17843 11.1825 6.63295 11.1825 10.1916C11.1825 11.9102 11.521 13.5333 12.0504 15.0696C10.41 15.356 8.77835 15.8942 7.25081 16.7969C4.24781 18.5762 1.9565 21.4231 0.802167 24.8169C0.689338 25.138 0.819526 25.4852 1.10594 25.6675C1.39235 25.8411 1.75688 25.7803 1.97386 25.5286C2.7897 24.5912 3.62291 23.8708 4.50819 23.35C9.48137 20.4076 15.8606 22.1609 18.7334 27.2559C21.6062 32.3509 19.8964 38.8867 14.9232 41.8291C14.0379 42.3585 13.0138 42.7318 11.8161 42.9922C11.4949 43.0616 11.2606 43.3567 11.2606 43.6952C11.2693 44.0424 11.4949 44.3288 11.8248 44.3896C15.2704 45.0666 18.8202 44.459 21.8232 42.6797C23.3854 41.7596 24.6786 40.5532 25.7549 39.1991C26.8311 40.5532 28.1243 41.7596 29.6865 42.6797C32.6895 44.459 36.2393 45.0666 39.685 44.3896C40.0148 44.3288 40.2404 44.0424 40.2491 43.6952C40.2491 43.3567 40.0235 43.0616 39.6937 42.9922C38.4873 42.7404 37.4718 42.3585 36.5865 41.8291C31.6133 38.8867 29.9035 32.3509 32.7763 27.2559C35.6492 22.1609 42.0284 20.4076 47.0015 23.35C47.8868 23.8795 48.72 24.5912 49.5359 25.5286C49.7529 25.7803 50.1174 25.8411 50.4038 25.6675C50.6902 25.4939 50.8204 25.138 50.7076 24.8169C49.5706 21.4231 47.2793 18.5675 44.2763 16.7969ZM25.7549 27.9937C23.4549 27.9937 21.5888 26.1275 21.5888 23.8274C21.5888 21.5273 23.4549 19.6612 25.7549 19.6612C28.0549 19.6612 29.9209 21.5273 29.9209 23.8274C29.9209 26.1275 28.0549 27.9937 25.7549 27.9937Z" fill="#F50C18"/>
</g>
<defs>
<clipPath id="clip0_151_542">
<rect width="50" height="44.44" fill="white" transform="translate(0.761719 0.210938)"/>
</clipPath>
</defs>
</svg>
