<svg width="51" height="41" viewBox="0 0 51 41" fill="none" xmlns="http://www.w3.org/2000/svg">
<g id="SVG" clip-path="url(#clip0_151_528)">
<path id="Vector" d="M18.0898 20.2109C23.6133 20.2109 28.0898 15.7344 28.0898 10.2109C28.0898 4.6875 23.6133 0.210938 18.0898 0.210938C12.5664 0.210938 8.08984 4.6875 8.08984 10.2109C8.08984 15.7344 12.5664 20.2109 18.0898 20.2109ZM25.0898 22.7109H23.7852C22.0508 23.5078 20.1211 23.9609 18.0898 23.9609C16.0586 23.9609 14.1367 23.5078 12.3945 22.7109H11.0898C5.29297 22.7109 0.589844 27.4141 0.589844 33.2109V36.4609C0.589844 38.5312 2.26953 40.2109 4.33984 40.2109H31.8398C33.9102 40.2109 35.5898 38.5312 35.5898 36.4609V33.2109C35.5898 27.4141 30.8867 22.7109 25.0898 22.7109ZM50.3242 12.6797L48.1523 10.4844C47.793 10.1172 47.207 10.1172 46.8398 10.4766L38.6523 18.6016L35.0977 15.0234C34.7383 14.6563 34.1523 14.6562 33.7852 15.0156L31.5898 17.1953C31.2227 17.5547 31.2227 18.1406 31.582 18.5078L37.9648 24.9375C38.3242 25.3047 38.9102 25.3047 39.2773 24.9453L50.3164 13.9922C50.6758 13.625 50.6836 13.0391 50.3242 12.6797Z" fill="#F50C18"/>
</g>
<defs>
<clipPath id="clip0_151_528">
<rect width="50" height="40" fill="white" transform="translate(0.589844 0.210938)"/>
</clipPath>
</defs>
</svg>
