<svg width="51" height="41" viewBox="0 0 51 41" fill="none" xmlns="http://www.w3.org/2000/svg">
<g id="SVG" clip-path="url(#clip0_151_533)">
<path id="Vector" d="M19.7305 30.2109C19.043 30.2109 18.4805 30.7734 18.4805 31.4609C18.4805 32.1484 19.043 32.7109 19.7305 32.7109C20.418 32.7109 20.9805 32.1484 20.9805 31.4609C20.9805 30.7734 20.418 30.2109 19.7305 30.2109ZM32.2305 32.7109C32.918 32.7109 33.4805 32.1484 33.4805 31.4609C33.4805 30.7734 32.918 30.2109 32.2305 30.2109C31.543 30.2109 30.9805 30.7734 30.9805 31.4609C30.9805 32.1484 31.543 32.7109 32.2305 32.7109ZM49.7305 0.210938H2.23047C1.54297 0.210938 0.980469 0.773438 0.980469 1.46094V3.96094C0.980469 4.64844 1.54297 5.21094 2.23047 5.21094H49.7305C50.418 5.21094 50.9805 4.64844 50.9805 3.96094V1.46094C50.9805 0.773438 50.418 0.210938 49.7305 0.210938ZM49.7305 35.2109H45.9805V7.71094H5.98047V35.2109H2.23047C1.54297 35.2109 0.980469 35.7734 0.980469 36.4609V38.9609C0.980469 39.6484 1.54297 40.2109 2.23047 40.2109H49.7305C50.418 40.2109 50.9805 39.6484 50.9805 38.9609V36.4609C50.9805 35.7734 50.418 35.2109 49.7305 35.2109ZM38.4805 19.5859C38.4805 19.9297 38.1992 20.2109 37.8555 20.2109H27.2305V22.7109H35.3555C35.6992 22.7109 35.9805 22.9922 35.9805 23.3359V24.5859C35.9805 24.9297 35.6992 25.2109 35.3555 25.2109H27.2305V27.7109H32.2305C34.3008 27.7109 35.9805 29.3906 35.9805 31.4609C35.9805 33.5312 34.3008 35.2109 32.2305 35.2109C30.1602 35.2109 28.4805 33.5312 28.4805 31.4609V30.2109H23.4805V31.4609C23.4805 33.5312 21.8008 35.2109 19.7305 35.2109C17.6602 35.2109 15.9805 33.5312 15.9805 31.4609C15.9805 29.3906 17.6602 27.7109 19.7305 27.7109H24.7305V25.2109H16.6055C16.2617 25.2109 15.9805 24.9297 15.9805 24.5859V23.3359C15.9805 22.9922 16.2617 22.7109 16.6055 22.7109H24.7305V20.2109H14.1055C13.7617 20.2109 13.4805 19.9297 13.4805 19.5859V18.3359C13.4805 17.9922 13.7617 17.7109 14.1055 17.7109H24.7305V15.2109H16.6055C16.2617 15.2109 15.9805 14.9297 15.9805 14.5859V13.3359C15.9805 12.9922 16.2617 12.7109 16.6055 12.7109H24.7305V10.8359C24.7305 10.4922 25.0117 10.2109 25.3555 10.2109H26.6055C26.9492 10.2109 27.2305 10.4922 27.2305 10.8359V12.7109H35.3555C35.6992 12.7109 35.9805 12.9922 35.9805 13.3359V14.5859C35.9805 14.9297 35.6992 15.2109 35.3555 15.2109H27.2305V17.7109H37.8555C38.1992 17.7109 38.4805 17.9922 38.4805 18.3359V19.5859Z" fill="#F50C18"/>
</g>
<defs>
<clipPath id="clip0_151_533">
<rect width="50" height="40" fill="white" transform="translate(0.980469 0.210938)"/>
</clipPath>
</defs>
</svg>
