<svg width="31" height="51" viewBox="0 0 31 51" fill="none" xmlns="http://www.w3.org/2000/svg">
<path d="M15.3613 50.2109C13.3431 50.2109 11.4225 49.8122 9.59961 49.0146C7.77669 48.2171 6.16536 47.0859 4.76562 45.6211C3.36589 44.0911 2.28353 42.3252 1.51855 40.3232C0.753581 38.3213 0.371094 36.1973 0.371094 33.9512C0.371094 32.1283 0.566406 30.403 0.957031 28.7754C1.3151 27.1803 1.81152 25.6504 2.44629 24.1855C3.08105 22.7207 3.80534 21.3047 4.61914 19.9375C5.40039 18.5378 6.23047 17.1543 7.10938 15.7871C7.79297 14.6803 8.46029 13.5736 9.11133 12.4668C9.79492 11.36 10.4378 10.2126 11.04 9.02441C11.6423 7.83626 12.2201 6.59114 12.7734 5.28906C13.2943 3.98698 13.75 2.60352 14.1406 1.13867C14.2383 0.878254 14.3929 0.658527 14.6045 0.479492C14.8161 0.300457 15.0684 0.210938 15.3613 0.210938C15.6543 0.210938 15.9066 0.300457 16.1182 0.479492C16.3298 0.658527 16.4844 0.878254 16.582 1.13867C16.9727 2.60352 17.4284 3.98698 17.9492 5.28906C18.5026 6.59114 19.0885 7.83626 19.707 9.02441C20.3255 10.2126 20.9603 11.36 21.6113 12.4668C22.2949 13.6061 22.9622 14.7129 23.6133 15.7871C24.4922 17.1543 25.3385 18.5378 26.1523 19.9375C26.9661 21.3047 27.6823 22.7207 28.3008 24.1855C28.9193 25.6504 29.4238 27.1803 29.8145 28.7754C30.1725 30.403 30.3516 32.1283 30.3516 33.9512C30.3516 36.1973 29.9772 38.3213 29.2285 40.3232C28.4798 42.3252 27.4056 44.0911 26.0059 45.6211C24.6061 47.0859 22.9948 48.2171 21.1719 49.0146C19.349 49.8122 17.4121 50.2109 15.3613 50.2109ZM15.3613 5.48438C14.515 7.69792 13.5547 9.74056 12.4805 11.6123C11.4062 13.4841 10.332 15.3151 9.25781 17.1055C8.37891 18.4727 7.5651 19.8073 6.81641 21.1094C6.03516 22.4115 5.35156 23.738 4.76562 25.0889C4.17969 26.4398 3.72396 27.8477 3.39844 29.3125C3.04036 30.7448 2.86133 32.291 2.86133 33.9512C2.86133 35.9043 3.18685 37.7272 3.83789 39.4199C4.45638 41.0801 5.32715 42.5286 6.4502 43.7656C7.57324 45.0026 8.89974 45.9629 10.4297 46.6465C11.9271 47.3626 13.571 47.7207 15.3613 47.7207C17.1517 47.7207 18.8118 47.3626 20.3418 46.6465C21.8392 45.9629 23.1494 45.0026 24.2725 43.7656C25.3955 42.5286 26.2826 41.0801 26.9336 39.4199C27.5521 37.7272 27.8613 35.9043 27.8613 33.9512C27.8613 32.291 27.6823 30.7448 27.3242 29.3125C26.9987 27.8477 26.543 26.4398 25.957 25.0889C25.3711 23.738 24.7038 22.4115 23.9551 21.1094C23.1738 19.8073 22.36 18.4727 21.5137 17.1055C20.4069 15.3151 19.3164 13.4841 18.2422 11.6123C17.168 9.74056 16.2077 7.69792 15.3613 5.48438Z" fill="#F50C18"/>
</svg>
