<svg width="50" height="41" viewBox="0 0 50 41" fill="none" xmlns="http://www.w3.org/2000/svg">
<g clip-path="url(#clip0_357_1234)">
<g clip-path="url(#clip1_357_1234)">
<mask id="mask0_357_1234" style="mask-type:luminance" maskUnits="userSpaceOnUse" x="0" y="0" width="50" height="41">
<path d="M49.5942 0.876953H0.582031V40.0867H49.5942V0.876953Z" fill="white"/>
</mask>
<g mask="url(#mask0_357_1234)">
<path d="M17.7363 20.4818C23.1506 20.4818 27.5387 16.0937 27.5387 10.6794C27.5387 5.26508 23.1506 0.876953 17.7363 0.876953C12.322 0.876953 7.93386 5.26508 7.93386 10.6794C7.93386 16.0937 12.322 20.4818 17.7363 20.4818ZM24.598 22.9324H23.3191C21.619 23.7136 19.7274 24.1577 17.7363 24.1577C15.7452 24.1577 13.8613 23.7136 12.1535 22.9324H10.8745C5.19224 22.9324 0.582031 27.5427 0.582031 33.225V36.4108C0.582031 38.4402 2.22853 40.0867 4.25794 40.0867H31.2146C33.2441 40.0867 34.8905 38.4402 34.8905 36.4108V33.225C34.8905 27.5427 30.2803 22.9324 24.598 22.9324ZM49.3338 13.0994L47.2048 10.9475C46.8526 10.5875 46.2782 10.5875 45.9183 10.9398L37.8925 18.9043L34.4081 15.3968C34.0558 15.0369 33.4814 15.0368 33.1216 15.3891L30.9695 17.5258C30.6097 17.8781 30.6097 18.4524 30.9619 18.8123L37.2186 25.115C37.5709 25.475 38.1453 25.475 38.5052 25.1227L49.3262 14.386C49.6785 14.026 49.6861 13.4517 49.3338 13.0994Z" fill="white"/>
</g>
</g>
</g>
<defs>
<clipPath id="clip0_357_1234">
<rect width="50" height="40.19" fill="white" transform="translate(0 0.669922)"/>
</clipPath>
<clipPath id="clip1_357_1234">
<rect width="49.9924" height="40.19" fill="white" transform="translate(0.00390625 0.669922)"/>
</clipPath>
</defs>
</svg>
