<svg width="51" height="51" viewBox="0 0 51 51" fill="none" xmlns="http://www.w3.org/2000/svg">
<g id="SVG" clip-path="url(#clip0_151_538)">
<path id="Vector" d="M31.6421 24.0205L26.7886 33.7275C26.2026 34.9092 24.5034 34.8701 23.9663 33.6689L18.4097 21.335L15.48 28.3369H6.29051L24.1128 46.5498C24.8061 47.2627 25.9292 47.2627 26.6225 46.5498L44.4546 28.3369H33.8003L31.6421 24.0205ZM46.6323 7.42871L46.3979 7.18457C41.3686 2.04785 33.1362 2.04785 28.0972 7.18457L25.3725 9.97754L22.6479 7.19434C17.6186 2.04785 9.37645 2.04785 4.34715 7.19434L4.11278 7.42871C-0.64308 12.292 -0.848158 20.0361 3.39989 25.2119H13.3999L16.9057 16.7939C17.4331 15.5342 19.2104 15.5049 19.7768 16.7549L25.4604 29.3818L30.2456 19.8213C30.8218 18.6689 32.4624 18.6689 33.0386 19.8213L35.7339 25.2119H47.3452C51.5932 20.0361 51.3882 12.292 46.6323 7.42871Z" fill="#F50C18"/>
</g>
<defs>
<clipPath id="clip0_151_538">
<rect width="50" height="50" fill="white" transform="translate(0.371094 0.210938)"/>
</clipPath>
</defs>
</svg>
