<svg width="50" height="37" viewBox="0 0 50 37" fill="none" xmlns="http://www.w3.org/2000/svg">
<path d="M45.385 0.193359H5.55653C3.01842 0.193359 0.960938 2.25084 0.960938 4.78891V32.3624C0.960938 34.9006 3.01842 36.958 5.55653 36.958H45.385C47.923 36.958 49.9806 34.9006 49.9806 32.3624V4.78891C49.9806 2.25084 47.923 0.193359 45.385 0.193359ZM44.8105 32.3624H6.13098C5.97863 32.3624 5.83251 32.3019 5.72478 32.1942C5.61705 32.0865 5.55653 31.9404 5.55653 31.788V5.36342C5.55653 5.21107 5.61705 5.06489 5.72478 4.95724C5.83251 4.8495 5.97863 4.78891 6.13098 4.78891H44.8105C44.9628 4.78891 45.109 4.8495 45.2168 4.95724C45.3244 5.06489 45.385 5.21107 45.385 5.36342V31.788C45.385 31.9404 45.3244 32.0865 45.2168 32.1942C45.109 32.3019 44.9628 32.3624 44.8105 32.3624ZM13.2159 8.61861C11.1008 8.61861 9.38618 10.3332 9.38618 12.4482C9.38618 14.5633 11.1008 16.2779 13.2159 16.2779C15.3309 16.2779 17.0455 14.5633 17.0455 12.4482C17.0455 10.3332 15.3309 8.61861 13.2159 8.61861ZM10.1521 27.7668H40.7894V20.1075L32.4106 11.7288C31.962 11.2801 31.2345 11.2801 30.7858 11.7288L19.3433 23.1713L15.5601 19.388C15.1115 18.9394 14.384 18.9394 13.9353 19.388L10.1521 23.1713V27.7668Z" fill="white"/>
</svg>
