<svg width="50" height="41" viewBox="0 0 50 41" fill="none" xmlns="http://www.w3.org/2000/svg">
<g clip-path="url(#clip0_357_1245)">
<g clip-path="url(#clip1_357_1245)">
<mask id="mask0_357_1245" style="mask-type:luminance" maskUnits="userSpaceOnUse" x="0" y="0" width="50" height="41">
<path d="M49.977 0.876953H0.964844V40.0867H49.977V0.876953Z" fill="white"/>
</mask>
<g mask="url(#mask0_357_1245)">
<path d="M19.3444 30.2842C18.6705 30.2842 18.1191 30.8356 18.1191 31.5095C18.1191 32.1835 18.6705 32.7348 19.3444 32.7348C20.0184 32.7348 20.5698 32.1835 20.5698 31.5095C20.5698 30.8356 20.0184 30.2842 19.3444 30.2842ZM31.5975 32.7348C32.2714 32.7348 32.8228 32.1835 32.8228 31.5095C32.8228 30.8356 32.2714 30.2842 31.5975 30.2842C30.9236 30.2842 30.3722 30.8356 30.3722 31.5095C30.3722 32.1835 30.9236 32.7348 31.5975 32.7348ZM48.7518 0.876953H2.19015C1.51623 0.876953 0.964844 1.42834 0.964844 2.10226V4.55287C0.964844 5.22679 1.51623 5.77817 2.19015 5.77817H48.7518C49.4257 5.77817 49.9771 5.22679 49.9771 4.55287V2.10226C49.9771 1.42834 49.4257 0.876953 48.7518 0.876953ZM48.7518 35.1855H45.0759V8.22878H5.86606V35.1855H2.19015C1.51623 35.1855 0.964844 35.7368 0.964844 36.4108V38.8614C0.964844 39.5353 1.51623 40.0867 2.19015 40.0867H48.7518C49.4257 40.0867 49.9771 39.5353 49.9771 38.8614V36.4108C49.9771 35.7368 49.4257 35.1855 48.7518 35.1855ZM37.724 19.8691C37.724 20.2061 37.4483 20.4818 37.1114 20.4818H26.6963V22.9324H34.6608C34.9977 22.9324 35.2734 23.2081 35.2734 23.5451V24.7704C35.2734 25.1074 34.9977 25.383 34.6608 25.383H26.6963V27.8336H31.5975C33.6269 27.8336 35.2734 29.4801 35.2734 31.5095C35.2734 33.5389 33.6269 35.1855 31.5975 35.1855C29.5681 35.1855 27.9216 33.5389 27.9216 31.5095V30.2842H23.0204V31.5095C23.0204 33.5389 21.3738 35.1855 19.3444 35.1855C17.315 35.1855 15.6685 33.5389 15.6685 31.5095C15.6685 29.4801 17.315 27.8336 19.3444 27.8336H24.2457V25.383H16.2812C15.9442 25.383 15.6685 25.1074 15.6685 24.7704V23.5451C15.6685 23.2081 15.9442 22.9324 16.2812 22.9324H24.2457V20.4818H13.8306C13.4936 20.4818 13.2179 20.2061 13.2179 19.8691V18.6438C13.2179 18.3069 13.4936 18.0312 13.8306 18.0312H24.2457V15.5806H16.2812C15.9442 15.5806 15.6685 15.3049 15.6685 14.9679V13.7426C15.6685 13.4057 15.9442 13.13 16.2812 13.13H24.2457V11.292C24.2457 10.9551 24.5213 10.6794 24.8583 10.6794H26.0836C26.4205 10.6794 26.6963 10.9551 26.6963 11.292V13.13H34.6608C34.9977 13.13 35.2734 13.4057 35.2734 13.7426V14.9679C35.2734 15.3049 34.9977 15.5806 34.6608 15.5806H26.6963V18.0312H37.1114C37.4483 18.0312 37.724 18.3069 37.724 18.6438V19.8691Z" fill="white"/>
</g>
</g>
</g>
<defs>
<clipPath id="clip0_357_1245">
<rect width="50" height="40.19" fill="white" transform="translate(0 0.669922)"/>
</clipPath>
<clipPath id="clip1_357_1245">
<rect width="49.9924" height="40.19" fill="white" transform="translate(0.00390625 0.669922)"/>
</clipPath>
</defs>
</svg>
