<svg width="30" height="49" viewBox="0 0 30 49" fill="none" xmlns="http://www.w3.org/2000/svg">
<path d="M14.8656 48.435C12.9131 48.435 11.055 48.0493 9.29142 47.2776C7.52783 46.5061 5.96895 45.4117 4.61477 43.9946C3.2606 42.5144 2.21347 40.806 1.47339 38.8691C0.733319 36.9324 0.363281 34.8775 0.363281 32.7045C0.363281 30.941 0.552236 29.2718 0.930147 27.6972C1.27656 26.154 1.75682 24.6739 2.37093 23.2567C2.98503 21.8396 3.68575 20.4697 4.47306 19.147C5.22888 17.7928 6.03194 16.4544 6.88224 15.1317C7.54358 14.0609 8.18918 12.9902 8.81903 11.9194C9.48037 10.8487 10.1023 9.73862 10.6849 8.5891C11.2676 7.43962 11.8266 6.23503 12.3619 4.97533C12.8659 3.71564 13.3067 2.37721 13.6846 0.960035C13.7791 0.708095 13.9287 0.49552 14.1334 0.322313C14.3381 0.149105 14.5822 0.0625 14.8656 0.0625C15.149 0.0625 15.3931 0.149105 15.5978 0.322313C15.8025 0.49552 15.9521 0.708095 16.0465 0.960035C16.4245 2.37721 16.8654 3.71564 17.3692 4.97533C17.9046 6.23503 18.4715 7.43962 19.0698 8.5891C19.6682 9.73862 20.2823 10.8487 20.9121 11.9194C21.5735 13.0217 22.2191 14.0924 22.849 15.1317C23.6993 16.4544 24.518 17.7928 25.3053 19.147C26.0926 20.4697 26.7855 21.8396 27.3839 23.2567C27.9823 24.6739 28.4704 26.154 28.8483 27.6972C29.1947 29.2718 29.368 30.941 29.368 32.7045C29.368 34.8775 29.0057 36.9324 28.2814 38.8691C27.5571 40.806 26.5178 42.5144 25.1637 43.9946C23.8095 45.4117 22.2506 46.5061 20.487 47.2776C18.7235 48.0493 16.8496 48.435 14.8656 48.435ZM14.8656 5.1643C14.0468 7.30579 13.1178 9.28194 12.0785 11.0928C11.0392 12.9036 9.99997 14.675 8.96074 16.4072C8.11045 17.7299 7.32313 19.021 6.59881 20.2807C5.84299 21.5405 5.18164 22.8238 4.61477 24.1307C4.04791 25.4376 3.60701 26.7997 3.29209 28.2168C2.94567 29.6025 2.77246 31.0984 2.77246 32.7045C2.77246 34.5941 3.08739 36.3576 3.71724 37.9952C4.3156 39.6014 5.15802 41.0028 6.24452 42.1995C7.331 43.3962 8.61433 44.3253 10.0945 44.9866C11.5432 45.6794 13.1335 46.0259 14.8656 46.0259C16.5977 46.0259 18.2038 45.6794 19.684 44.9866C21.1326 44.3253 22.4002 43.3962 23.4867 42.1995C24.5732 41.0028 25.4314 39.6014 26.0612 37.9952C26.6596 36.3576 26.9587 34.5941 26.9587 32.7045C26.9587 31.0984 26.7855 29.6025 26.4391 28.2168C26.1242 26.7997 25.6833 25.4376 25.1164 24.1307C24.5496 22.8238 23.904 21.5405 23.1796 20.2807C22.4238 19.021 21.6365 17.7299 20.8177 16.4072C19.7469 14.675 18.6919 12.9036 17.6527 11.0928C16.6135 9.28194 15.6844 7.30579 14.8656 5.1643Z" fill="white"/>
</svg>
