<svg width="50" height="50" viewBox="0 0 50 50" fill="none" xmlns="http://www.w3.org/2000/svg">
<path d="M34.3341 12.3217C31.6446 12.3217 29.1554 12.7544 26.9562 13.5529L28.1444 1.76617C28.2478 0.766638 27.3679 -0.0462072 26.3646 0.0792143C18.734 1.03662 12.8334 7.50013 12.8334 15.3308C12.8334 18.0202 13.2661 20.5095 14.0646 22.7086L2.2779 21.5205C1.27836 21.4172 0.465512 22.297 0.590933 23.3003C1.54835 30.931 8.01185 36.8315 15.8425 36.8315C18.5319 36.8315 21.0212 36.3987 23.2203 35.6002L22.0322 47.387C21.9317 48.3856 22.8087 49.1993 23.8121 49.0739C31.4427 48.1165 37.3432 41.653 37.3432 33.8223C37.3432 31.1329 36.9104 28.6436 36.112 26.4445L47.8987 27.6326C48.8982 27.7331 49.711 26.8562 49.5856 25.8528C48.6283 18.2223 42.1647 12.3217 34.3341 12.3217ZM25.0883 27.6403C24.4823 27.6403 23.89 27.4606 23.3862 27.1239C22.8824 26.7873 22.4896 26.3088 22.2578 25.749C22.0259 25.1892 21.9652 24.5731 22.0835 23.9789C22.2016 23.3846 22.4935 22.8386 22.9219 22.4102C23.3503 21.9818 23.8963 21.6899 24.4906 21.5718C25.0848 21.4535 25.7009 21.5142 26.2607 21.7461C26.8205 21.9779 27.2991 22.3706 27.6357 22.8745C27.9723 23.3783 28.152 23.9706 28.152 24.5766C28.152 25.3891 27.8293 26.1684 27.2546 26.7429C26.6801 27.3175 25.9008 27.6403 25.0883 27.6403Z" fill="white"/>
</svg>
