<svg width="51" height="67" viewBox="0 0 51 67" fill="none" xmlns="http://www.w3.org/2000/svg">
<path d="M24.4468 33.544C23.7959 31.4615 23.8089 27.4396 24.1864 27.4396C25.28 27.4396 25.1759 32.2424 24.4468 33.544ZM24.2255 39.6873C23.223 42.3165 21.9732 45.3231 20.5281 47.8481C22.9106 46.937 25.6055 45.6094 28.717 44.9977C27.0636 43.7482 25.4753 41.952 24.2255 39.6873ZM11.9748 55.9308C11.9748 56.035 13.6933 55.228 16.5184 50.6985C15.6461 51.5185 12.7299 53.8874 11.9748 55.9308ZM33.0522 21.0359H50.7578V63.7272C50.7578 65.4583 49.3648 66.8509 47.6333 66.8509H3.89013C2.15864 66.8509 0.765625 65.4583 0.765625 63.7272V3.33469C0.765625 1.60361 2.15864 0.210938 3.89013 0.210938H29.9277V17.9122C29.9277 19.6302 31.3337 21.0359 33.0522 21.0359ZM32.0107 43.3968C29.407 41.8089 27.6755 39.6222 26.4517 36.3944C27.0375 33.9865 27.9619 30.3291 27.2589 28.0383C26.647 24.2117 21.7389 24.5892 21.0359 27.1533C20.3849 29.5351 20.9838 32.8932 22.0904 37.1753C20.5802 40.7676 18.354 45.5834 16.7787 48.3427C16.7657 48.3427 16.7657 48.3557 16.7527 48.3557C13.2246 50.1649 7.17087 54.1477 9.65746 57.2064C10.3865 58.1044 11.7405 58.5079 12.4565 58.5079C14.7869 58.5079 17.1042 56.1651 20.411 50.4643C23.7698 49.3579 27.4541 47.9783 30.6958 47.4446C33.5209 48.9805 36.8277 49.9827 39.0278 49.9827C42.8293 49.9827 43.0897 45.8177 41.5925 44.3339C39.7829 42.5638 34.5233 43.0714 32.0107 43.3968ZM49.8465 13.8773L37.088 1.12203C36.5022 0.536328 35.7081 0.210938 34.8749 0.210938H34.0937V16.8709H50.7578V16.077C50.7578 15.257 50.4323 14.463 49.8465 13.8773ZM40.1995 47.1062C40.7333 46.7548 39.8741 45.5574 34.6275 45.9348C39.4575 47.9913 40.1995 47.1062 40.1995 47.1062Z" fill="#F50C18"/>
</svg>
