<svg width="51" height="51" viewBox="0 0 51 51" fill="none" xmlns="http://www.w3.org/2000/svg">
<g id="SVG" clip-path="url(#clip0_151_550)">
<path id="Vector" d="M46.293 6.46094H5.66797C3.0791 6.46094 0.980469 8.55957 0.980469 11.1484V39.2734C0.980469 41.8623 3.0791 43.9609 5.66797 43.9609H46.293C48.8818 43.9609 50.9805 41.8623 50.9805 39.2734V11.1484C50.9805 8.55957 48.8818 6.46094 46.293 6.46094ZM45.707 39.2734H6.25391C6.09851 39.2734 5.94947 39.2117 5.83959 39.1018C5.7297 38.9919 5.66797 38.8429 5.66797 38.6875V11.7344C5.66797 11.579 5.7297 11.4299 5.83959 11.3201C5.94947 11.2102 6.09851 11.1484 6.25391 11.1484H45.707C45.8624 11.1484 46.0115 11.2102 46.1214 11.3201C46.2312 11.4299 46.293 11.579 46.293 11.7344V38.6875C46.293 38.8429 46.2312 38.9919 46.1214 39.1018C46.0115 39.2117 45.8624 39.2734 45.707 39.2734ZM13.4805 15.0547C11.3231 15.0547 9.57422 16.8036 9.57422 18.9609C9.57422 21.1183 11.3231 22.8672 13.4805 22.8672C15.6378 22.8672 17.3867 21.1183 17.3867 18.9609C17.3867 16.8036 15.6378 15.0547 13.4805 15.0547ZM10.3555 34.5859H41.6055V26.7734L33.0591 18.2271C32.6015 17.7694 31.8595 17.7694 31.4018 18.2271L19.7305 29.8984L15.8716 26.0395C15.414 25.5819 14.672 25.5819 14.2143 26.0395L10.3555 29.8984V34.5859Z" fill="#F50C18"/>
</g>
<defs>
<clipPath id="clip0_151_550">
<rect width="50" height="50" fill="white" transform="translate(0.980469 0.210938)"/>
</clipPath>
</defs>
</svg>
