<svg width="50" height="51" viewBox="0 0 50 51" fill="none" xmlns="http://www.w3.org/2000/svg">
<mask id="mask0_357_1257" style="mask-type:luminance" maskUnits="userSpaceOnUse" x="0" y="0" width="50" height="50">
<path d="M49.3829 0.876953H0.363281V49.8966H49.3829V0.876953Z" fill="white"/>
</mask>
<g mask="url(#mask0_357_1257)">
<path d="M31.0211 24.2203L26.2628 33.737C25.6883 34.8955 24.0224 34.8572 23.4958 33.6795L18.0482 21.5875L15.1759 28.4521H6.16663L23.6395 46.3079C24.3192 47.0068 25.4202 47.0068 26.1 46.3079L43.5824 28.4521H33.137L31.0211 24.2203ZM45.7174 7.95385L45.4876 7.7145C40.5569 2.6785 32.4859 2.6785 27.5457 7.7145L24.8745 10.4527L22.2033 7.72408C17.2726 2.6785 9.19206 2.6785 4.26138 7.72408L4.0316 7.95385C-0.631007 12.7218 -0.832064 20.314 3.33269 25.3884H13.1366L16.5737 17.1354C17.0907 15.9004 18.8332 15.8717 19.3885 17.0972L24.9606 29.4765L29.652 20.1035C30.2169 18.9736 31.8253 18.9736 32.3902 20.1035L35.0327 25.3884H46.4163C50.581 20.314 50.3801 12.7218 45.7174 7.95385Z" fill="white"/>
</g>
</svg>
