<svg width="40" height="53" viewBox="0 0 40 53" fill="none" xmlns="http://www.w3.org/2000/svg">
<path d="M19.175 26.169C18.6645 24.5356 18.6747 21.3812 18.9708 21.3812C19.8285 21.3812 19.7469 25.1481 19.175 26.169ZM19.0015 30.9872C18.2152 33.0494 17.235 35.4075 16.1015 37.3879C17.9702 36.6733 20.0838 35.632 22.5242 35.1523C21.2274 34.1723 19.9817 32.7635 19.0015 30.9872ZM9.39307 43.7272C9.39307 43.809 10.7409 43.176 12.9567 39.6235C12.2725 40.2666 9.98531 42.1246 9.39307 43.7272ZM25.9244 16.3587H39.8111V49.8421C39.8111 51.1998 38.7186 52.292 37.3605 52.292H3.05215C1.69412 52.292 0.601562 51.1998 0.601562 49.8421V2.47539C0.601562 1.11768 1.69412 0.0253906 3.05215 0.0253906H23.4738V13.9087C23.4738 15.2562 24.5765 16.3587 25.9244 16.3587ZM25.1075 33.8967C23.0654 32.6512 21.7073 30.9362 20.7475 28.4046C21.207 26.516 21.932 23.6475 21.3806 21.8508C20.9007 18.8495 17.0512 19.1456 16.4998 21.1567C15.9892 23.0247 16.459 25.6585 17.3269 29.017C16.1424 31.8345 14.3964 35.6116 13.1608 37.7758C13.1506 37.7758 13.1506 37.786 13.1404 37.786C10.3733 39.205 5.62528 42.3287 7.57555 44.7277C8.14735 45.432 9.20931 45.7485 9.77088 45.7485C11.5986 45.7485 13.4161 43.911 16.0097 39.4398C18.6441 38.572 21.5337 37.49 24.0762 37.0714C26.292 38.276 28.8855 39.0621 30.6111 39.0621C33.5927 39.0621 33.7969 35.7954 32.6226 34.6316C31.2033 33.2433 27.0782 33.6414 25.1075 33.8967ZM39.0964 10.7441L29.0897 0.739973C28.6302 0.280599 28.0074 0.0253906 27.3539 0.0253906H26.7412V13.092H39.8111V12.4694C39.8111 11.8262 39.5558 11.2035 39.0964 10.7441ZM31.5301 36.806C31.9488 36.5304 31.2749 35.5912 27.1599 35.8872C30.9481 37.5002 31.5301 36.806 31.5301 36.806Z" fill="white"/>
</svg>
