<svg width="50" height="45" viewBox="0 0 50 45" fill="none" xmlns="http://www.w3.org/2000/svg">
<g clip-path="url(#clip0_357_1266)">
<g clip-path="url(#clip1_357_1266)">
<mask id="mask0_357_1266" style="mask-type:luminance" maskUnits="userSpaceOnUse" x="0" y="0" width="50" height="45">
<path d="M49.7611 0.876953H0.75V44.438H49.7611V0.876953Z" fill="white"/>
</mask>
<g mask="url(#mask0_357_1266)">
<path d="M25.2489 10.4049C26.8312 10.4049 28.3285 10.7282 29.7408 11.2217C30.8723 10.3453 31.7486 9.1542 32.2505 7.75889C30.1067 6.83151 27.7416 6.31253 25.2573 6.31253C22.7817 6.31253 20.4166 6.82301 18.2726 7.75038C18.7746 9.1457 19.6509 10.3368 20.7824 11.2131C22.1862 10.7282 23.6749 10.4049 25.2489 10.4049ZM14.6739 38.2006C15.6948 37.1967 16.4095 35.9544 16.7583 34.5932C13.9594 32.347 12.0962 29.0374 11.7474 25.2684C11.0242 25.0302 10.2841 24.8771 9.50138 24.8771C8.8548 24.8771 8.20823 24.9621 7.58718 25.1407C7.93598 30.4838 10.6329 35.1803 14.6739 38.2006ZM33.7479 34.5762C34.0967 35.9375 34.8113 37.1882 35.8322 38.1921C39.8648 35.1717 42.5617 30.4753 42.8935 25.1323C42.2809 24.9621 41.6429 24.8771 41.0048 24.8771C40.2222 24.8771 39.4735 25.0387 38.7418 25.2769C38.393 29.0374 36.5299 32.3301 33.7479 34.5762ZM43.404 17.1348C41.9066 16.2499 40.3157 15.7224 38.6993 15.4416C39.2097 13.9357 39.55 12.3447 39.55 10.6601C39.55 7.17184 38.3164 3.78564 36.0619 1.11412C35.8492 0.858882 35.5004 0.799325 35.2112 0.960978C34.9304 1.12263 34.8028 1.47146 34.9049 1.78626C35.2877 2.96036 35.4664 4.02386 35.4664 5.06185C35.4664 10.8303 30.8894 15.5182 25.2573 15.5182C19.6253 15.5182 15.0483 10.8303 15.0483 5.06185C15.0483 4.03237 15.2354 2.96036 15.6098 1.78626C15.7119 1.47146 15.5843 1.12263 15.3035 0.960978C15.0143 0.799325 14.6654 0.858882 14.4528 1.11412C12.2068 3.78564 10.9647 7.17184 10.9647 10.6601C10.9647 12.3447 11.2965 13.9357 11.8154 15.4416C10.2075 15.7224 8.60808 16.2499 7.11075 17.1348C4.16714 18.8789 1.92115 21.6695 0.789648 24.9962C0.679051 25.3109 0.806664 25.6512 1.08741 25.8299C1.36816 26.0001 1.72548 25.9405 1.93817 25.6938C2.73787 24.7749 3.5546 24.0688 4.42237 23.5583C9.2972 20.6741 15.5503 22.3927 18.3662 27.3869C21.1822 32.3811 19.5062 38.7877 14.6314 41.6719C13.7636 42.1908 12.7598 42.5567 11.5858 42.812C11.2709 42.88 11.0412 43.1693 11.0412 43.5011C11.0498 43.8414 11.2709 44.1221 11.5943 44.1817C14.9717 44.8454 18.4513 44.2498 21.3949 42.5057C22.9262 41.6038 24.1939 40.4212 25.2489 39.0939C26.3038 40.4212 27.5714 41.6038 29.1027 42.5057C32.0463 44.2498 35.5259 44.8454 38.9035 44.1817C39.2267 44.1221 39.4479 43.8414 39.4564 43.5011C39.4564 43.1693 39.2353 42.88 38.912 42.812C37.7295 42.5652 36.734 42.1908 35.8662 41.6719C30.9914 38.7877 29.3154 32.3811 32.1314 27.3869C34.9475 22.3927 41.2005 20.6741 46.0753 23.5583C46.9431 24.0773 47.7598 24.7749 48.5595 25.6938C48.7722 25.9405 49.1295 26.0001 49.4103 25.8299C49.691 25.6598 49.8186 25.3109 49.7081 24.9962C48.5935 21.6695 46.3476 18.8703 43.404 17.1348ZM25.2489 28.1101C22.9944 28.1101 21.1652 26.2808 21.1652 24.0262C21.1652 21.7716 22.9944 19.9424 25.2489 19.9424C27.5034 19.9424 29.3325 21.7716 29.3325 24.0262C29.3325 26.2808 27.5034 28.1101 25.2489 28.1101Z" fill="white"/>
</g>
</g>
</g>
<defs>
<clipPath id="clip0_357_1266">
<rect width="50" height="44.11" fill="white" transform="translate(0 0.669922)"/>
</clipPath>
<clipPath id="clip1_357_1266">
<rect width="49.9913" height="44.11" fill="white" transform="translate(0.00390625 0.669922)"/>
</clipPath>
</defs>
</svg>
