<svg width="45" height="50" viewBox="0 0 45 50" fill="none" xmlns="http://www.w3.org/2000/svg">
<path d="M27.3438 8.10547C27.0833 8.10547 26.8555 8.20312 26.6602 8.39844C26.4648 8.59375 26.3672 8.82161 26.3672 9.08203C26.3672 9.34245 26.4648 9.57031 26.6602 9.76562C26.8555 9.96094 27.0833 10.0586 27.3438 10.0586C27.6042 10.0586 27.832 9.96094 28.0273 9.76562C28.2227 9.57031 28.3203 9.34245 28.3203 9.08203C28.3203 8.82161 28.2227 8.59375 28.0273 8.39844C27.832 8.20312 27.6042 8.10547 27.3438 8.10547ZM17.5781 8.10547C17.3177 8.10547 17.0898 8.20312 16.8945 8.39844C16.6992 8.59375 16.6016 8.82161 16.6016 9.08203C16.6016 9.34245 16.6992 9.57031 16.8945 9.76562C17.0898 9.96094 17.3177 10.0586 17.5781 10.0586C17.8385 10.0586 18.0664 9.96094 18.2617 9.76562C18.457 9.57031 18.5547 9.34245 18.5547 9.08203C18.5547 8.82161 18.457 8.59375 18.2617 8.39844C18.0664 8.20312 17.8385 8.10547 17.5781 8.10547ZM43.6523 29.1992C44.0755 28.5482 44.3929 27.8564 44.6045 27.124C44.8161 26.3916 44.9219 25.6836 44.9219 25C44.9219 23.9909 44.7021 23.0225 44.2627 22.0947C43.8232 21.167 43.2129 20.3939 42.4316 19.7754C42.627 19.3522 42.7653 18.929 42.8467 18.5059C42.9281 18.0827 42.9688 17.6432 42.9688 17.1875C42.9688 15.8203 42.6025 14.5508 41.8701 13.3789C41.1377 12.207 40.1855 11.3281 39.0137 10.7422C39.209 9.27734 38.8753 7.93457 38.0127 6.71387C37.1501 5.49316 36.0026 4.70378 34.5703 4.3457C34.0169 3.04362 33.1624 1.99382 32.0068 1.19629C30.8512 0.398763 29.6224 0 28.3203 0C27.0833 0 25.9521 0.325521 24.9268 0.976562C23.9014 1.6276 23.0794 2.47396 22.4609 3.51562C21.8424 2.47396 21.0205 1.6276 19.9951 0.976562C18.9697 0.325521 17.8385 0 16.6016 0C15.2995 0 14.0706 0.398763 12.915 1.19629C11.7594 1.99382 10.9049 3.04362 10.3516 4.3457C8.91927 4.70378 7.77181 5.49316 6.90918 6.71387C6.04655 7.93457 5.71289 9.27734 5.9082 10.7422C4.73633 11.3281 3.78418 12.207 3.05176 13.3789C2.31934 14.5508 1.95312 15.8203 1.95312 17.1875C1.95312 17.6432 1.99382 18.0827 2.0752 18.5059C2.15658 18.929 2.29492 19.3522 2.49023 19.7754C1.70898 20.3939 1.09863 21.167 0.65918 22.0947C0.219727 23.0225 0 23.9909 0 25C0 25.6836 0.105794 26.3997 0.317383 27.1484C0.528971 27.8971 0.846354 28.5807 1.26953 29.1992C0.846354 29.7526 0.528971 30.363 0.317383 31.0303C0.105794 31.6976 0 32.3893 0 33.1055C0 34.0169 0.179036 34.8877 0.537109 35.7178C0.895182 36.5479 1.39974 37.2884 2.05078 37.9395C1.72526 39.9577 2.24609 41.8213 3.61328 43.5303C4.98047 45.2393 6.70573 46.0938 8.78906 46.0938C8.78906 46.0938 8.7972 46.0938 8.81348 46.0938C8.82975 46.0938 8.85417 46.0938 8.88672 46.0938C9.57031 47.2982 10.5143 48.2503 11.7188 48.9502C12.9232 49.6501 14.2253 50 15.625 50C17.0898 50 18.4245 49.6094 19.6289 48.8281C20.8333 48.0469 21.7773 47.0215 22.4609 45.752C23.1445 47.0215 24.0885 48.0469 25.293 48.8281C26.4974 49.6094 27.832 50 29.2969 50C30.6966 50 31.9987 49.6501 33.2031 48.9502C34.4076 48.2503 35.3516 47.2982 36.0352 46.0938C36.0677 46.0938 36.0921 46.0938 36.1084 46.0938C36.1247 46.0938 36.1328 46.0938 36.1328 46.0938C37.9883 46.0938 39.5915 45.3857 40.9424 43.9697C42.2933 42.5537 42.9688 40.8854 42.9688 38.9648C42.9688 38.8021 42.9606 38.6393 42.9443 38.4766C42.9281 38.3138 42.9036 38.1348 42.8711 37.9395C43.5221 37.2884 44.0267 36.5479 44.3848 35.7178C44.7428 34.8877 44.9219 34.0169 44.9219 33.1055C44.9219 32.3893 44.8161 31.6976 44.6045 31.0303C44.3929 30.363 44.0755 29.7526 43.6523 29.1992ZM21.4844 14.7949C21.1914 14.6322 20.8822 14.502 20.5566 14.4043C20.2311 14.3066 19.8893 14.2578 19.5312 14.2578C19.2708 14.2578 19.043 14.3555 18.8477 14.5508C18.6523 14.7461 18.5547 14.974 18.5547 15.2344C18.5547 15.4948 18.6523 15.7227 18.8477 15.918C19.043 16.1133 19.2708 16.2109 19.5312 16.2109C20.0846 16.2109 20.5485 16.3981 20.9229 16.7725C21.2972 17.1468 21.4844 17.6107 21.4844 18.1641V36.7188C20.7682 35.9049 19.9056 35.262 18.8965 34.79C17.8874 34.318 16.7969 34.082 15.625 34.082C15.3646 34.082 15.1367 34.1797 14.9414 34.375C14.7461 34.5703 14.6484 34.7982 14.6484 35.0586C14.6484 35.319 14.7461 35.5469 14.9414 35.7422C15.1367 35.9375 15.3646 36.0352 15.625 36.0352C17.2526 36.0352 18.6361 36.6048 19.7754 37.7441C20.9147 38.8835 21.4844 40.2669 21.4844 41.8945C21.4844 43.5547 20.9066 44.9951 19.751 46.2158C18.5954 47.4365 17.2201 48.0469 15.625 48.0469C14.4857 48.0469 13.4359 47.7376 12.4756 47.1191C11.5153 46.5007 10.791 45.6706 10.3027 44.6289C10.2376 44.4336 10.1074 44.2871 9.91211 44.1895C9.7168 44.0918 9.52148 44.0592 9.32617 44.0918C9.29362 44.0918 9.26107 44.0918 9.22852 44.0918C9.19596 44.0918 9.16341 44.0918 9.13086 44.0918C7.73112 44.2871 6.42904 43.7337 5.22461 42.4316C4.02018 41.1296 3.62956 39.5996 4.05273 37.8418C4.08529 37.6465 4.07715 37.4593 4.02832 37.2803C3.97949 37.1012 3.8737 36.9629 3.71094 36.8652C3.15755 36.377 2.72624 35.8073 2.41699 35.1562C2.10775 34.5052 1.95312 33.8216 1.95312 33.1055C1.95312 32.6497 2.01823 32.2103 2.14844 31.7871C2.27865 31.3639 2.45768 30.9733 2.68555 30.6152C3.27148 31.071 3.91439 31.4372 4.61426 31.7139C5.31413 31.9906 6.05469 32.1289 6.83594 32.1289C7.09635 32.1289 7.32422 32.0312 7.51953 31.8359C7.71484 31.6406 7.8125 31.4128 7.8125 31.1523C7.8125 30.8919 7.71484 30.6641 7.51953 30.4688C7.32422 30.2734 7.09635 30.1758 6.83594 30.1758C5.5013 30.1758 4.35384 29.6549 3.39355 28.6133C2.43327 27.5716 1.95312 26.3672 1.95312 25C1.95312 24.1536 2.15658 23.3724 2.56348 22.6562C2.97038 21.9401 3.5319 21.3542 4.24805 20.8984C4.44336 20.7357 4.57357 20.5322 4.63867 20.2881C4.70378 20.0439 4.67122 19.8079 4.54102 19.5801C4.3457 19.1895 4.19108 18.7988 4.07715 18.4082C3.96322 18.0176 3.90625 17.6107 3.90625 17.1875C3.90625 15.8854 4.37826 14.6973 5.32227 13.623C6.26628 12.5488 7.42188 12.0117 8.78906 12.0117C10.0911 12.0117 11.2305 12.5326 12.207 13.5742C13.1836 14.6159 13.6719 15.8203 13.6719 17.1875C13.6719 17.4479 13.7695 17.6758 13.9648 17.8711C14.1602 18.0664 14.388 18.1641 14.6484 18.1641C14.9089 18.1641 15.1367 18.0664 15.332 17.8711C15.5273 17.6758 15.625 17.4479 15.625 17.1875C15.625 15.2669 14.9495 13.5986 13.5986 12.1826C12.2477 10.7666 10.6445 10.0586 8.78906 10.0586C8.6263 10.0586 8.46354 10.0667 8.30078 10.083C8.13802 10.0993 7.97526 10.1237 7.8125 10.1562C7.8125 10.1237 7.8125 10.0993 7.8125 10.083C7.8125 10.0667 7.8125 10.0586 7.8125 10.0586C7.8125 8.98438 8.19499 8.06478 8.95996 7.2998C9.72493 6.53483 10.6445 6.15234 11.7188 6.15234C12.2396 6.15234 12.736 6.25 13.208 6.44531C13.68 6.64062 14.1113 6.91732 14.502 7.27539C14.6647 7.4707 14.8844 7.56836 15.1611 7.56836C15.4378 7.56836 15.6738 7.4707 15.8691 7.27539C16.0645 7.11263 16.1621 6.8929 16.1621 6.61621C16.1621 6.33952 16.0645 6.10352 15.8691 5.9082C15.4134 5.45247 14.9089 5.08626 14.3555 4.80957C13.8021 4.53288 13.2324 4.3457 12.6465 4.24805C13.0697 3.62956 13.623 3.09245 14.3066 2.63672C14.9902 2.18099 15.7552 1.95312 16.6016 1.95312C17.9036 1.95312 19.043 2.47396 20.0195 3.51562C20.9961 4.55729 21.4844 5.76172 21.4844 7.12891V14.7949ZM38.0859 32.1289C38.8672 32.1289 39.6077 31.9906 40.3076 31.7139C41.0075 31.4372 41.6504 31.071 42.2363 30.6152C42.4642 30.9733 42.6432 31.3639 42.7734 31.7871C42.9036 32.2103 42.9688 32.6497 42.9688 33.1055C42.9688 33.8216 42.8141 34.5052 42.5049 35.1562C42.1956 35.8073 41.7643 36.377 41.2109 36.8652C41.0482 36.9629 40.9424 37.1012 40.8936 37.2803C40.8447 37.4593 40.8366 37.6465 40.8691 37.8418C40.9017 38.0371 40.9342 38.2324 40.9668 38.4277C40.9993 38.623 41.0156 38.8021 41.0156 38.9648C41.0156 40.4948 40.4541 41.7806 39.3311 42.8223C38.208 43.8639 37.028 44.2871 35.791 44.0918C35.7585 44.0918 35.7259 44.0918 35.6934 44.0918C35.6608 44.0918 35.6283 44.0918 35.5957 44.0918C35.4004 44.0592 35.2051 44.0918 35.0098 44.1895C34.8145 44.2871 34.6842 44.4336 34.6191 44.6289C34.1309 45.6706 33.4066 46.5007 32.4463 47.1191C31.486 47.7376 30.4362 48.0469 29.2969 48.0469C27.7018 48.0469 26.3265 47.4365 25.1709 46.2158C24.0153 44.9951 23.4375 43.5547 23.4375 41.8945C23.4375 40.2669 24.0072 38.8835 25.1465 37.7441C26.2858 36.6048 27.6693 36.0352 29.2969 36.0352C29.5573 36.0352 29.7852 35.9375 29.9805 35.7422C30.1758 35.5469 30.2734 35.319 30.2734 35.0586C30.2734 34.7982 30.1758 34.5703 29.9805 34.375C29.7852 34.1797 29.5573 34.082 29.2969 34.082C28.125 34.082 27.0345 34.318 26.0254 34.79C25.0163 35.262 24.1536 35.9049 23.4375 36.7188V18.1641C23.4375 17.6107 23.6247 17.1468 23.999 16.7725C24.3734 16.3981 24.8372 16.2109 25.3906 16.2109C25.651 16.2109 25.8789 16.1133 26.0742 15.918C26.2695 15.7227 26.3672 15.4948 26.3672 15.2344C26.3672 14.974 26.2695 14.7461 26.0742 14.5508C25.8789 14.3555 25.651 14.2578 25.3906 14.2578C25.0326 14.2578 24.6908 14.3066 24.3652 14.4043C24.0397 14.502 23.7305 14.6322 23.4375 14.7949V7.12891C23.4375 5.76172 23.9258 4.55729 24.9023 3.51562C25.8789 2.47396 27.0182 1.95312 28.3203 1.95312C29.1667 1.95312 29.9316 2.18099 30.6152 2.63672C31.2988 3.09245 31.8522 3.62956 32.2754 4.24805C31.6895 4.3457 31.1198 4.53288 30.5664 4.80957C30.013 5.08626 29.5085 5.45247 29.0527 5.9082C28.8574 6.10352 28.7598 6.33952 28.7598 6.61621C28.7598 6.8929 28.8574 7.11263 29.0527 7.27539C29.248 7.4707 29.484 7.56836 29.7607 7.56836C30.0374 7.56836 30.2572 7.4707 30.4199 7.27539C30.8105 6.91732 31.2419 6.64062 31.7139 6.44531C32.1859 6.25 32.6823 6.15234 33.2031 6.15234C34.2773 6.15234 35.1969 6.53483 35.9619 7.2998C36.7269 8.06478 37.1094 8.98438 37.1094 10.0586C37.1094 10.0586 37.1094 10.0667 37.1094 10.083C37.1094 10.0993 37.1094 10.1237 37.1094 10.1562C36.9466 10.1237 36.7839 10.0993 36.6211 10.083C36.4583 10.0667 36.2956 10.0586 36.1328 10.0586C34.2773 10.0586 32.6742 10.7666 31.3232 12.1826C29.9723 13.5986 29.2969 15.2669 29.2969 17.1875C29.2969 17.4479 29.3945 17.6758 29.5898 17.8711C29.7852 18.0664 30.013 18.1641 30.2734 18.1641C30.5339 18.1641 30.7617 18.0664 30.957 17.8711C31.1523 17.6758 31.25 17.4479 31.25 17.1875C31.25 15.8203 31.7383 14.6159 32.7148 13.5742C33.6914 12.5326 34.8307 12.0117 36.1328 12.0117C37.5 12.0117 38.6556 12.5407 39.5996 13.5986C40.5436 14.6566 41.0156 15.8529 41.0156 17.1875C41.0156 17.6107 40.9587 18.0176 40.8447 18.4082C40.7308 18.7988 40.5762 19.1895 40.3809 19.5801C40.2507 19.8079 40.2181 20.0439 40.2832 20.2881C40.3483 20.5322 40.4785 20.7357 40.6738 20.8984C41.39 21.3542 41.9515 21.9401 42.3584 22.6562C42.7653 23.3724 42.9688 24.1536 42.9688 25C42.9688 26.3672 42.4886 27.5716 41.5283 28.6133C40.568 29.6549 39.4206 30.1758 38.0859 30.1758C37.8255 30.1758 37.5977 30.2734 37.4023 30.4688C37.207 30.6641 37.1094 30.8919 37.1094 31.1523C37.1094 31.4128 37.207 31.6406 37.4023 31.8359C37.5977 32.0312 37.8255 32.1289 38.0859 32.1289ZM19.2871 20.8984C19.0918 20.7031 18.8639 20.5973 18.6035 20.5811C18.3431 20.5648 18.1152 20.6543 17.9199 20.8496C16.3574 22.2493 14.6077 22.5179 12.6709 21.6553C10.734 20.7926 9.76562 19.3034 9.76562 17.1875C9.76562 16.9271 9.66797 16.6992 9.47266 16.5039C9.27734 16.3086 9.04948 16.2109 8.78906 16.2109C8.52865 16.2109 8.30078 16.3086 8.10547 16.5039C7.91016 16.6992 7.8125 16.9271 7.8125 17.1875C7.8125 18.8802 8.35775 20.3613 9.44824 21.6309C10.5387 22.9004 11.8978 23.6654 13.5254 23.9258C13.3301 24.5117 12.9801 25 12.4756 25.3906C11.971 25.7812 11.3932 25.9766 10.7422 25.9766C10.4818 25.9766 10.2539 26.0742 10.0586 26.2695C9.86328 26.4648 9.76562 26.6927 9.76562 26.9531C9.76562 27.2135 9.86328 27.4414 10.0586 27.6367C10.2539 27.832 10.4818 27.9297 10.7422 27.9297C11.9466 27.9297 12.9964 27.5472 13.8916 26.7822C14.7868 26.0173 15.332 25.0814 15.5273 23.9746C16.2109 23.877 16.862 23.6898 17.4805 23.4131C18.099 23.1364 18.6686 22.7539 19.1895 22.2656C19.4173 22.1029 19.5312 21.8831 19.5312 21.6064C19.5312 21.3298 19.4499 21.0938 19.2871 20.8984ZM8.78906 37.9883C8.52865 37.9883 8.30078 38.0859 8.10547 38.2812C7.91016 38.4766 7.8125 38.7044 7.8125 38.9648C7.8125 39.2253 7.91016 39.4531 8.10547 39.6484C8.30078 39.8438 8.52865 39.9414 8.78906 39.9414C10.0911 39.9414 11.2305 40.4622 12.207 41.5039C13.1836 42.5456 13.6719 43.75 13.6719 45.1172C13.6719 45.3776 13.7695 45.6055 13.9648 45.8008C14.1602 45.9961 14.388 46.0938 14.6484 46.0938C14.9089 46.0938 15.1367 45.9961 15.332 45.8008C15.5273 45.6055 15.625 45.3776 15.625 45.1172C15.625 43.1966 14.9495 41.5283 13.5986 40.1123C12.2477 38.6963 10.6445 37.9883 8.78906 37.9883ZM16.6016 30.1758C14.9414 30.1758 13.4359 30.5908 12.085 31.4209C10.734 32.251 9.68424 33.3171 8.93555 34.6191C8.80534 34.847 8.78092 35.0911 8.8623 35.3516C8.94368 35.612 9.09831 35.8073 9.32617 35.9375C9.55404 36.1003 9.79818 36.141 10.0586 36.0596C10.319 35.9782 10.5143 35.8236 10.6445 35.5957C11.2305 34.554 12.0524 33.7158 13.1104 33.0811C14.1683 32.4463 15.332 32.1289 16.6016 32.1289C16.862 32.1289 17.0898 32.0312 17.2852 31.8359C17.4805 31.6406 17.5781 31.4128 17.5781 31.1523C17.5781 30.8919 17.4805 30.6641 17.2852 30.4688C17.0898 30.2734 16.862 30.1758 16.6016 30.1758ZM34.1797 25.9766C33.5286 25.9766 32.9508 25.7812 32.4463 25.3906C31.9417 25 31.5918 24.5117 31.3965 23.9258C33.0241 23.6654 34.3831 22.9004 35.4736 21.6309C36.5641 20.3613 37.1094 18.8802 37.1094 17.1875C37.1094 16.9271 37.0117 16.6992 36.8164 16.5039C36.6211 16.3086 36.3932 16.2109 36.1328 16.2109C35.8724 16.2109 35.6445 16.3086 35.4492 16.5039C35.2539 16.6992 35.1562 16.9271 35.1562 17.1875C35.1562 18.5221 34.6761 19.6696 33.7158 20.6299C32.7555 21.5902 31.6081 22.0703 30.2734 22.0703C29.6875 22.0703 29.1097 21.9645 28.54 21.7529C27.9704 21.5413 27.4577 21.2402 27.002 20.8496C26.8066 20.6543 26.5788 20.5648 26.3184 20.5811C26.0579 20.5973 25.8301 20.7031 25.6348 20.8984C25.472 21.0938 25.3906 21.3298 25.3906 21.6064C25.3906 21.8831 25.5046 22.1029 25.7324 22.2656C26.2533 22.7539 26.8229 23.1364 27.4414 23.4131C28.0599 23.6898 28.7109 23.877 29.3945 23.9746C29.5898 25.0814 30.1351 26.0173 31.0303 26.7822C31.9255 27.5472 32.9753 27.9297 34.1797 27.9297C34.4401 27.9297 34.668 27.832 34.8633 27.6367C35.0586 27.4414 35.1562 27.2135 35.1562 26.9531C35.1562 26.6927 35.0586 26.4648 34.8633 26.2695C34.668 26.0742 34.4401 25.9766 34.1797 25.9766ZM36.1328 37.9883C34.2773 37.9883 32.6742 38.6963 31.3232 40.1123C29.9723 41.5283 29.2969 43.1966 29.2969 45.1172C29.2969 45.3776 29.3945 45.6055 29.5898 45.8008C29.7852 45.9961 30.013 46.0938 30.2734 46.0938C30.5339 46.0938 30.7617 45.9961 30.957 45.8008C31.1523 45.6055 31.25 45.3776 31.25 45.1172C31.25 43.75 31.7383 42.5456 32.7148 41.5039C33.6914 40.4622 34.8307 39.9414 36.1328 39.9414C36.3932 39.9414 36.6211 39.8438 36.8164 39.6484C37.0117 39.4531 37.1094 39.2253 37.1094 38.9648C37.1094 38.7044 37.0117 38.4766 36.8164 38.2812C36.6211 38.0859 36.3932 37.9883 36.1328 37.9883ZM35.9863 34.6191C35.2376 33.3171 34.1878 32.251 32.8369 31.4209C31.486 30.5908 29.9805 30.1758 28.3203 30.1758C28.0599 30.1758 27.832 30.2734 27.6367 30.4688C27.4414 30.6641 27.3438 30.8919 27.3438 31.1523C27.3438 31.4128 27.4414 31.6406 27.6367 31.8359C27.832 32.0312 28.0599 32.1289 28.3203 32.1289C29.5898 32.1289 30.7536 32.4463 31.8115 33.0811C32.8695 33.7158 33.6914 34.554 34.2773 35.5957C34.4076 35.8236 34.6029 35.9782 34.8633 36.0596C35.1237 36.141 35.3678 36.1003 35.5957 35.9375C35.8236 35.8073 35.9782 35.612 36.0596 35.3516C36.141 35.0911 36.1165 34.847 35.9863 34.6191Z" fill="white"/>
</svg>
