<svg width="51" height="48" viewBox="0 0 51 48" fill="none" xmlns="http://www.w3.org/2000/svg">
<path d="M24.1589 5.33398C23.6497 5.33398 23.1405 5.45148 22.6509 5.62773L8.2376 11.6006C7.27951 11.993 6.51644 12.7497 6.11616 13.7045C5.71588 14.6593 5.71115 15.734 6.10302 16.6923L15.8164 40.0944C16.1033 40.8042 16.5919 41.4143 17.2219 41.8494C17.8519 42.2845 18.5955 42.5253 19.3609 42.5423C19.8701 42.5423 20.3989 42.4835 20.908 42.2485L35.3409 36.2756C36.0375 35.98 36.6347 35.4908 37.0617 34.866C37.4886 34.2412 37.7274 33.507 37.7497 32.7506C37.7693 32.261 37.6714 31.6931 37.4951 31.1839L27.7034 7.7819C27.4266 7.06518 26.9405 6.44839 26.3083 6.01179C25.6761 5.57519 24.9271 5.33901 24.1589 5.33398ZM30.9739 5.33398L37.7301 21.686V9.25065C37.7301 8.21188 37.3175 7.21566 36.5829 6.48114C35.8484 5.74663 34.8522 5.33398 33.8134 5.33398M41.6664 8.34981V26.0335L46.4251 14.5577C46.6202 14.0833 46.7197 13.5751 46.718 13.0622C46.7163 12.5493 46.6133 12.0417 46.415 11.5687C46.2166 11.0956 45.9269 10.6664 45.5623 10.3056C45.1978 9.94479 44.7656 9.65949 44.2905 9.46606M24.1589 9.1919L33.9114 32.731L19.4393 38.7235L9.68677 15.2039" fill="#0FA3E3"/>
</svg>
