<svg width="55" height="55" viewBox="0 0 55 55" fill="none" xmlns="http://www.w3.org/2000/svg">
<path d="M55 32.4424C55 30.8669 54.5972 29.4435 53.7915 28.1724C52.9858 26.9012 51.9027 25.9434 50.542 25.2988V11.334C50.542 9.86589 50.2734 8.4873 49.7363 7.19824C49.1634 5.90918 48.3936 4.78125 47.4268 3.81445C46.46 2.84766 45.332 2.0778 44.043 1.50488C42.7539 0.967773 41.3753 0.699219 39.9072 0.699219C38.4391 0.699219 37.0605 0.967773 35.7715 1.50488C34.4824 2.0778 33.3545 2.84766 32.3877 3.81445C31.4209 4.78125 30.6689 5.90918 30.1318 7.19824C29.5589 8.4873 29.2725 9.86589 29.2725 11.334V12.4082C28.6995 12.3008 28.1266 12.2381 27.5537 12.2202C26.9808 12.2023 26.4079 12.2471 25.835 12.3545C25.7992 12.3545 25.7633 12.3545 25.7275 12.3545C25.6917 12.3545 25.6559 12.3724 25.6201 12.4082C25.6559 12.2292 25.6828 12.0501 25.7007 11.8711C25.7186 11.6921 25.7275 11.513 25.7275 11.334V7.78906C25.7275 7.07292 25.4858 6.46419 25.0024 5.96289C24.519 5.46159 23.9372 5.19303 23.2568 5.15723C22.3617 3.76074 21.189 2.66862 19.7388 1.88086C18.2886 1.0931 16.7399 0.699219 15.0928 0.699219C12.4072 0.699219 10.1066 1.64811 8.19092 3.5459C6.27523 5.44368 5.31738 7.73535 5.31738 10.4209V11.334C5.31738 12.3366 5.55908 13.2855 6.04248 14.1807C6.52588 15.0758 7.17936 15.8099 8.00293 16.3828V16.4365C8.00293 17.5824 8.24463 18.6297 8.72803 19.5786C9.21143 20.5275 9.84701 21.3242 10.6348 21.9688V23.9023L6.66016 24.5469C4.72656 24.8691 3.13314 25.7733 1.87988 27.2593C0.626628 28.7453 0 30.473 0 32.4424V39.7471H15.6836C14.1797 40.32 12.9622 41.2778 12.0312 42.6206C11.1003 43.9634 10.6348 45.4762 10.6348 47.1592V55.6992H44.3652V47.1592C44.3652 45.4762 43.8997 43.9634 42.9688 42.6206C42.0378 41.2778 40.8203 40.32 39.3164 39.7471H55V32.4424ZM31.0449 11.334C31.0449 8.89909 31.9132 6.81331 33.6499 5.07666C35.3866 3.34001 37.4723 2.47168 39.9072 2.47168C42.3779 2.47168 44.4727 3.34001 46.1914 5.07666C47.9102 6.81331 48.7695 8.89909 48.7695 11.334V24.6543C48.6979 24.6185 48.6263 24.5916 48.5547 24.5737C48.4831 24.5558 48.4115 24.5469 48.3398 24.5469L44.3652 23.9023V21.9688C45.153 21.3242 45.7886 20.5275 46.272 19.5786C46.7554 18.6297 46.9971 17.5824 46.9971 16.4365V10.8506L45.7617 11.4414C45.7617 11.4414 45.2962 11.5757 44.3652 11.8442C43.4342 12.1128 41.9482 12.2471 39.9072 12.2471C37.902 12.2471 36.4339 12.1128 35.5029 11.8442C34.5719 11.5757 34.1064 11.4414 34.1064 11.4414L32.8174 10.7969V13.6436C32.5309 13.5003 32.2445 13.3571 31.958 13.2139C31.6715 13.0706 31.3672 12.9453 31.0449 12.8379V11.334ZM36.7383 17.6182C36.4518 17.0811 36.1296 16.5977 35.7715 16.168C35.4134 15.7383 35.0195 15.3265 34.5898 14.9326V13.4287C35.127 13.5719 35.8341 13.7062 36.7114 13.8315C37.5887 13.9569 38.654 14.0195 39.9072 14.0195C41.1963 14.0195 42.2795 13.9569 43.1567 13.8315C44.034 13.7062 44.7233 13.5719 45.2246 13.4287V16.4365C45.2246 17.9046 44.7054 19.1668 43.667 20.2231C42.6286 21.2795 41.3753 21.8076 39.9072 21.8076C39.764 21.8076 39.6208 21.7987 39.4775 21.7808C39.3343 21.7629 39.1911 21.736 39.0479 21.7002V20.4111C39.0479 19.695 38.8241 19.0773 38.3765 18.5581C37.9289 18.0389 37.3828 17.7256 36.7383 17.6182ZM38.2422 27.501C38.4928 26.9281 38.6898 26.3193 38.833 25.6748C38.9762 25.0303 39.0479 24.3857 39.0479 23.7412V23.4727C39.1911 23.5085 39.3343 23.5353 39.4775 23.5532C39.6208 23.5711 39.764 23.5801 39.9072 23.5801C40.3727 23.5801 40.8293 23.5264 41.2769 23.4189C41.7244 23.3115 42.1631 23.1862 42.5928 23.043V24.4932L39.9072 32.4961L38.2422 27.501ZM38.3496 33.3555L35.8789 30.8848C36.1296 30.7057 36.3444 30.4998 36.5234 30.2671C36.7025 30.0343 36.8815 29.8105 37.0605 29.5957L38.3496 33.3555ZM44.0967 25.6211L45.4932 25.8896L46.0303 28.79L41.5186 33.3555L44.0967 25.6211ZM26.1035 14.127C28.0013 13.8047 29.8096 14.0822 31.5283 14.9595C33.2471 15.8368 34.5361 17.1348 35.3955 18.8535L35.6641 19.3369H36.2012C36.4876 19.3369 36.7383 19.4354 36.9531 19.6323C37.168 19.8293 37.2754 20.0889 37.2754 20.4111V23.7412C37.2754 24.6722 37.1143 25.5674 36.792 26.4268C36.4697 27.2861 36.04 28.056 35.5029 28.7363V23.3115L34.2676 23.8486C34.2318 23.8486 33.6857 23.9829 32.6294 24.2515C31.5731 24.52 29.8633 24.6543 27.5 24.6543C25.1367 24.6543 23.4269 24.52 22.3706 24.2515C21.3143 23.9829 20.7682 23.8486 20.7324 23.8486L19.4971 23.3115V26.6953C19.139 25.9434 18.8883 25.1556 18.7451 24.332C18.6019 23.5085 18.584 22.6849 18.6914 21.8613C18.9062 19.8919 19.7119 18.1821 21.1084 16.7319C22.5049 15.2817 24.1699 14.4134 26.1035 14.127ZM17.5635 26.6953C17.6709 26.946 17.7873 27.1966 17.9126 27.4473C18.0379 27.6979 18.1722 27.9486 18.3154 28.1992L16.7578 27.2861L17.5635 26.6953ZM15.0928 26.2119L12.4072 24.1709V23.043C12.8369 23.1862 13.2756 23.3115 13.7231 23.4189C14.1707 23.5264 14.6273 23.5801 15.0928 23.5801C15.3792 23.5801 15.6746 23.5532 15.979 23.4995C16.2834 23.4458 16.5788 23.3831 16.8652 23.3115C16.901 23.598 16.9279 23.8665 16.9458 24.1172C16.9637 24.3678 17.0085 24.6364 17.0801 24.9229L15.0928 26.2119ZM18.7451 30.5088L19.6045 31.0459C19.7477 32.0127 20.0431 32.9079 20.4907 33.7314C20.9383 34.555 21.5023 35.2712 22.1826 35.8799V37.9209H18.5303L17.7783 31.959L18.7451 30.5088ZM22.8271 39.8008L25.9424 42.2715L23.3105 43.8291L20.9473 40.2305L22.8271 39.8008ZM23.9551 38.4043V37.1152C24.4922 37.3659 25.0562 37.5628 25.647 37.7061C26.2378 37.8493 26.8555 37.9209 27.5 37.9209C28.1445 37.9209 28.7622 37.8493 29.353 37.7061C29.9438 37.5628 30.5078 37.3659 31.0449 37.1152V38.4043L27.5 41.251L23.9551 38.4043ZM32.1729 39.8008L34.0527 40.2305L31.6895 43.8291L29.0576 42.2715L32.1729 39.8008ZM27.5 36.1484C25.7812 36.1484 24.3132 35.5487 23.0957 34.3491C21.8783 33.1496 21.2695 31.6904 21.2695 29.9717V25.8359C21.8783 25.9792 22.6929 26.1134 23.7134 26.2388C24.7339 26.3641 25.9961 26.4268 27.5 26.4268C29.0039 26.4268 30.2661 26.3641 31.2866 26.2388C32.3071 26.1134 33.1217 25.9792 33.7305 25.8359V29.9717C33.7305 31.6904 33.1217 33.1496 31.9043 34.3491C30.6868 35.5487 29.2188 36.1484 27.5 36.1484ZM8.00293 10.7969V13.9658C7.71647 13.6077 7.49268 13.196 7.33154 12.7305C7.17041 12.265 7.08984 11.7995 7.08984 11.334V10.4209C7.08984 8.23665 7.86865 6.36572 9.42627 4.80811C10.9839 3.25049 12.8727 2.47168 15.0928 2.47168C16.4893 2.47168 17.8052 2.82975 19.0405 3.5459C20.2759 4.26204 21.2516 5.22884 21.9678 6.44629L22.2363 6.87598H23.042C23.2926 6.87598 23.5075 6.96549 23.6865 7.14453C23.8656 7.32357 23.9551 7.53841 23.9551 7.78906V11.334C23.9551 11.6204 23.9282 11.8979 23.8745 12.1665C23.8208 12.4351 23.7402 12.6947 23.6328 12.9453C23.3822 13.0527 23.1315 13.1691 22.8809 13.2944C22.6302 13.4198 22.3975 13.5361 22.1826 13.6436V10.8506L20.8936 11.4414C20.8936 11.4414 20.4281 11.5757 19.4971 11.8442C18.5661 12.1128 17.098 12.2471 15.0928 12.2471C13.0518 12.2471 11.5658 12.1128 10.6348 11.8442C9.70378 11.5757 9.23828 11.4414 9.23828 11.4414L8.00293 10.7969ZM9.77539 16.4365V13.4287C10.2767 13.5719 10.966 13.7062 11.8433 13.8315C12.7205 13.9569 13.8037 14.0195 15.0928 14.0195C16.346 14.0195 17.4113 13.9569 18.2886 13.8315C19.1659 13.7062 19.873 13.5719 20.4102 13.4287V14.9326C19.4792 15.792 18.7093 16.7767 18.1006 17.8867C17.4919 18.9967 17.1159 20.1784 16.9727 21.4316C16.6504 21.5391 16.3371 21.6286 16.0327 21.7002C15.7284 21.7718 15.415 21.8076 15.0928 21.8076C13.6247 21.8076 12.3714 21.2795 11.333 20.2231C10.2946 19.1668 9.77539 17.9046 9.77539 16.4365ZM11.2793 25.5674L13.4814 27.2324L10.957 28.7363L9.23828 25.9434L11.2793 25.5674ZM11.6553 37.9209H7.08984V35.2891H5.31738V37.9209H1.77246V32.4424C1.77246 30.9027 2.26481 29.5599 3.24951 28.4141C4.23421 27.2682 5.47852 26.57 6.98242 26.3193L7.3584 26.2119L10.3662 31.1533L11.4404 30.5088L12.4072 31.959L11.6553 37.9209ZM13.4277 37.9209L14.2334 31.5293L12.9443 29.5957L15.0928 28.3604L17.1875 29.5957L15.9521 31.5293L16.7578 37.9209H13.4277ZM24.0625 53.9268H17.7246V49.4688H15.9521V53.9268H12.4072V47.1592C12.4072 45.6911 12.8548 44.3931 13.75 43.2651C14.6452 42.1372 15.8089 41.4121 17.2412 41.0898L19.0674 40.6602L22.7734 46.2461L23.8477 45.6016L24.8145 47.0518L24.0625 53.9268ZM29.165 53.9268H25.835L26.6406 46.5684L25.3516 44.6885L27.5 43.3994L29.6484 44.6885L28.3594 46.5684L29.165 53.9268ZM42.5928 47.1592V53.9268H39.0479V49.4688H37.2754V53.9268H30.9375L30.1855 47.0518L31.1523 45.6016L32.2266 46.2461L35.9326 40.6602L37.7588 41.0898C39.1911 41.4121 40.3548 42.1372 41.25 43.2651C42.1452 44.3931 42.5928 45.6911 42.5928 47.1592ZM53.2275 37.9209H49.6826V35.2891H47.9102V37.9209H32.8174V35.8799C33.3187 35.4502 33.7573 34.9489 34.1333 34.376C34.5093 33.8031 34.8047 33.1943 35.0195 32.5498L39.9072 37.4375L47.9639 29.3809L47.3193 26.1582L48.0176 26.3193C49.5215 26.57 50.7658 27.2682 51.7505 28.4141C52.7352 29.5599 53.2275 30.9027 53.2275 32.4424V37.9209Z" fill="white"/>
</svg>
