<svg width="56" height="56" viewBox="0 0 56 56" fill="none" xmlns="http://www.w3.org/2000/svg">
<path d="M55.1562 42.0908C54.8698 41.6969 54.5654 41.3568 54.2432 41.0703C53.9209 40.7839 53.5628 40.5511 53.1689 40.3721L48.1738 37.8477C48.138 37.8118 48.0754 37.7134 47.9858 37.5522C47.8963 37.3911 47.8516 37.1852 47.8516 36.9346V36.29C48.4245 35.7171 48.8542 35.0278 49.1406 34.2222C49.4271 33.4165 49.5703 32.584 49.5703 31.7246V30.0059C49.5703 29.3255 49.445 28.672 49.1943 28.0454C48.9437 27.4188 48.5498 26.8727 48.0127 26.4072C47.5472 25.9059 47.0011 25.521 46.3745 25.2524C45.7479 24.9839 45.0944 24.8496 44.4141 24.8496C43.7337 24.8496 43.0802 24.9839 42.4536 25.2524C41.827 25.521 41.2809 25.9059 40.8154 26.4072C40.2783 26.9085 39.8844 27.4635 39.6338 28.0723C39.3831 28.681 39.2578 29.3255 39.2578 30.0059V31.7246C39.2578 32.5482 39.41 33.3717 39.7144 34.1953C40.0187 35.0189 40.4395 35.7171 40.9766 36.29V36.9346C40.9766 37.1852 40.9318 37.3911 40.8423 37.5522C40.7528 37.7134 40.6901 37.8118 40.6543 37.8477L37.9688 39.1904L33.5645 36.9883C33.5286 36.9525 33.466 36.863 33.3765 36.7197C33.2869 36.5765 33.2422 36.3617 33.2422 36.0752V33.1748C34.0299 32.387 34.6387 31.4829 35.0684 30.4624C35.498 29.4419 35.7487 28.3945 35.8203 27.3203C35.8919 27.2487 35.9546 27.195 36.0083 27.1592C36.062 27.1234 36.1068 27.0876 36.1426 27.0518C36.3216 26.8369 36.4559 26.6221 36.5454 26.4072C36.6349 26.1924 36.6797 25.9775 36.6797 25.7627V21.4658C36.6797 20.2842 36.4648 19.1742 36.0352 18.1357C35.6055 17.0973 34.9788 16.1663 34.1553 15.3428C33.3675 14.555 32.4455 13.9463 31.3892 13.5166C30.3328 13.0869 29.2318 12.8721 28.0859 12.8721C26.9043 12.8721 25.7943 13.0869 24.7559 13.5166C23.7174 13.9463 22.7865 14.5729 21.9629 15.3965C21.1751 16.1842 20.5664 17.1063 20.1367 18.1626C19.707 19.2189 19.4922 20.32 19.4922 21.4658V25.7627C19.4922 25.9775 19.5369 26.1924 19.6265 26.4072C19.716 26.6221 19.8503 26.8011 20.0293 26.9443C20.0651 27.016 20.1188 27.0697 20.1904 27.1055C20.262 27.1413 20.3158 27.195 20.3516 27.2666C20.4232 28.3408 20.6738 29.3971 21.1035 30.4355C21.5332 31.474 22.1419 32.3512 22.9297 33.0674V36.1289C22.9297 36.4154 22.8849 36.6302 22.7954 36.7734C22.7059 36.9167 22.6432 37.0062 22.6074 37.042L18.2031 39.1904L15.5176 37.9014C15.446 37.8656 15.3654 37.7581 15.2759 37.5791C15.1864 37.4001 15.1416 37.2031 15.1416 36.9883V36.3438C15.7145 35.735 16.1442 35.0368 16.4307 34.249C16.7171 33.4613 16.8604 32.6377 16.8604 31.7783V30.0596C16.8604 29.3792 16.735 28.7257 16.4844 28.0991C16.2337 27.4725 15.8577 26.9264 15.3564 26.4609C14.8551 25.9238 14.3001 25.5299 13.6914 25.2793C13.0827 25.0286 12.4202 24.9033 11.7041 24.9033C11.0238 24.9033 10.3703 25.0286 9.74365 25.2793C9.11702 25.5299 8.57096 25.9238 8.10547 26.4609C7.60417 26.9264 7.21924 27.4725 6.95068 28.0991C6.68213 28.7257 6.54785 29.3792 6.54785 30.0596V31.7783C6.54785 32.6019 6.70003 33.4165 7.00439 34.2222C7.30876 35.0278 7.72949 35.735 8.2666 36.3438V36.9883C8.2666 37.2389 8.22184 37.4448 8.13232 37.606C8.04281 37.7671 7.98014 37.8656 7.94434 37.9014L3.00293 40.3721C2.64486 40.5511 2.32259 40.7749 2.03613 41.0435C1.74967 41.312 1.49902 41.6074 1.28418 41.9297C1.06934 42.252 0.899251 42.61 0.773926 43.0039C0.6486 43.3978 0.585938 43.8096 0.585938 44.2393V46.9248L1.71387 47.4619C2.50163 47.8558 3.30729 48.196 4.13086 48.4824C4.95443 48.7689 5.7959 49.0016 6.65527 49.1807C7.19238 49.3239 7.7653 49.4313 8.37402 49.5029C8.98275 49.5745 9.59147 49.6283 10.2002 49.6641V55.8945H11.9189V48.1602C11.9189 46.2624 12.5187 44.8569 13.7183 43.9438C14.9178 43.0308 16.4307 42.1087 18.2568 41.1777H18.4717V41.0703L22.3926 39.083C22.679 40.4079 23.3594 41.5269 24.4336 42.4399C25.5078 43.353 26.7611 43.8096 28.1934 43.8096C29.6257 43.8096 30.8879 43.362 31.98 42.4668C33.0721 41.5716 33.7614 40.4437 34.0479 39.083L37.9688 41.0166V41.124H38.1836C40.0098 42.055 41.5226 42.9771 42.7222 43.8901C43.9217 44.8032 44.5215 46.2087 44.5215 48.1064V55.8408H46.2402V49.7715C46.849 49.6999 47.4487 49.6193 48.0396 49.5298C48.6304 49.4403 49.2122 49.3418 49.7852 49.2344C50.6445 49.0195 51.486 48.7689 52.3096 48.4824C53.1331 48.196 53.9209 47.8737 54.6729 47.5156L55.8008 47.0322V44.3467C55.8008 43.9528 55.7381 43.5679 55.6128 43.1919C55.4875 42.8159 55.3353 42.4489 55.1562 42.0908ZM8.32031 30.0596C8.32031 29.5941 8.40983 29.1465 8.58887 28.7168C8.7679 28.2871 9.01855 27.929 9.34082 27.6426C9.69889 27.3203 10.0838 27.0697 10.4956 26.8906C10.9074 26.7116 11.3281 26.6221 11.7578 26.6221C12.1875 26.6221 12.6261 26.7116 13.0737 26.8906C13.5213 27.0697 13.8883 27.3203 14.1748 27.6426C14.4971 28.0007 14.7477 28.3856 14.9268 28.7974C15.1058 29.2091 15.1953 29.6299 15.1953 30.0596V31.7783C15.1953 32.6735 14.9268 33.6134 14.3896 34.5981C13.8525 35.5828 12.9753 36.0752 11.7578 36.0752C10.5404 36.0752 9.66309 35.5828 9.12598 34.5981C8.58887 33.6134 8.32031 32.6735 8.32031 31.7783V30.0596ZM10.0391 48.0527C9.53776 47.9811 9.0096 47.9006 8.45459 47.811C7.89958 47.7215 7.38932 47.623 6.92383 47.5156C6.17188 47.3366 5.41097 47.1038 4.64111 46.8174C3.87126 46.5309 3.14616 46.2087 2.46582 45.8506H2.30469V44.2393C2.30469 43.9528 2.34049 43.7021 2.41211 43.4873C2.48372 43.2725 2.55534 43.0576 2.62695 42.8428C2.77018 42.6279 2.93132 42.4399 3.11035 42.2788C3.28939 42.1177 3.48633 42.0013 3.70117 41.9297L8.64258 39.4053C8.92904 39.2979 9.19759 39.0741 9.44824 38.7339C9.69889 38.3937 9.87793 37.973 9.98535 37.4717C10.236 37.5791 10.5135 37.6597 10.8179 37.7134C11.1222 37.7671 11.4535 37.7939 11.8115 37.7939C12.1338 37.7939 12.4382 37.7671 12.7246 37.7134C13.0111 37.6597 13.3154 37.5791 13.6377 37.4717C13.7093 37.9372 13.8704 38.349 14.1211 38.707C14.3717 39.0651 14.6403 39.2979 14.9268 39.4053L16.377 40.2109C14.6582 41.0345 13.1722 42.0103 11.9189 43.1382C10.6657 44.2661 10.0391 45.9043 10.0391 48.0527ZM23.1982 16.5781C23.8428 15.9336 24.5858 15.4412 25.4272 15.1011C26.2687 14.7609 27.1549 14.5908 28.0859 14.5908C28.9811 14.5908 29.8494 14.7609 30.6909 15.1011C31.5324 15.4412 32.3112 15.9336 33.0273 16.5781C33.6003 17.1868 34.0568 17.8672 34.397 18.6191C34.7371 19.3711 34.9251 20.1768 34.9609 21.0361C34.7103 20.9287 34.4417 20.8302 34.1553 20.7407C33.8688 20.6512 33.5645 20.6064 33.2422 20.6064H32.3828C32.2754 20.6064 32.168 20.5796 32.0605 20.5259C31.9531 20.4722 31.8457 20.4274 31.7383 20.3916C31.6667 20.2842 31.604 20.1857 31.5503 20.0962C31.4966 20.0067 31.4697 19.8903 31.4697 19.7471C31.4697 19.568 31.4339 19.4069 31.3623 19.2637C31.2907 19.1204 31.1654 19.013 30.9863 18.9414C30.8073 18.8698 30.6372 18.8519 30.4761 18.8877C30.3149 18.9235 30.1628 18.9951 30.0195 19.1025L28.5156 20.6064H22.9297C22.6074 20.6064 22.3031 20.6423 22.0166 20.7139C21.7301 20.7855 21.4616 20.8929 21.2109 21.0361C21.2467 20.2126 21.4347 19.4159 21.7749 18.646C22.1151 17.8761 22.5895 17.1868 23.1982 16.5781ZM22.0703 26.6221C22.0703 26.3714 21.9897 26.1655 21.8286 26.0044C21.6675 25.8433 21.4616 25.7627 21.2109 25.7627V24.0439C21.2109 23.8291 21.2557 23.6143 21.3452 23.3994C21.4347 23.1846 21.569 23.0055 21.748 22.8623C21.8913 22.6833 22.0703 22.549 22.2852 22.4595C22.5 22.37 22.7148 22.3252 22.9297 22.3252H28.9453C29.0885 22.3252 29.2049 22.2983 29.2944 22.2446C29.384 22.1909 29.4824 22.1462 29.5898 22.1104L30.3418 21.3047C30.4134 21.3405 30.4671 21.3763 30.5029 21.4121C30.5387 21.4479 30.5745 21.5016 30.6104 21.5732C30.8968 21.8239 31.1922 22.0119 31.4966 22.1372C31.8009 22.2625 32.1143 22.3252 32.4365 22.3252H33.2422C33.457 22.3252 33.6719 22.37 33.8867 22.4595C34.1016 22.549 34.2806 22.6833 34.4238 22.8623C34.6029 23.0055 34.7371 23.1846 34.8267 23.3994C34.9162 23.6143 34.9609 23.8291 34.9609 24.0439V25.7627C34.7103 25.7627 34.5044 25.8433 34.3433 26.0044C34.1821 26.1655 34.1016 26.3714 34.1016 26.6221C34.1016 27.9469 33.645 29.424 32.7319 31.0532C31.8188 32.6825 30.2702 33.4971 28.0859 33.4971C25.9017 33.4971 24.353 32.6825 23.4399 31.0532C22.5269 29.424 22.0703 27.9469 22.0703 26.6221ZM28.0859 42.0908C26.9759 42.0908 26.0091 41.7148 25.1855 40.9629C24.362 40.2109 23.8965 39.2979 23.7891 38.2236C24.0397 37.9372 24.2456 37.606 24.4067 37.23C24.5679 36.854 24.6484 36.4512 24.6484 36.0215V34.3027C25.1139 34.5892 25.6421 34.804 26.2329 34.9473C26.8237 35.0905 27.4414 35.1621 28.0859 35.1621C28.7305 35.1621 29.3481 35.0905 29.939 34.9473C30.5298 34.804 31.0579 34.5892 31.5234 34.3027V36.0215C31.5234 36.4512 31.604 36.854 31.7651 37.23C31.9263 37.606 32.1322 37.9372 32.3828 38.2236C32.2754 39.2979 31.8099 40.2109 30.9863 40.9629C30.1628 41.7148 29.196 42.0908 28.0859 42.0908ZM40.9766 30.0596C40.9766 29.5941 41.0661 29.1465 41.2451 28.7168C41.4242 28.2871 41.6748 27.929 41.9971 27.6426C42.3551 27.3203 42.7401 27.0697 43.1519 26.8906C43.5636 26.7116 43.9844 26.6221 44.4141 26.6221C44.8438 26.6221 45.2824 26.7116 45.73 26.8906C46.1776 27.0697 46.5446 27.3203 46.8311 27.6426C47.1533 28.0007 47.404 28.3856 47.583 28.7974C47.762 29.2091 47.8516 29.6299 47.8516 30.0596V31.7783C47.8516 32.6735 47.583 33.6134 47.0459 34.5981C46.5088 35.5828 45.6315 36.0752 44.4141 36.0752C43.1966 36.0752 42.3193 35.5828 41.7822 34.5981C41.2451 33.6134 40.9766 32.6735 40.9766 31.7783V30.0596ZM53.8672 45.8506L53.7061 45.958C52.9541 46.3161 52.2111 46.6383 51.4771 46.9248C50.743 47.2113 50 47.444 49.248 47.623C48.7109 47.7663 48.1828 47.8826 47.6636 47.9722C47.1444 48.0617 46.6341 48.1243 46.1328 48.1602C46.1328 46.0117 45.5062 44.3646 44.2529 43.2188C42.9997 42.0729 41.5495 41.0703 39.9023 40.2109L41.3525 39.459C41.6032 39.3158 41.8628 39.0741 42.1313 38.7339C42.3999 38.3937 42.57 37.973 42.6416 37.4717C42.9281 37.5791 43.2235 37.6597 43.5278 37.7134C43.8322 37.7671 44.1455 37.7939 44.4678 37.7939C44.79 37.7939 45.0944 37.7671 45.3809 37.7134C45.6673 37.6597 45.9717 37.5791 46.2939 37.4717C46.3656 37.9372 46.5356 38.349 46.8042 38.707C47.0728 39.0651 47.3324 39.3158 47.583 39.459L52.5781 41.9297C52.793 42.0371 52.9899 42.1714 53.1689 42.3325C53.348 42.4937 53.4912 42.6816 53.5986 42.8965C53.7061 43.0755 53.7866 43.2814 53.8403 43.5142C53.894 43.7469 53.9209 43.9886 53.9209 44.2393V45.8506H53.8672ZM16.9141 50.6846H18.6328V55.8408H16.9141V50.6846ZM37.5391 50.6846H39.2578V55.8408H37.5391V50.6846ZM40.1172 14.5908H41.8359V16.3096H40.1172V14.5908ZM43.5547 14.5908H45.2734V16.3096H43.5547V14.5908ZM46.9922 14.5908H48.7109V16.3096H46.9922V14.5908ZM34.9609 10.2939H53.8672V20.6064H51.2891V22.8623L49.3018 20.875C49.1943 20.8034 49.0959 20.7497 49.0063 20.7139C48.9168 20.6781 48.8005 20.6602 48.6572 20.6602H38.3447V22.3789H48.335L51.5039 25.5479C51.6113 25.6553 51.7098 25.7269 51.7993 25.7627C51.8888 25.7985 52.0052 25.8164 52.1484 25.8164C52.1842 25.8164 52.238 25.8164 52.3096 25.8164C52.3812 25.8164 52.4349 25.7806 52.4707 25.709C52.6497 25.6374 52.784 25.5299 52.8735 25.3867C52.9631 25.2435 53.0078 25.1003 53.0078 24.957V22.3789H55.5859V8.62891H33.2422V12.8721H34.9609V10.2939ZM5.74219 5.99707H22.9297V7.71582H5.74219V5.99707ZM5.74219 9.43457H22.9297V11.1533H5.74219V9.43457ZM5.74219 12.8721H17.7734V14.5908H5.74219V12.8721ZM3.16406 22.3252C3.16406 22.5042 3.20882 22.6654 3.29834 22.8086C3.38786 22.9518 3.52214 23.0592 3.70117 23.1309C3.73698 23.1667 3.79069 23.1846 3.8623 23.1846C3.93392 23.1846 3.98763 23.1846 4.02344 23.1846C4.16667 23.1846 4.28304 23.1577 4.37256 23.104C4.46208 23.0503 4.56055 23.0055 4.66797 22.9697L7.7832 19.7471H17.7734V18.0283H7.46094C7.31771 18.0283 7.20133 18.0552 7.11182 18.1089C7.0223 18.1626 6.94173 18.2253 6.87012 18.2969L4.88281 20.2842V18.0283H2.30469V2.55957H26.3672V11.1533H28.0859V0.84082H0.585938V19.7471H3.16406V22.3252Z" fill="white"/>
</svg>
