<svg width="42" height="53" viewBox="0 0 42 53" fill="none" xmlns="http://www.w3.org/2000/svg">
<path d="M38.082 2.87012H34.3223C34.1074 2.87012 33.9284 2.94173 33.7852 3.08496C33.6419 3.22819 33.5703 3.40723 33.5703 3.62207C33.5703 3.83691 33.6419 4.01595 33.7852 4.15918C33.9284 4.30241 34.1074 4.37402 34.3223 4.37402H34.8057V46.0537H6.60742V4.37402H9.72266V6.09277C9.72266 6.7373 9.9554 7.29232 10.4209 7.75781C10.8864 8.22331 11.4593 8.45605 12.1396 8.45605H15.6846C15.8636 9.45866 16.347 10.2912 17.1348 10.9536C17.9225 11.616 18.8356 11.9473 19.874 11.9473H21.5391C22.5775 11.9473 23.4816 11.616 24.2515 10.9536C25.0213 10.2912 25.4958 9.45866 25.6748 8.45605H29.2734C29.918 8.45605 30.473 8.22331 30.9385 7.75781C31.404 7.29232 31.6367 6.7373 31.6367 6.09277V2.81641C31.6367 2.17188 31.404 1.61686 30.9385 1.15137C30.473 0.685872 29.918 0.453125 29.2734 0.453125H12.1396C11.4593 0.453125 10.8864 0.685872 10.4209 1.15137C9.9554 1.61686 9.72266 2.17188 9.72266 2.81641V2.87012H3.33105C2.47168 2.87012 1.74658 3.16553 1.15576 3.75635C0.564941 4.34717 0.269531 5.05436 0.269531 5.87793V36.1709C0.269531 36.3857 0.350098 36.5648 0.51123 36.708C0.672363 36.8512 0.860352 36.9229 1.0752 36.9229C1.25423 36.9229 1.42432 36.8512 1.58545 36.708C1.74658 36.5648 1.82715 36.3857 1.82715 36.1709V5.87793C1.82715 5.44824 1.97038 5.09017 2.25684 4.80371C2.54329 4.51725 2.90137 4.37402 3.33105 4.37402H5.10352V46.8057C5.10352 47.0205 5.17513 47.2085 5.31836 47.3696C5.46159 47.5308 5.64062 47.6113 5.85547 47.6113H35.5576C35.7725 47.6113 35.9515 47.5308 36.0947 47.3696C36.238 47.2085 36.3096 47.0205 36.3096 46.8057V4.37402H38.082C38.5117 4.37402 38.8698 4.51725 39.1562 4.80371C39.4427 5.09017 39.5859 5.44824 39.5859 5.87793V49.0078C39.5859 49.4017 39.4427 49.7508 39.1562 50.0552C38.8698 50.3595 38.5117 50.5117 38.082 50.5117H3.33105C2.90137 50.5117 2.54329 50.3595 2.25684 50.0552C1.97038 49.7508 1.82715 49.4017 1.82715 49.0078V39.7695C1.82715 39.5547 1.74658 39.3757 1.58545 39.2324C1.42432 39.0892 1.25423 39.0176 1.0752 39.0176C0.860352 39.0176 0.672363 39.0892 0.51123 39.2324C0.350098 39.3757 0.269531 39.5547 0.269531 39.7695V49.0078C0.269531 49.8314 0.564941 50.5386 1.15576 51.1294C1.74658 51.7202 2.47168 52.0156 3.33105 52.0156H38.082C38.9056 52.0156 39.6128 51.7202 40.2036 51.1294C40.7944 50.5386 41.0898 49.8314 41.0898 49.0078V5.87793C41.0898 5.05436 40.7944 4.34717 40.2036 3.75635C39.6128 3.16553 38.9056 2.87012 38.082 2.87012ZM11.2803 2.81641C11.2803 2.56576 11.3608 2.35986 11.522 2.19873C11.6831 2.0376 11.889 1.95703 12.1396 1.95703H29.2734C29.5241 1.95703 29.73 2.0376 29.8911 2.19873C30.0522 2.35986 30.1328 2.56576 30.1328 2.81641V6.09277C30.1328 6.34342 30.0522 6.54932 29.8911 6.71045C29.73 6.87158 29.5241 6.95215 29.2734 6.95215H25.0303C24.8154 6.95215 24.6364 7.02376 24.4932 7.16699C24.3499 7.31022 24.2783 7.48926 24.2783 7.7041C24.2783 8.45605 24.0098 9.10059 23.4727 9.6377C22.9355 10.1748 22.291 10.4434 21.5391 10.4434H19.874C19.1221 10.4434 18.4775 10.1748 17.9404 9.6377C17.4033 9.10059 17.1348 8.45605 17.1348 7.7041C17.1348 7.48926 17.0632 7.31022 16.9199 7.16699C16.7767 7.02376 16.5977 6.95215 16.3828 6.95215H12.1396C11.889 6.95215 11.6831 6.87158 11.522 6.71045C11.3608 6.54932 11.2803 6.34342 11.2803 6.09277V2.81641ZM30.3477 21.1318H26.3193L23.7949 14.1494C23.6517 13.7913 23.3921 13.6213 23.0161 13.6392C22.6401 13.6571 22.4163 13.8451 22.3447 14.2031L19.6055 24.999L16.9199 17.3184C16.8483 16.9961 16.6424 16.826 16.3022 16.8081C15.9621 16.7902 15.7204 16.9066 15.5771 17.1572L13.375 21.1318H11.0654C10.8506 21.1318 10.6715 21.2035 10.5283 21.3467C10.3851 21.4899 10.3135 21.6689 10.3135 21.8838C10.3135 22.0628 10.3851 22.2329 10.5283 22.394C10.6715 22.5552 10.8506 22.6357 11.0654 22.6357H13.8047C13.9479 22.6357 14.0822 22.5999 14.2075 22.5283C14.3328 22.4567 14.4134 22.3672 14.4492 22.2598L16.0605 19.4131L18.9609 27.8994C19.1042 28.2575 19.3638 28.4276 19.7397 28.4097C20.1157 28.3918 20.3395 28.2038 20.4111 27.8457L23.2041 16.9424L25.084 22.0986C25.1556 22.2777 25.2541 22.4119 25.3794 22.5015C25.5047 22.591 25.639 22.6357 25.7822 22.6357H30.3477C30.5267 22.6357 30.6968 22.5552 30.8579 22.394C31.019 22.2329 31.0996 22.0628 31.0996 21.8838C31.0996 21.6689 31.019 21.4899 30.8579 21.3467C30.6968 21.2035 30.5267 21.1318 30.3477 21.1318ZM30.3477 33.5391H11.0654C10.8506 33.5391 10.6715 33.6196 10.5283 33.7808C10.3851 33.9419 10.3135 34.1299 10.3135 34.3447C10.3135 34.5238 10.3851 34.6938 10.5283 34.855C10.6715 35.0161 10.8506 35.0967 11.0654 35.0967H30.3477C30.5267 35.0967 30.6968 35.0161 30.8579 34.855C31.019 34.6938 31.0996 34.5238 31.0996 34.3447C31.0996 34.1299 31.019 33.9419 30.8579 33.7808C30.6968 33.6196 30.5267 33.5391 30.3477 33.5391ZM30.3477 40.1992H11.0654C10.8506 40.1992 10.6715 40.2798 10.5283 40.4409C10.3851 40.6021 10.3135 40.7721 10.3135 40.9512C10.3135 41.166 10.3851 41.3451 10.5283 41.4883C10.6715 41.6315 10.8506 41.7031 11.0654 41.7031H30.3477C30.5267 41.7031 30.6968 41.6315 30.8579 41.4883C31.019 41.3451 31.0996 41.166 31.0996 40.9512C31.0996 40.7721 31.019 40.6021 30.8579 40.4409C30.6968 40.2798 30.5267 40.1992 30.3477 40.1992Z" fill="white"/>
</svg>
