<svg width="56" height="56" viewBox="0 0 56 56" fill="none" xmlns="http://www.w3.org/2000/svg">
<path d="M37.1768 25.6025C35.279 25.6025 33.6587 24.9312 32.3159 23.5884C30.9731 22.2456 30.3018 20.6253 30.3018 18.7275C30.3018 16.8298 30.9731 15.2095 32.3159 13.8667C33.6587 12.5239 35.279 11.8525 37.1768 11.8525C39.0745 11.8525 40.6948 12.5239 42.0376 13.8667C43.3804 15.2095 44.0518 16.8298 44.0518 18.7275C44.0518 20.6253 43.3804 22.2456 42.0376 23.5884C40.6948 24.9312 39.0745 25.6025 37.1768 25.6025ZM37.1768 14.5918C36.0309 14.5918 35.0552 14.9946 34.2495 15.8003C33.4438 16.606 33.041 17.5817 33.041 18.7275C33.041 19.8734 33.4438 20.8491 34.2495 21.6548C35.0552 22.4604 36.0309 22.8633 37.1768 22.8633C38.3226 22.8633 39.2983 22.4604 40.104 21.6548C40.9097 20.8491 41.3125 19.8734 41.3125 18.7275C41.3125 17.5817 40.9097 16.606 40.104 15.8003C39.2983 14.9946 38.3226 14.5918 37.1768 14.5918ZM1.45898 55.8418C1.27995 55.8418 1.10091 55.806 0.921875 55.7344C0.742839 55.6628 0.581706 55.5732 0.438477 55.4658C0.25944 55.251 0.143066 55.0182 0.0893555 54.7676C0.0356445 54.5169 0.0625 54.2663 0.169922 54.0156C1.20833 51.0794 2.26465 48.5192 3.33887 46.335C4.44889 44.1507 5.54997 42.3245 6.64209 40.8564C7.73421 39.3883 8.85319 38.2962 9.99902 37.5801C11.109 36.8281 12.237 36.4521 13.3828 36.4521C14.1348 36.4521 14.8599 36.6133 15.5581 36.9355C16.2563 37.2578 16.9098 37.7412 17.5186 38.3857C18.5212 39.3883 19.112 40.3551 19.291 41.2861C19.4701 42.2171 19.4701 43.0228 19.291 43.7031C19.0762 44.7415 18.5391 45.762 17.6797 46.7646C16.8561 47.8031 15.7192 48.8236 14.269 49.8262C12.8188 50.8288 11.0553 51.8314 8.97852 52.834C6.9375 53.8008 4.57422 54.7676 1.88867 55.7344C1.81706 55.7702 1.74544 55.797 1.67383 55.8149C1.60221 55.8328 1.5306 55.8418 1.45898 55.8418ZM13.3828 39.1914C12.7025 39.1914 11.9684 39.4868 11.1807 40.0776C10.3929 40.6685 9.56934 41.5368 8.70996 42.6826C7.9222 43.7926 7.11654 45.1354 6.29297 46.7109C5.4694 48.2865 4.64583 50.0768 3.82227 52.082C5.64844 51.3301 7.29557 50.5871 8.76367 49.853C10.2318 49.119 11.5208 48.376 12.6309 47.624C14.099 46.6214 15.1105 45.7352 15.6655 44.9653C16.2205 44.1955 16.5339 43.5778 16.6055 43.1123C16.7129 42.611 16.686 42.1366 16.5249 41.689C16.3638 41.2414 16.0505 40.7848 15.585 40.3193C15.2269 39.9613 14.8599 39.6838 14.4839 39.4868C14.1079 39.2899 13.7409 39.1914 13.3828 39.1914ZM53.666 0.841797C51.9115 0.841797 50.1927 0.913411 48.5098 1.05664C46.791 1.19987 45.1439 1.42367 43.5684 1.72803C41.9928 2.03239 40.471 2.41732 39.0029 2.88281C37.5348 3.3125 36.1204 3.83171 34.7598 4.44043C32.5397 5.40723 30.4808 6.57992 28.583 7.9585C26.6852 9.33708 24.9665 10.9036 23.4268 12.6582C23.1403 12.9805 22.8628 13.3027 22.5942 13.625C22.3257 13.9473 22.084 14.2695 21.8691 14.5918C20.6517 14.6992 19.4432 14.9857 18.2437 15.4512C17.0441 15.9167 15.8356 16.5791 14.6182 17.4385C13.6156 18.1546 12.5951 19.005 11.5566 19.9897C10.5182 20.9744 9.49772 22.0934 8.49512 23.3467C6.81217 25.4593 5.47835 27.384 4.49365 29.1206C3.50895 30.8573 2.9987 31.7614 2.96289 31.833C2.81966 32.1553 2.78385 32.4775 2.85547 32.7998C2.92708 33.1221 3.10612 33.3906 3.39258 33.6055C3.5 33.6771 3.62533 33.7308 3.76855 33.7666C3.91178 33.8024 4.05501 33.8203 4.19824 33.8203C4.37728 33.8203 4.54736 33.7935 4.7085 33.7397C4.86963 33.686 5.02181 33.5876 5.16504 33.4443C5.16504 33.4443 5.47835 33.1758 6.10498 32.6387C6.73161 32.1016 7.59993 31.5107 8.70996 30.8662C9.64095 30.3291 10.8047 29.8099 12.2012 29.3086C13.5977 28.8073 15.1553 28.5029 16.874 28.3955C17.3037 29.5055 18.0199 30.6424 19.0225 31.8062C20.0251 32.9699 20.8307 33.8561 21.4395 34.4648C22.0482 35.0736 22.9344 35.8792 24.0981 36.8818C25.2619 37.8844 26.3988 38.6006 27.5088 39.0303C27.4014 40.749 27.097 42.3066 26.5957 43.7031C26.0944 45.0996 25.5752 46.2633 25.0381 47.1943C24.3936 48.3044 23.8027 49.1727 23.2656 49.7993C22.7285 50.4259 22.46 50.7393 22.46 50.7393C22.2093 50.9899 22.075 51.2853 22.0571 51.6255C22.0392 51.9657 22.1198 52.2611 22.2988 52.5117C22.4421 52.6908 22.6121 52.834 22.8091 52.9414C23.006 53.0488 23.2119 53.1025 23.4268 53.1025C23.5342 53.1025 23.6416 53.0846 23.749 53.0488C23.8564 53.013 23.9639 52.9772 24.0713 52.9414C24.1429 52.9056 25.047 52.3953 26.7837 51.4106C28.5203 50.4259 30.445 49.0921 32.5576 47.4092C33.8109 46.4066 34.9299 45.3861 35.9146 44.3477C36.8993 43.3092 37.7497 42.2887 38.4658 41.2861C39.3252 40.0687 39.9876 38.8602 40.4531 37.6606C40.9186 36.4611 41.2051 35.2526 41.3125 34.0352C41.6348 33.8203 41.957 33.5786 42.2793 33.3101C42.6016 33.0415 42.9238 32.764 43.2461 32.4775C45.0007 30.9378 46.5672 29.2191 47.9458 27.3213C49.3244 25.4235 50.4971 23.3646 51.4639 21.1445C52.0726 19.7839 52.5918 18.3695 53.0215 16.9014C53.487 15.4333 53.8719 13.9115 54.1763 12.3359C54.4806 10.7604 54.7044 9.11328 54.8477 7.39453C54.9909 5.71159 55.0625 3.99284 55.0625 2.23828V0.841797H53.666ZM8.60254 27.8047C9.92741 25.9069 11.5566 23.9554 13.4902 21.9502C15.4238 19.945 17.5186 18.5664 19.7744 17.8145C18.8792 19.39 18.1899 20.8581 17.7065 22.2188C17.2231 23.5794 16.8919 24.7253 16.7129 25.6562C15.1016 25.7279 13.6156 25.9696 12.2549 26.3813C10.8942 26.7931 9.67676 27.2676 8.60254 27.8047ZM28.0996 47.3018C28.6367 46.2275 29.1112 45.0101 29.5229 43.6494C29.9347 42.2887 30.1764 40.8027 30.248 39.1914C31.179 39.0124 32.3249 38.6812 33.6855 38.1978C35.0462 37.7144 36.5143 37.0251 38.0898 36.1299C37.3379 38.3857 35.9593 40.4805 33.9541 42.4141C31.9489 44.3477 29.9974 45.9769 28.0996 47.3018ZM41.4199 30.3828C38.5553 32.9251 35.8698 34.5991 33.3633 35.4048C30.8568 36.2104 29.3887 36.6133 28.959 36.6133C28.959 36.6133 28.7979 36.5596 28.4756 36.4521C28.1533 36.3447 27.6162 36.0225 26.8643 35.4854C26.3271 35.1273 25.7632 34.6886 25.1724 34.1694C24.5815 33.6502 23.9818 33.1042 23.373 32.5312C22.8001 31.9225 22.2541 31.3228 21.7349 30.7319C21.2157 30.1411 20.777 29.5771 20.4189 29.04C19.8818 28.2881 19.5596 27.751 19.4521 27.4287C19.3447 27.1064 19.291 26.9453 19.291 26.9453C19.291 26.5156 19.6938 25.0475 20.4995 22.541C21.3052 20.0345 22.9792 17.349 25.5215 14.4844C27.0254 12.7656 28.7262 11.2438 30.624 9.91895C32.5218 8.59408 34.5986 7.4751 36.8545 6.56201C39.1104 5.64893 41.5273 4.94173 44.1055 4.44043C46.6836 3.93913 49.4049 3.67057 52.2695 3.63477C52.2337 6.49935 51.9652 9.2207 51.4639 11.7988C50.9626 14.377 50.2554 16.7939 49.3423 19.0498C48.4292 21.3057 47.3102 23.3825 45.9854 25.2803C44.6605 27.1781 43.1387 28.8789 41.4199 30.3828Z" fill="white"/>
</svg>
