<svg width="55" height="55" viewBox="0 0 55 55" fill="none" xmlns="http://www.w3.org/2000/svg">
<path d="M40.3369 23.8477V29.3262H47.6953V23.8477H40.3369ZM45.8154 27.5H42.1631V25.6738H45.8154V27.5ZM40.3369 31.1523V36.6846H47.6953V31.1523H40.3369ZM45.8154 34.8584H42.1631V32.9785H45.8154V34.8584ZM40.3369 38.5107V43.9893H47.6953V38.5107H40.3369ZM45.8154 42.1631H42.1631V40.3369H45.8154V42.1631ZM40.3369 45.8154V51.3477H47.6953V45.8154H40.3369ZM45.8154 49.5215H42.1631V47.6416H45.8154V49.5215ZM29.3262 9.18457V3.65234H22.0215V9.18457H16.4893V16.4893H22.0215V22.0215H29.3262V16.4893H34.8584V9.18457H29.3262ZM33.0322 14.6631H27.5V20.1416H23.8477V14.6631H18.3154V11.0107H23.8477V5.47852H27.5V11.0107H33.0322V14.6631ZM38.5107 20.1416V0H12.8369V20.1416H0V55H51.3477V20.1416H38.5107ZM12.8369 53.1738H1.82617V22.0215H12.8369V53.1738ZM24.7607 53.1738H20.1953V36.6846H24.7607V53.1738ZM31.1523 53.1738H26.5869V36.6846H31.1523V53.1738ZM36.6846 53.1738H33.0322V34.8584H18.3154V53.1738H14.6631V1.82617H36.6846V53.1738ZM49.5215 53.1738H38.5107V22.0215H49.5215V53.1738ZM3.65234 23.8477V29.3262H11.0107V23.8477H3.65234ZM9.18457 27.5H5.53223V25.6738H9.18457V27.5ZM3.65234 31.1523V36.6846H11.0107V31.1523H3.65234ZM9.18457 34.8584H5.53223V32.9785H9.18457V34.8584ZM3.65234 38.5107V43.9893H11.0107V38.5107H3.65234ZM9.18457 42.1631H5.53223V40.3369H9.18457V42.1631ZM3.65234 45.8154V51.3477H11.0107V45.8154H3.65234ZM9.18457 49.5215H5.53223V47.6416H9.18457V49.5215Z" fill="white"/>
</svg>
