<svg width="49" height="56" viewBox="0 0 49 56" fill="none" xmlns="http://www.w3.org/2000/svg">
<path d="M48.7724 53.0488L46.3554 38.7617C46.2121 38.0098 45.8899 37.3473 45.3886 36.7744C44.8873 36.2015 44.2606 35.7897 43.5087 35.5391L36.9559 33.6055C36.8843 32.7819 36.6874 32.0031 36.3651 31.269C36.0429 30.535 35.6132 29.8636 35.0761 29.2549C34.6464 28.7894 34.154 28.3866 33.599 28.0464C33.044 27.7062 32.4621 27.4287 31.8534 27.2139C31.9608 27.1064 32.0683 26.999 32.1757 26.8916C32.2831 26.7842 32.3726 26.6589 32.4442 26.5156C33.232 25.5488 33.8407 24.5552 34.2704 23.5347C34.7001 22.5142 34.9686 21.6279 35.0761 20.876H35.5595C36.2398 20.876 36.8127 20.6432 37.2782 20.1777C37.7437 19.7122 37.9765 19.1572 37.9765 18.5127V17.2773C37.9765 16.8477 37.8601 16.4448 37.6273 16.0688C37.3946 15.6929 37.0992 15.3975 36.7411 15.1826V12.2285C36.7411 12.0137 36.6605 11.8257 36.4994 11.6646C36.3383 11.5034 36.1503 11.4229 35.9354 11.4229C35.6848 11.4229 35.4878 11.5034 35.3446 11.6646C35.2014 11.8257 35.1298 12.0137 35.1298 12.2285V15.5586C34.9507 15.5586 34.7717 15.5854 34.5927 15.6392C34.4136 15.6929 34.2346 15.7555 34.0556 15.8271C34.0197 15.863 33.9929 15.8809 33.975 15.8809C33.9571 15.8809 33.9481 15.8809 33.9481 15.8809C33.8765 15.9167 33.8228 15.9435 33.787 15.9614C33.7512 15.9793 33.7154 16.0062 33.6796 16.042V9.54297C33.6796 8.64779 33.3573 7.87793 32.7128 7.2334C32.0683 6.58887 31.2984 6.2666 30.4032 6.2666H28.2011C27.8072 6.2666 27.4312 6.33822 27.0731 6.48145C26.7151 6.62467 26.3928 6.80371 26.1063 7.01855L25.8915 7.2334C25.6766 7.37663 25.4439 7.493 25.1933 7.58252C24.9426 7.67204 24.6919 7.7168 24.4413 7.7168C24.1906 7.7168 23.94 7.67204 23.6893 7.58252C23.4387 7.493 23.2059 7.37663 22.9911 7.2334L22.7763 7.01855C22.4898 6.80371 22.1675 6.62467 21.8095 6.48145C21.4514 6.33822 21.0754 6.2666 20.6815 6.2666H18.4794C17.5842 6.2666 16.8143 6.58887 16.1698 7.2334C15.5253 7.87793 15.203 8.64779 15.203 9.54297V16.042C15.1672 16.0062 15.1314 15.9793 15.0956 15.9614C15.0598 15.9435 15.0061 15.9167 14.9345 15.8809C14.9345 15.8809 14.9255 15.8809 14.9076 15.8809C14.8897 15.8809 14.8628 15.863 14.827 15.8271C14.648 15.7555 14.469 15.6929 14.2899 15.6392C14.1109 15.5854 13.9319 15.5586 13.7528 15.5586V7.17969C13.7528 5.89062 14.2183 4.7806 15.1493 3.84961C16.0803 2.91862 17.1903 2.45312 18.4794 2.45312H30.4032C31.6923 2.45312 32.8023 2.91862 33.7333 3.84961C34.6643 4.7806 35.1298 5.89062 35.1298 7.17969V8.46875C35.1298 8.68359 35.2014 8.87158 35.3446 9.03271C35.4878 9.19385 35.6848 9.27441 35.9354 9.27441C36.1503 9.27441 36.3383 9.19385 36.4994 9.03271C36.6605 8.87158 36.7411 8.68359 36.7411 8.46875V7.17969C36.7411 5.42513 36.1145 3.93018 34.8612 2.69482C33.608 1.45947 32.122 0.841797 30.4032 0.841797H18.4794C16.7606 0.841797 15.2746 1.45947 14.0214 2.69482C12.7681 3.93018 12.1415 5.42513 12.1415 7.17969V15.1826C11.7834 15.3975 11.488 15.6929 11.2553 16.0688C11.0225 16.4448 10.9061 16.8477 10.9061 17.2773V18.5127C10.9061 19.1572 11.1389 19.7122 11.6044 20.1777C12.0699 20.6432 12.6428 20.876 13.3231 20.876H13.8065C13.914 21.6279 14.1825 22.5142 14.6122 23.5347C15.0419 24.5552 15.6506 25.5488 16.4384 26.5156C16.51 26.6589 16.5995 26.7842 16.7069 26.8916C16.8143 26.999 16.9039 27.1064 16.9755 27.2139C15.6148 27.6794 14.46 28.485 13.5111 29.6309C12.5622 30.7767 12.0341 32.1016 11.9266 33.6055L5.37391 35.5391C4.62196 35.7897 3.99533 36.2015 3.49403 36.7744C2.99273 37.3473 2.67046 38.0098 2.52724 38.7617L1.50673 44.5625C1.47092 44.7773 1.52463 44.9743 1.66786 45.1533C1.81109 45.3324 1.99013 45.4398 2.20497 45.4756C2.41981 45.5114 2.61675 45.4666 2.79579 45.3413C2.97483 45.216 3.08225 45.0459 3.11806 44.8311L4.08485 39.0303C4.19227 38.5648 4.39817 38.1619 4.70253 37.8218C5.00689 37.4816 5.37391 37.2399 5.8036 37.0967L11.8729 35.2705V36.8818C11.1926 36.9893 10.5749 37.2668 10.0199 37.7144C9.4649 38.1619 9.06207 38.7259 8.81141 39.4062C8.77561 39.5853 8.73085 39.7643 8.67714 39.9434C8.62343 40.1224 8.59657 40.3014 8.59657 40.4805L8.00575 48.0537C7.96994 48.3044 8.00575 48.5729 8.11317 48.8594C8.22059 49.1458 8.36382 49.3786 8.54286 49.5576C8.7219 49.7725 8.94569 49.9425 9.21425 50.0679C9.4828 50.1932 9.76031 50.2559 10.0468 50.2559H11.0673C11.2821 50.2559 11.4701 50.1753 11.6312 50.0142C11.7924 49.853 11.8729 49.665 11.8729 49.4502C11.8729 49.1995 11.7924 49.0026 11.6312 48.8594C11.4701 48.7161 11.2821 48.6445 11.0673 48.6445H10.0468C9.97515 48.6445 9.91249 48.6266 9.85878 48.5908C9.80507 48.555 9.76031 48.5192 9.7245 48.4834C9.68869 48.4476 9.66184 48.4028 9.64393 48.3491C9.62603 48.2954 9.61708 48.2327 9.61708 48.1611L10.2079 40.6416C10.2079 40.4984 10.2169 40.373 10.2348 40.2656C10.2527 40.1582 10.2974 40.0508 10.369 39.9434C10.5123 39.4779 10.7987 39.1108 11.2284 38.8423C11.6581 38.5737 12.1236 38.4215 12.6249 38.3857H12.7323C12.7681 38.3857 12.786 38.3857 12.786 38.3857C13.2873 38.3857 13.7349 38.52 14.1288 38.7886C14.5227 39.0571 14.827 39.4062 15.0419 39.8359C15.0777 39.9792 15.1135 40.1134 15.1493 40.2388C15.1851 40.3641 15.203 40.4984 15.203 40.6416L15.7938 48.1611C15.7938 48.2327 15.7849 48.2954 15.767 48.3491C15.7491 48.4028 15.7222 48.4476 15.6864 48.4834C15.6506 48.5192 15.6058 48.555 15.5521 48.5908C15.4984 48.6266 15.4358 48.6445 15.3641 48.6445H14.3436C14.1288 48.6445 13.9408 48.7161 13.7797 48.8594C13.6185 49.0026 13.538 49.1995 13.538 49.4502C13.538 49.665 13.6185 49.853 13.7797 50.0142C13.9408 50.1753 14.1288 50.2559 14.3436 50.2559H15.3641C15.6506 50.2559 15.9281 50.1932 16.1967 50.0679C16.4652 49.9425 16.689 49.7725 16.8681 49.5576C17.0471 49.3786 17.1903 49.1458 17.2977 48.8594C17.4052 48.5729 17.441 48.3044 17.4052 48.0537L16.8143 40.4805C16.8143 40.2656 16.7875 40.0508 16.7338 39.8359C16.6801 39.6211 16.5995 39.4242 16.4921 39.2451C16.2414 38.6006 15.8475 38.0724 15.3104 37.6606C14.7733 37.2489 14.1646 36.9893 13.4843 36.8818V34.7871L16.2772 33.9277C16.3847 34.2142 16.5816 34.6707 16.8681 35.2974C17.1545 35.924 17.5305 36.8639 17.996 38.1172C18.4973 39.3704 19.0523 40.758 19.661 42.2798C20.2697 43.8016 20.8606 45.3503 21.4335 46.9258C21.4335 46.9258 21.4335 46.9347 21.4335 46.9526C21.4335 46.9705 21.4514 46.9795 21.4872 46.9795C21.8811 48.0179 22.266 49.0384 22.642 50.041C23.018 51.0436 23.3671 51.9746 23.6893 52.834C23.761 52.9772 23.8594 53.1025 23.9848 53.21C24.1101 53.3174 24.2623 53.3711 24.4413 53.3711C24.6203 53.3711 24.7725 53.3174 24.8978 53.21C25.0232 53.1025 25.1216 52.9772 25.1933 52.834C25.5155 51.9746 25.8646 51.0436 26.2406 50.041C26.6166 49.0384 27.0015 48.0179 27.3954 46.9795C27.4312 46.9795 27.4491 46.9705 27.4491 46.9526C27.4491 46.9347 27.4491 46.9258 27.4491 46.9258C28.022 45.3503 28.6128 43.8016 29.2216 42.2798C29.8303 40.758 30.3853 39.3704 30.8866 38.1172C31.3521 36.8639 31.7281 35.924 32.0145 35.2974C32.301 34.6707 32.4979 34.2142 32.6054 33.9277L35.3983 34.7871V39.5674C34.4315 39.7464 33.6259 40.2119 32.9813 40.9639C32.3368 41.7158 32.0145 42.611 32.0145 43.6494C32.0145 44.7952 32.4174 45.771 33.223 46.5767C34.0287 47.3823 35.0045 47.7852 36.1503 47.7852C37.2961 47.7852 38.2808 47.3823 39.1044 46.5767C39.928 45.771 40.3397 44.7952 40.3397 43.6494C40.3397 42.6468 40.0175 41.7606 39.3729 40.9907C38.7284 40.2209 37.9406 39.7464 37.0097 39.5674V35.2705L43.079 37.0967C43.5087 37.2399 43.8757 37.4816 44.1801 37.8218C44.4844 38.1619 44.6903 38.5648 44.7977 39.0303L47.2147 53.3174C47.2147 53.4248 47.2058 53.5322 47.1879 53.6396C47.17 53.7471 47.1252 53.8545 47.0536 53.9619C46.9462 54.0335 46.8477 54.0962 46.7582 54.1499C46.6687 54.2036 46.5523 54.2305 46.4091 54.2305H2.47352C2.3303 54.2305 2.21392 54.2036 2.1244 54.1499C2.03489 54.0962 1.93641 54.0335 1.82899 53.9619C1.75738 53.8545 1.71262 53.7471 1.69472 53.6396C1.67681 53.5322 1.66786 53.4248 1.66786 53.3174L2.47352 48.5908C2.50933 48.376 2.46457 48.179 2.33925 48C2.21392 47.821 2.04384 47.7135 1.82899 47.6777C1.61415 47.6419 1.41721 47.6867 1.23817 47.812C1.05914 47.9373 0.933811 48.1074 0.862196 48.3223L0.110243 53.0488C0.0386285 53.3711 0.0475803 53.7023 0.137099 54.0425C0.226617 54.3826 0.378798 54.696 0.593642 54.9824C0.844293 55.2689 1.13075 55.4837 1.45302 55.627C1.77528 55.7702 2.11545 55.8418 2.47352 55.8418H46.4091C46.7671 55.8418 47.1073 55.7702 47.4296 55.627C47.7518 55.4837 48.0383 55.2689 48.289 54.9824C48.5038 54.696 48.656 54.3826 48.7455 54.0425C48.835 53.7023 48.844 53.3711 48.7724 53.0488ZM35.1298 17.1699C35.3446 17.1341 35.5237 17.1073 35.6669 17.0894C35.8101 17.0715 35.8817 17.0625 35.8817 17.0625C35.9533 17.0625 36.025 17.0535 36.0966 17.0356C36.1682 17.0177 36.2398 16.9909 36.3114 16.9551C36.3114 17.0267 36.3204 17.0804 36.3383 17.1162C36.3562 17.152 36.3651 17.2057 36.3651 17.2773V18.5127C36.3651 18.7275 36.2846 18.9066 36.1234 19.0498C35.9623 19.193 35.7743 19.2646 35.5595 19.2646H35.1298V17.1699ZM13.7528 19.2646H13.3231C13.1083 19.2646 12.9203 19.193 12.7592 19.0498C12.598 18.9066 12.5175 18.7275 12.5175 18.5127V17.2773C12.5175 17.2057 12.5264 17.152 12.5443 17.1162C12.5622 17.0804 12.5712 17.0267 12.5712 16.9551C12.6428 16.9909 12.7144 17.0177 12.786 17.0356C12.8576 17.0535 12.9293 17.0625 13.0009 17.0625C13.0009 17.0625 13.0725 17.0715 13.2157 17.0894C13.3589 17.1073 13.538 17.1341 13.7528 17.1699V19.2646ZM15.3641 20.1777V18.0293C15.5074 18.0651 15.6417 18.083 15.767 18.083C15.8923 18.083 16.0087 18.0651 16.1161 18.0293C16.3309 17.9219 16.501 17.7786 16.6264 17.5996C16.7517 17.4206 16.8143 17.2057 16.8143 16.9551V9.54297C16.8143 9.07747 16.9755 8.68359 17.2977 8.36133C17.62 8.03906 18.0139 7.87793 18.4794 7.87793H20.6815C20.8964 7.87793 21.0933 7.91374 21.2724 7.98535C21.4514 8.05697 21.6125 8.16439 21.7558 8.30762L22.0243 8.46875C22.3466 8.75521 22.7225 8.97005 23.1522 9.11328C23.5819 9.25651 24.0116 9.32812 24.4413 9.32812C24.871 9.32812 25.3007 9.25651 25.7304 9.11328C26.16 8.97005 26.536 8.75521 26.8583 8.46875L27.1268 8.30762C27.2701 8.16439 27.4312 8.05697 27.6102 7.98535C27.7893 7.91374 27.9862 7.87793 28.2011 7.87793H30.4032C30.8687 7.87793 31.2626 8.03906 31.5849 8.36133C31.9071 8.68359 32.0683 9.07747 32.0683 9.54297V16.9551C32.0683 17.2057 32.1309 17.4206 32.2562 17.5996C32.3816 17.7786 32.5517 17.9219 32.7665 18.0293C32.8381 18.0651 32.9097 18.083 32.9813 18.083C33.053 18.083 33.1246 18.083 33.1962 18.083C33.232 18.083 33.2767 18.083 33.3305 18.083C33.3842 18.083 33.4468 18.0651 33.5184 18.0293V20.1777C33.5184 20.7507 33.3215 21.5474 32.9276 22.5679C32.5337 23.5884 31.9608 24.582 31.2089 25.5488C30.9582 25.8711 30.6718 26.1934 30.3495 26.5156C30.0272 26.8379 29.6692 27.1602 29.2753 27.4824C29.2395 27.4824 29.2216 27.4824 29.2216 27.4824C29.2216 27.4824 29.2037 27.5003 29.1679 27.5361C28.5591 27.9658 27.8609 28.3328 27.0731 28.6372C26.2854 28.9416 25.4081 29.0938 24.4413 29.0938C23.4745 29.0938 22.5972 28.9416 21.8095 28.6372C21.0217 28.3328 20.3235 27.9658 19.7147 27.5361C19.6789 27.5003 19.661 27.4824 19.661 27.4824C19.661 27.4824 19.6431 27.4824 19.6073 27.4824C19.2134 27.1602 18.8554 26.8379 18.5331 26.5156C18.2108 26.1934 17.9244 25.8711 17.6737 25.5488C16.9218 24.582 16.3488 23.5884 15.955 22.5679C15.5611 21.5474 15.3641 20.7507 15.3641 20.1777ZM29.705 33.1758L24.4413 37.1504L19.1776 33.1758C19.4283 32.8535 19.6252 32.4865 19.7684 32.0747C19.9117 31.6629 19.9833 31.278 19.9833 30.9199V29.6309C20.592 29.9531 21.2724 30.2127 22.0243 30.4097C22.7763 30.6066 23.5819 30.7051 24.4413 30.7051C25.3007 30.7051 26.1063 30.6066 26.8583 30.4097C27.6102 30.2127 28.2906 29.9531 28.8993 29.6309V30.9199C28.8993 31.278 28.9709 31.6629 29.1142 32.0747C29.2574 32.4865 29.4543 32.8535 29.705 33.1758ZM17.8349 32.2627C17.62 32.1911 17.3962 32.1463 17.1635 32.1284C16.9307 32.1105 16.689 32.1374 16.4384 32.209C16.4384 32.209 16.4205 32.209 16.3847 32.209L13.6454 33.0684C13.8602 31.9225 14.3974 30.9289 15.2567 30.0874C16.1161 29.2459 17.1545 28.7357 18.372 28.5566V30.9199C18.372 31.1706 18.3183 31.4123 18.2108 31.645C18.1034 31.8778 17.9781 32.0837 17.8349 32.2627ZM19.9833 38.7617C19.9833 38.6901 19.9743 38.6274 19.9564 38.5737C19.9385 38.52 19.9117 38.4753 19.8759 38.4395C19.8759 38.4395 19.8759 38.4305 19.8759 38.4126C19.8759 38.3947 19.8759 38.3857 19.8759 38.3857C19.8401 38.3141 19.8132 38.2604 19.7953 38.2246C19.7774 38.1888 19.7684 38.1351 19.7684 38.0635C19.7326 38.0635 19.7147 38.0635 19.7147 38.0635C19.6789 37.9202 19.6342 37.777 19.5805 37.6338C19.5267 37.4906 19.4641 37.3473 19.3925 37.2041C19.3925 37.2041 19.3925 37.1951 19.3925 37.1772C19.3925 37.1593 19.3925 37.1504 19.3925 37.1504C19.3567 37.1146 19.3298 37.0788 19.3119 37.043C19.294 37.0072 19.285 36.9535 19.285 36.8818C19.285 36.8818 19.2761 36.8729 19.2582 36.855C19.2403 36.8371 19.2313 36.8281 19.2313 36.8281C19.2313 36.7923 19.2224 36.7565 19.2045 36.7207C19.1866 36.6849 19.1597 36.6491 19.1239 36.6133C19.1239 36.6133 19.1239 36.6043 19.1239 36.5864C19.1239 36.5685 19.1239 36.5596 19.1239 36.5596C19.0881 36.488 19.0613 36.4163 19.0433 36.3447C19.0254 36.2731 18.9986 36.2015 18.9628 36.1299C18.9628 36.1299 18.9538 36.1209 18.9359 36.103C18.918 36.0851 18.9091 36.0762 18.9091 36.0762C18.9091 36.0404 18.9001 36.0135 18.8822 35.9956C18.8643 35.9777 18.8554 35.9508 18.8554 35.915C18.8554 35.8792 18.8464 35.8524 18.8285 35.8345C18.8106 35.8166 18.8016 35.7897 18.8016 35.7539C18.8016 35.7539 18.8016 35.745 18.8016 35.7271C18.8016 35.7091 18.8016 35.7002 18.8016 35.7002C18.7658 35.7002 18.7479 35.6912 18.7479 35.6733C18.7479 35.6554 18.7479 35.6465 18.7479 35.6465C18.7121 35.5391 18.6674 35.4316 18.6137 35.3242C18.5599 35.2168 18.5152 35.1094 18.4794 35.002C18.4794 34.9661 18.4615 34.9214 18.4257 34.8677C18.3899 34.814 18.372 34.7513 18.372 34.6797C18.372 34.6797 18.363 34.6618 18.3451 34.626C18.3272 34.5902 18.3183 34.5723 18.3183 34.5723L22.83 37.9561L20.9501 38.7617L20.1444 39.084C20.1086 39.0124 20.0818 38.9497 20.0639 38.896C20.046 38.8423 20.0191 38.7975 19.9833 38.7617ZM21.9169 43.7031C21.8453 43.4883 21.7737 43.2734 21.702 43.0586C21.6304 42.8438 21.5409 42.6289 21.4335 42.4141C21.3261 42.0918 21.2097 41.7785 21.0844 41.4741C20.959 41.1698 20.8427 40.8743 20.7352 40.5879L21.0038 40.4805L22.2391 41.877L21.9169 43.7031ZM24.4413 50.2021C24.4413 50.2021 24.4323 50.1932 24.4144 50.1753C24.3965 50.1574 24.3876 50.1305 24.3876 50.0947C24.2086 49.6292 24.0027 49.0921 23.7699 48.4834C23.5372 47.8747 23.2955 47.2301 23.0448 46.5498L23.7968 42.4678H25.0858L25.8378 46.5498C25.5871 47.266 25.3365 47.9373 25.0858 48.564C24.8352 49.1906 24.6203 49.7367 24.4413 50.2021ZM25.4081 40.8564H23.4745L22.5614 39.7822L24.4413 39.0303L26.3212 39.7822L25.4081 40.8564ZM27.4491 42.4141C27.3417 42.6289 27.2522 42.8438 27.1806 43.0586C27.1089 43.2734 27.0373 43.4883 26.9657 43.7031L26.6434 41.877L27.8788 40.4805L28.1474 40.5879C28.0399 40.8743 27.9236 41.1698 27.7982 41.4741C27.6729 41.7785 27.5565 42.0918 27.4491 42.4141ZM30.5106 34.6797C30.5106 34.7513 30.4927 34.805 30.4569 34.8408C30.4211 34.8766 30.4032 34.9303 30.4032 35.002C30.4032 35.002 30.4032 35.0199 30.4032 35.0557C30.3674 35.0915 30.3406 35.1362 30.3226 35.1899C30.3047 35.2437 30.2779 35.2884 30.2421 35.3242C30.2421 35.3242 30.2421 35.3332 30.2421 35.3511C30.2421 35.369 30.2421 35.3779 30.2421 35.3779C30.2063 35.4137 30.1794 35.4585 30.1615 35.5122C30.1436 35.5659 30.1347 35.6107 30.1347 35.6465C30.1347 35.6465 30.1347 35.6554 30.1347 35.6733C30.1347 35.6912 30.1168 35.7002 30.0809 35.7002C30.0809 35.7002 30.0809 35.7091 30.0809 35.7271C30.0809 35.745 30.0809 35.7539 30.0809 35.7539C30.0809 35.7897 30.072 35.8166 30.0541 35.8345C30.0362 35.8524 30.0272 35.8792 30.0272 35.915C30.0272 35.915 30.0183 35.9329 30.0004 35.9688C29.9825 36.0046 29.9735 36.0404 29.9735 36.0762C29.9735 36.0762 29.9646 36.0762 29.9467 36.0762C29.9288 36.0762 29.9198 36.0941 29.9198 36.1299C29.884 36.2015 29.8572 36.2731 29.8392 36.3447C29.8213 36.4163 29.7945 36.488 29.7587 36.5596C29.7587 36.5596 29.7587 36.5775 29.7587 36.6133C29.7229 36.6491 29.696 36.6849 29.6781 36.7207C29.6602 36.7565 29.6513 36.7923 29.6513 36.8281C29.6513 36.8281 29.6423 36.8371 29.6244 36.855C29.6065 36.8729 29.5975 36.8997 29.5975 36.9355C29.5975 36.9714 29.5886 37.0072 29.5707 37.043C29.5528 37.0788 29.5438 37.1146 29.5438 37.1504C29.508 37.1504 29.4901 37.1593 29.4901 37.1772C29.4901 37.1951 29.4901 37.2041 29.4901 37.2041C29.4185 37.3473 29.3558 37.4906 29.3021 37.6338C29.2484 37.777 29.2037 37.9202 29.1679 38.0635C29.1679 38.0635 29.15 38.0635 29.1142 38.0635C29.1142 38.1351 29.1052 38.1888 29.0873 38.2246C29.0694 38.2604 29.0425 38.3141 29.0067 38.3857C29.0067 38.3857 29.0067 38.3947 29.0067 38.4126C29.0067 38.4305 29.0067 38.4395 29.0067 38.4395C28.9709 38.4753 28.9441 38.52 28.9262 38.5737C28.9083 38.6274 28.8993 38.6901 28.8993 38.7617C28.8635 38.7975 28.8366 38.8423 28.8187 38.896C28.8008 38.9497 28.774 39.0124 28.7382 39.084L27.9325 38.7617L26.0526 37.9561L30.5643 34.5723C30.5643 34.5723 30.5554 34.5902 30.5375 34.626C30.5196 34.6618 30.5106 34.6797 30.5106 34.6797ZM32.4979 32.209C32.2473 32.1374 32.0056 32.1105 31.7728 32.1284C31.5401 32.1463 31.2984 32.1911 31.0477 32.2627C30.9045 32.0837 30.7792 31.8778 30.6718 31.645C30.5643 31.4123 30.5106 31.1706 30.5106 30.9199V28.5566C31.7281 28.7357 32.7665 29.237 33.6259 30.0605C34.4852 30.8841 35.0224 31.8867 35.2372 33.0684L32.4979 32.209ZM38.7284 43.6494C38.7284 44.3298 38.4778 44.9206 37.9765 45.4219C37.4752 45.9232 36.8664 46.1738 36.1503 46.1738C35.4699 46.1738 34.8791 45.9232 34.3778 45.4219C33.8765 44.9206 33.6259 44.3298 33.6259 43.6494C33.6259 42.9333 33.8765 42.3245 34.3778 41.8232C34.8791 41.3219 35.4699 41.0713 36.1503 41.0713C36.8664 41.0713 37.4752 41.3219 37.9765 41.8232C38.4778 42.3245 38.7284 42.9333 38.7284 43.6494Z" fill="white"/>
</svg>
