<svg width="42" height="42" viewBox="0 0 42 42" fill="none" xmlns="http://www.w3.org/2000/svg">
<g id="Item" clip-path="url(#clip0_151_362)">
<path id="Vector" d="M39.167 8.48828H3.37207C2.65137 8.48828 2.03743 8.74186 1.53027 9.24902C1.02311 9.75619 0.769531 10.3701 0.769531 11.0908V32.5918C0.769531 33.3125 1.02311 33.9331 1.53027 34.4536C2.03743 34.9741 2.65137 35.2344 3.37207 35.2344H39.167C39.8877 35.2344 40.5016 34.9741 41.0088 34.4536C41.5159 33.9331 41.7695 33.3125 41.7695 32.5918V11.0908C41.7695 10.3701 41.5159 9.75619 41.0088 9.24902C40.5016 8.74186 39.8877 8.48828 39.167 8.48828ZM40.0479 32.5918C40.0479 32.832 39.9611 33.0389 39.7876 33.2124C39.6141 33.3859 39.4072 33.4727 39.167 33.4727H3.37207C3.13184 33.4727 2.92497 33.3859 2.75146 33.2124C2.57796 33.0389 2.49121 32.832 2.49121 32.5918V11.0908C2.49121 10.8506 2.57796 10.6504 2.75146 10.4902C2.92497 10.3301 3.13184 10.25 3.37207 10.25H39.167C39.4072 10.25 39.6141 10.3301 39.7876 10.4902C39.9611 10.6504 40.0479 10.8506 40.0479 11.0908V32.5918ZM34.5625 16.1357H25.2334C24.9932 16.1357 24.7863 16.2225 24.6128 16.396C24.4393 16.5695 24.3525 16.7764 24.3525 17.0166C24.3525 17.2568 24.4393 17.457 24.6128 17.6172C24.7863 17.7773 24.9932 17.8574 25.2334 17.8574H34.5625C34.8027 17.8574 35.0096 17.7773 35.1831 17.6172C35.3566 17.457 35.4434 17.2568 35.4434 17.0166C35.4434 16.7764 35.3566 16.5695 35.1831 16.396C35.0096 16.2225 34.8027 16.1357 34.5625 16.1357ZM34.5625 20.9805H25.2334C24.9932 20.9805 24.7863 21.0672 24.6128 21.2407C24.4393 21.4142 24.3525 21.6211 24.3525 21.8613C24.3525 22.1016 24.4393 22.3084 24.6128 22.4819C24.7863 22.6554 24.9932 22.7422 25.2334 22.7422H34.5625C34.8027 22.7422 35.0096 22.6554 35.1831 22.4819C35.3566 22.3084 35.4434 22.1016 35.4434 21.8613C35.4434 21.6211 35.3566 21.4142 35.1831 21.2407C35.0096 21.0672 34.8027 20.9805 34.5625 20.9805ZM34.5625 25.8252H25.2334C24.9932 25.8252 24.7863 25.9119 24.6128 26.0854C24.4393 26.259 24.3525 26.4658 24.3525 26.7061C24.3525 26.9463 24.4393 27.1532 24.6128 27.3267C24.7863 27.5002 24.9932 27.5869 25.2334 27.5869H34.5625C34.8027 27.5869 35.0096 27.5002 35.1831 27.3267C35.3566 27.1532 35.4434 26.9463 35.4434 26.7061C35.4434 26.4658 35.3566 26.259 35.1831 26.0854C35.0096 25.9119 34.8027 25.8252 34.5625 25.8252ZM16.8252 24.584C16.8252 24.584 16.5449 24.5239 15.9844 24.4038C15.4238 24.2837 15.0368 23.7965 14.8232 22.9424C15.0902 22.7021 15.3438 22.4285 15.584 22.1216C15.8242 21.8146 16.0378 21.4743 16.2246 21.1006C16.2246 21.1006 16.2313 21.1006 16.2446 21.1006C16.258 21.1006 16.278 21.1006 16.3047 21.1006C16.4115 21.1006 16.5182 21.0739 16.625 21.0205C16.7318 20.9671 16.8252 20.887 16.9053 20.7803C17.279 20.3265 17.5592 19.7993 17.7461 19.1987C17.9329 18.5981 18.013 17.9775 17.9863 17.3369C17.9329 16.029 17.5059 14.9146 16.7051 13.9937C15.9043 13.0728 14.93 12.6123 13.7822 12.6123C13.7555 12.6123 13.7288 12.6123 13.7021 12.6123C13.6755 12.6123 13.6488 12.6123 13.6221 12.6123C13.3551 12.4788 13.0749 12.3854 12.7812 12.332C12.4876 12.2786 12.194 12.2653 11.9004 12.292C11.2598 12.292 10.6592 12.4455 10.0986 12.7524C9.53809 13.0594 9.04427 13.4932 8.61719 14.0537C8.2168 14.5876 7.90983 15.1882 7.69629 15.8555C7.48275 16.5228 7.38932 17.2168 7.41602 17.9375C7.41602 18.071 7.42269 18.1911 7.43604 18.2979C7.44938 18.4046 7.4694 18.5114 7.49609 18.6182C7.52279 18.9385 7.58285 19.2454 7.67627 19.5391C7.76969 19.8327 7.86979 20.113 7.97656 20.3799C8.02995 20.5133 8.1167 20.6201 8.23682 20.7002C8.35693 20.7803 8.49707 20.8203 8.65723 20.8203C8.68392 20.8203 8.71729 20.8203 8.75732 20.8203C8.79736 20.8203 8.84408 20.8203 8.89746 20.8203C9.05762 21.2474 9.27116 21.6411 9.53809 22.0015C9.80501 22.3618 10.0986 22.6755 10.4189 22.9424C10.2054 23.7965 9.81169 24.2837 9.23779 24.4038C8.6639 24.5239 8.37695 24.584 8.37695 24.584C7.52279 24.6107 6.79541 24.9377 6.19482 25.5649C5.59424 26.1922 5.29395 26.9329 5.29395 27.7871V30.9502C5.29395 31.1637 5.36735 31.3506 5.51416 31.5107C5.66097 31.6709 5.84115 31.751 6.05469 31.751H19.1475C19.361 31.751 19.5479 31.6709 19.708 31.5107C19.8682 31.3506 19.9482 31.1637 19.9482 30.9502V27.7871C19.9482 26.9329 19.6479 26.1922 19.0474 25.5649C18.4468 24.9377 17.7061 24.6107 16.8252 24.584ZM9.05762 18.458C9.05762 18.458 9.05094 18.4513 9.0376 18.438C9.02425 18.4246 9.01758 18.418 9.01758 18.418C9.01758 18.3379 9.01091 18.2511 8.99756 18.1577C8.98421 18.0643 8.97754 17.9775 8.97754 17.8975C8.97754 17.3369 9.05094 16.8097 9.19775 16.3159C9.34456 15.8221 9.56478 15.3883 9.8584 15.0146C10.1253 14.641 10.4456 14.354 10.8193 14.1538C11.193 13.9536 11.5667 13.8535 11.9404 13.8535C11.9671 13.8535 12.1073 13.8535 12.3608 13.8535C12.6144 13.8535 12.8747 13.9336 13.1416 14.0938C13.195 14.1204 13.255 14.1405 13.3218 14.1538C13.3885 14.1672 13.4486 14.1738 13.502 14.1738C13.5286 14.1738 13.582 14.1738 13.6621 14.1738C13.7422 14.1738 13.7822 14.1738 13.7822 14.1738C14.4762 14.1738 15.0835 14.4875 15.604 15.1147C16.1245 15.742 16.3981 16.5094 16.4248 17.417C16.4248 17.4971 16.4248 17.5905 16.4248 17.6973C16.4248 17.804 16.4115 17.9108 16.3848 18.0176C16.1445 17.5638 15.8309 17.1701 15.4438 16.8364C15.0568 16.5028 14.6364 16.2425 14.1826 16.0557C14.1025 16.0023 14.0091 15.9756 13.9023 15.9756C13.7956 15.9756 13.6888 16.0023 13.582 16.0557C13.4753 16.0824 13.3885 16.1357 13.3218 16.2158C13.255 16.2959 13.195 16.3893 13.1416 16.4961C13.1149 16.5762 13.0815 16.6562 13.0415 16.7363C13.0015 16.8164 12.9681 16.8965 12.9414 16.9766C12.8346 17.1634 12.6812 17.3035 12.481 17.397C12.2808 17.4904 12.0605 17.5371 11.8203 17.5371C11.7936 17.5371 11.7536 17.5371 11.7002 17.5371C11.6468 17.5371 11.5934 17.5371 11.54 17.5371C11.3265 17.5371 11.1063 17.5571 10.8794 17.5972C10.6525 17.6372 10.4323 17.6973 10.2188 17.7773C10.0052 17.8574 9.79834 17.9575 9.59814 18.0776C9.39795 18.1978 9.21777 18.3245 9.05762 18.458ZM10.1387 19.6191C10.2454 19.5391 10.3522 19.4723 10.459 19.4189C10.5658 19.3656 10.6725 19.3122 10.7793 19.2588C10.9661 19.1787 11.173 19.132 11.3999 19.1187C11.6268 19.1053 11.7536 19.0986 11.7803 19.0986C12.2874 19.1253 12.7546 19.0252 13.1816 18.7983C13.6087 18.5715 13.9557 18.2578 14.2227 17.8574C14.4362 18.0176 14.623 18.1978 14.7832 18.3979C14.9434 18.5981 15.0768 18.8184 15.1836 19.0586C15.0768 19.9395 14.7765 20.6802 14.2827 21.2808C13.7889 21.8813 13.235 22.1816 12.6211 22.1816C12.0605 22.1816 11.5534 21.9414 11.0996 21.4609C10.6458 20.9805 10.3255 20.3665 10.1387 19.6191ZM11.8604 23.623C11.9671 23.6764 12.0872 23.7098 12.2207 23.7231C12.3542 23.7365 12.4876 23.7432 12.6211 23.7432C12.7546 23.7432 12.8813 23.7365 13.0015 23.7231C13.1216 23.7098 13.2484 23.6764 13.3818 23.623C13.4886 24.0501 13.6688 24.4238 13.9224 24.7441C14.1759 25.0645 14.4896 25.3447 14.8633 25.585C14.6764 26.0387 14.3828 26.4124 13.9824 26.7061C13.582 26.9997 13.1283 27.1465 12.6211 27.1465C12.1139 27.1465 11.6535 26.9997 11.2397 26.7061C10.826 26.4124 10.5391 26.0387 10.3789 25.585C10.7259 25.3447 11.0262 25.0645 11.2798 24.7441C11.5334 24.4238 11.7269 24.0501 11.8604 23.623ZM6.85547 30.1895V27.7871C6.85547 27.3333 7.01562 26.9463 7.33594 26.626C7.65625 26.3057 8.04329 26.1455 8.49707 26.1455C8.49707 26.1455 8.55046 26.1455 8.65723 26.1455C8.764 26.1455 8.84408 26.1455 8.89746 26.1455C9.19108 26.8929 9.67155 27.5068 10.3389 27.9873C11.0062 28.4678 11.7669 28.708 12.6211 28.708C13.4486 28.708 14.2026 28.4678 14.8833 27.9873C15.564 27.5068 16.0378 26.8929 16.3047 26.1455C16.3848 26.1455 16.4782 26.1455 16.585 26.1455C16.6917 26.1455 16.7451 26.1455 16.7451 26.1455C17.1989 26.1455 17.5859 26.3057 17.9062 26.626C18.2266 26.9463 18.3867 27.3333 18.3867 27.7871V30.1895H6.85547Z" fill="#F50C18"/>
</g>
<defs>
<clipPath id="clip0_151_362">
<rect width="41" height="41" fill="white" transform="matrix(1 0 0 -1 0.769531 41.8418)"/>
</clipPath>
</defs>
</svg>
