<svg width="42" height="42" viewBox="0 0 42 42" fill="none" xmlns="http://www.w3.org/2000/svg">
<g id="Item" clip-path="url(#clip0_151_353)">
<path id="Vector" d="M23.1914 6.98828C22.9779 6.98828 22.791 7.06836 22.6309 7.22852C22.4707 7.38867 22.3906 7.57552 22.3906 7.78906C22.3906 8.00261 22.4707 8.18945 22.6309 8.34961C22.791 8.50977 22.9779 8.58984 23.1914 8.58984C23.4049 8.58984 23.5918 8.50977 23.752 8.34961C23.9121 8.18945 23.9922 8.00261 23.9922 7.78906C23.9922 7.57552 23.9121 7.38867 23.752 7.22852C23.5918 7.06836 23.4049 6.98828 23.1914 6.98828ZM15.1836 6.98828C14.9701 6.98828 14.7832 7.06836 14.623 7.22852C14.4629 7.38867 14.3828 7.57552 14.3828 7.78906C14.3828 8.00261 14.4629 8.18945 14.623 8.34961C14.7832 8.50977 14.9701 8.58984 15.1836 8.58984C15.3971 8.58984 15.584 8.50977 15.7441 8.34961C15.9043 8.18945 15.9844 8.00261 15.9844 7.78906C15.9844 7.57552 15.9043 7.38867 15.7441 7.22852C15.584 7.06836 15.3971 6.98828 15.1836 6.98828ZM36.5645 24.2852C36.9115 23.7513 37.1717 23.1841 37.3452 22.5835C37.5187 21.9829 37.6055 21.4023 37.6055 20.8418C37.6055 20.0143 37.4253 19.2202 37.0649 18.4595C36.7046 17.6987 36.2041 17.0648 35.5635 16.5576C35.7236 16.2106 35.8371 15.8636 35.9038 15.5166C35.9705 15.1696 36.0039 14.8092 36.0039 14.4355C36.0039 13.3145 35.7036 12.2734 35.103 11.3125C34.5024 10.3516 33.7217 9.63086 32.7607 9.15039C32.9209 7.94922 32.6473 6.84814 31.9399 5.84717C31.2326 4.84619 30.2917 4.19889 29.1172 3.90527C28.6634 2.83757 27.9627 1.97673 27.0151 1.32275C26.0675 0.668781 25.0599 0.341797 23.9922 0.341797C22.9779 0.341797 22.0503 0.608723 21.2095 1.14258C20.3687 1.67643 19.6947 2.37044 19.1875 3.22461C18.6803 2.37044 18.0063 1.67643 17.1655 1.14258C16.3247 0.608723 15.3971 0.341797 14.3828 0.341797C13.3151 0.341797 12.3075 0.668781 11.3599 1.32275C10.4123 1.97673 9.71159 2.83757 9.25781 3.90527C8.08333 4.19889 7.14242 4.84619 6.43506 5.84717C5.7277 6.84814 5.4541 7.94922 5.61426 9.15039C4.65332 9.63086 3.87256 10.3516 3.27197 11.3125C2.67139 12.2734 2.37109 13.3145 2.37109 14.4355C2.37109 14.8092 2.40446 15.1696 2.47119 15.5166C2.53792 15.8636 2.65137 16.2106 2.81152 16.5576C2.1709 17.0648 1.67041 17.6987 1.31006 18.4595C0.949707 19.2202 0.769531 20.0143 0.769531 20.8418C0.769531 21.4023 0.856283 21.9896 1.02979 22.6035C1.20329 23.2174 1.46354 23.778 1.81055 24.2852C1.46354 24.7389 1.20329 25.2394 1.02979 25.7866C0.856283 26.3338 0.769531 26.901 0.769531 27.4883C0.769531 28.2357 0.916341 28.9497 1.20996 29.6304C1.50358 30.311 1.91732 30.9183 2.45117 31.4521C2.18424 33.1071 2.61133 34.6353 3.73242 36.0366C4.85352 37.438 6.26823 38.1387 7.97656 38.1387C7.97656 38.1387 7.98324 38.1387 7.99658 38.1387C8.00993 38.1387 8.02995 38.1387 8.05664 38.1387C8.61719 39.1263 9.39128 39.9071 10.3789 40.481C11.3665 41.0549 12.4342 41.3418 13.582 41.3418C14.7832 41.3418 15.8776 41.0215 16.8652 40.3809C17.8529 39.7402 18.627 38.8994 19.1875 37.8584C19.748 38.8994 20.5221 39.7402 21.5098 40.3809C22.4974 41.0215 23.5918 41.3418 24.793 41.3418C25.9408 41.3418 27.0085 41.0549 27.9961 40.481C28.9837 39.9071 29.7578 39.1263 30.3184 38.1387C30.3451 38.1387 30.3651 38.1387 30.3784 38.1387C30.3918 38.1387 30.3984 38.1387 30.3984 38.1387C31.9199 38.1387 33.2345 37.5581 34.3423 36.397C35.45 35.2358 36.0039 33.8678 36.0039 32.293C36.0039 32.1595 35.9972 32.026 35.9839 31.8926C35.9705 31.7591 35.9505 31.6123 35.9238 31.4521C36.4577 30.9183 36.8714 30.311 37.165 29.6304C37.4587 28.9497 37.6055 28.2357 37.6055 27.4883C37.6055 26.901 37.5187 26.3338 37.3452 25.7866C37.1717 25.2394 36.9115 24.7389 36.5645 24.2852ZM18.3867 12.4736C18.1465 12.3402 17.8929 12.2334 17.626 12.1533C17.359 12.0732 17.0788 12.0332 16.7852 12.0332C16.5716 12.0332 16.3848 12.1133 16.2246 12.2734C16.0645 12.4336 15.9844 12.6204 15.9844 12.834C15.9844 13.0475 16.0645 13.2344 16.2246 13.3945C16.3848 13.5547 16.5716 13.6348 16.7852 13.6348C17.2389 13.6348 17.6193 13.7882 17.9263 14.0952C18.2332 14.4022 18.3867 14.7826 18.3867 15.2363V30.4512C17.7995 29.7839 17.0921 29.2567 16.2646 28.8696C15.4372 28.4826 14.543 28.2891 13.582 28.2891C13.3685 28.2891 13.1816 28.3691 13.0215 28.5293C12.8613 28.6895 12.7812 28.8763 12.7812 29.0898C12.7812 29.3034 12.8613 29.4902 13.0215 29.6504C13.1816 29.8105 13.3685 29.8906 13.582 29.8906C14.9167 29.8906 16.0511 30.3577 16.9854 31.292C17.9196 32.2262 18.3867 33.3607 18.3867 34.6953C18.3867 36.0566 17.9129 37.2378 16.9653 38.2388C16.0177 39.2397 14.89 39.7402 13.582 39.7402C12.6478 39.7402 11.7869 39.4867 10.9995 38.9795C10.2121 38.4723 9.61816 37.7917 9.21777 36.9375C9.16439 36.7773 9.05762 36.6572 8.89746 36.5771C8.7373 36.4971 8.57715 36.4704 8.41699 36.4971C8.3903 36.4971 8.36361 36.4971 8.33691 36.4971C8.31022 36.4971 8.28353 36.4971 8.25684 36.4971C7.10905 36.6572 6.04134 36.2035 5.05371 35.1357C4.06608 34.068 3.74577 32.8135 4.09277 31.3721C4.11947 31.2119 4.11279 31.0584 4.07275 30.9116C4.03271 30.7648 3.94596 30.6514 3.8125 30.5713C3.35872 30.1709 3.00505 29.7038 2.75146 29.1699C2.49788 28.6361 2.37109 28.0755 2.37109 27.4883C2.37109 27.1146 2.42448 26.7542 2.53125 26.4072C2.63802 26.0602 2.78483 25.7399 2.97168 25.4463C3.45215 25.82 3.97933 26.1203 4.55322 26.3472C5.12712 26.5741 5.73438 26.6875 6.375 26.6875C6.58854 26.6875 6.77539 26.6074 6.93555 26.4473C7.0957 26.2871 7.17578 26.1003 7.17578 25.8867C7.17578 25.6732 7.0957 25.4863 6.93555 25.3262C6.77539 25.166 6.58854 25.0859 6.375 25.0859C5.2806 25.0859 4.33968 24.6589 3.55225 23.8047C2.76481 22.9505 2.37109 21.9629 2.37109 20.8418C2.37109 20.1478 2.53792 19.5072 2.87158 18.9199C3.20524 18.3327 3.66569 17.8522 4.25293 17.4785C4.41309 17.3451 4.51986 17.1782 4.57324 16.978C4.62663 16.7778 4.59993 16.5843 4.49316 16.3975C4.33301 16.0771 4.20622 15.7568 4.11279 15.4365C4.01937 15.1162 3.97266 14.7826 3.97266 14.4355C3.97266 13.3678 4.3597 12.3936 5.13379 11.5127C5.90788 10.6318 6.85547 10.1914 7.97656 10.1914C9.04427 10.1914 9.97852 10.6185 10.7793 11.4727C11.5801 12.3268 11.9805 13.3145 11.9805 14.4355C11.9805 14.6491 12.0605 14.8359 12.2207 14.9961C12.3809 15.1562 12.5677 15.2363 12.7812 15.2363C12.9948 15.2363 13.1816 15.1562 13.3418 14.9961C13.502 14.8359 13.582 14.6491 13.582 14.4355C13.582 12.8607 13.0282 11.4927 11.9204 10.3315C10.8127 9.17041 9.49805 8.58984 7.97656 8.58984C7.8431 8.58984 7.70964 8.59652 7.57617 8.60986C7.44271 8.62321 7.30924 8.64323 7.17578 8.66992C7.17578 8.64323 7.17578 8.62321 7.17578 8.60986C7.17578 8.59652 7.17578 8.58984 7.17578 8.58984C7.17578 7.70898 7.48942 6.95491 8.1167 6.32764C8.74398 5.70036 9.49805 5.38672 10.3789 5.38672C10.806 5.38672 11.2131 5.4668 11.6001 5.62695C11.9871 5.78711 12.3408 6.014 12.6611 6.30762C12.7946 6.46777 12.9748 6.54785 13.2017 6.54785C13.4285 6.54785 13.6221 6.46777 13.7822 6.30762C13.9424 6.17415 14.0225 5.99398 14.0225 5.76709C14.0225 5.5402 13.9424 5.34668 13.7822 5.18652C13.4085 4.81282 12.9948 4.51253 12.541 4.28564C12.0872 4.05876 11.6201 3.90527 11.1396 3.8252C11.4867 3.31804 11.9404 2.87761 12.501 2.50391C13.0615 2.13021 13.6888 1.94336 14.3828 1.94336C15.4505 1.94336 16.3848 2.37044 17.1855 3.22461C17.9863 4.07878 18.3867 5.06641 18.3867 6.1875V12.4736ZM32 26.6875C32.6406 26.6875 33.2479 26.5741 33.8218 26.3472C34.3957 26.1203 34.9229 25.82 35.4033 25.4463C35.5902 25.7399 35.737 26.0602 35.8438 26.4072C35.9505 26.7542 36.0039 27.1146 36.0039 27.4883C36.0039 28.0755 35.8771 28.6361 35.6235 29.1699C35.37 29.7038 35.0163 30.1709 34.5625 30.5713C34.429 30.6514 34.3423 30.7648 34.3022 30.9116C34.2622 31.0584 34.2555 31.2119 34.2822 31.3721C34.3089 31.5322 34.3356 31.6924 34.3623 31.8525C34.389 32.0127 34.4023 32.1595 34.4023 32.293C34.4023 33.5475 33.9419 34.6019 33.021 35.4561C32.1001 36.3102 31.1325 36.6572 30.1182 36.4971C30.0915 36.4971 30.0648 36.4971 30.0381 36.4971C30.0114 36.4971 29.9847 36.4971 29.958 36.4971C29.7979 36.4704 29.6377 36.4971 29.4775 36.5771C29.3174 36.6572 29.2106 36.7773 29.1572 36.9375C28.7568 37.7917 28.1629 38.4723 27.3755 38.9795C26.5881 39.4867 25.7272 39.7402 24.793 39.7402C23.485 39.7402 22.3573 39.2397 21.4097 38.2388C20.4621 37.2378 19.9883 36.0566 19.9883 34.6953C19.9883 33.3607 20.4554 32.2262 21.3896 31.292C22.3239 30.3577 23.4583 29.8906 24.793 29.8906C25.0065 29.8906 25.1934 29.8105 25.3535 29.6504C25.5137 29.4902 25.5938 29.3034 25.5938 29.0898C25.5938 28.8763 25.5137 28.6895 25.3535 28.5293C25.1934 28.3691 25.0065 28.2891 24.793 28.2891C23.832 28.2891 22.9378 28.4826 22.1104 28.8696C21.2829 29.2567 20.5755 29.7839 19.9883 30.4512V15.2363C19.9883 14.7826 20.1418 14.4022 20.4487 14.0952C20.7557 13.7882 21.1361 13.6348 21.5898 13.6348C21.8034 13.6348 21.9902 13.5547 22.1504 13.3945C22.3105 13.2344 22.3906 13.0475 22.3906 12.834C22.3906 12.6204 22.3105 12.4336 22.1504 12.2734C21.9902 12.1133 21.8034 12.0332 21.5898 12.0332C21.2962 12.0332 21.016 12.0732 20.749 12.1533C20.4821 12.2334 20.2285 12.3402 19.9883 12.4736V6.1875C19.9883 5.06641 20.3887 4.07878 21.1895 3.22461C21.9902 2.37044 22.9245 1.94336 23.9922 1.94336C24.6862 1.94336 25.3135 2.13021 25.874 2.50391C26.4346 2.87761 26.8883 3.31804 27.2354 3.8252C26.7549 3.90527 26.2878 4.05876 25.834 4.28564C25.3802 4.51253 24.9665 4.81282 24.5928 5.18652C24.4326 5.34668 24.3525 5.5402 24.3525 5.76709C24.3525 5.99398 24.4326 6.17415 24.5928 6.30762C24.7529 6.46777 24.9465 6.54785 25.1733 6.54785C25.4002 6.54785 25.5804 6.46777 25.7139 6.30762C26.0342 6.014 26.3879 5.78711 26.7749 5.62695C27.1619 5.4668 27.569 5.38672 27.9961 5.38672C28.877 5.38672 29.631 5.70036 30.2583 6.32764C30.8856 6.95491 31.1992 7.70898 31.1992 8.58984C31.1992 8.58984 31.1992 8.59652 31.1992 8.60986C31.1992 8.62321 31.1992 8.64323 31.1992 8.66992C31.0658 8.64323 30.9323 8.62321 30.7988 8.60986C30.6654 8.59652 30.5319 8.58984 30.3984 8.58984C28.877 8.58984 27.5623 9.17041 26.4546 10.3315C25.3468 11.4927 24.793 12.8607 24.793 14.4355C24.793 14.6491 24.873 14.8359 25.0332 14.9961C25.1934 15.1562 25.3802 15.2363 25.5938 15.2363C25.8073 15.2363 25.9941 15.1562 26.1543 14.9961C26.3145 14.8359 26.3945 14.6491 26.3945 14.4355C26.3945 13.3145 26.7949 12.3268 27.5957 11.4727C28.3965 10.6185 29.3307 10.1914 30.3984 10.1914C31.5195 10.1914 32.4671 10.6252 33.2412 11.4927C34.0153 12.3602 34.4023 13.3411 34.4023 14.4355C34.4023 14.7826 34.3556 15.1162 34.2622 15.4365C34.1688 15.7568 34.042 16.0771 33.8818 16.3975C33.7751 16.5843 33.7484 16.7778 33.8018 16.978C33.8551 17.1782 33.9619 17.3451 34.1221 17.4785C34.7093 17.8522 35.1698 18.3327 35.5034 18.9199C35.8371 19.5072 36.0039 20.1478 36.0039 20.8418C36.0039 21.9629 35.6102 22.9505 34.8228 23.8047C34.0353 24.6589 33.0944 25.0859 32 25.0859C31.7865 25.0859 31.5996 25.166 31.4395 25.3262C31.2793 25.4863 31.1992 25.6732 31.1992 25.8867C31.1992 26.1003 31.2793 26.2871 31.4395 26.4473C31.5996 26.6074 31.7865 26.6875 32 26.6875ZM16.585 17.4785C16.4248 17.3184 16.238 17.2316 16.0244 17.2183C15.8109 17.2049 15.624 17.2783 15.4639 17.4385C14.1826 18.5863 12.7479 18.8065 11.1597 18.0991C9.57145 17.3918 8.77734 16.1706 8.77734 14.4355C8.77734 14.222 8.69727 14.0352 8.53711 13.875C8.37695 13.7148 8.1901 13.6348 7.97656 13.6348C7.76302 13.6348 7.57617 13.7148 7.41602 13.875C7.25586 14.0352 7.17578 14.222 7.17578 14.4355C7.17578 15.8236 7.62288 17.0381 8.51709 18.0791C9.4113 19.1201 10.5257 19.7474 11.8604 19.9609C11.7002 20.4414 11.4132 20.8418 10.9995 21.1621C10.5858 21.4824 10.112 21.6426 9.57812 21.6426C9.36458 21.6426 9.17773 21.7227 9.01758 21.8828C8.85742 22.043 8.77734 22.2298 8.77734 22.4434C8.77734 22.6569 8.85742 22.8438 9.01758 23.0039C9.17773 23.1641 9.36458 23.2441 9.57812 23.2441C10.5658 23.2441 11.4266 22.9305 12.1606 22.3032C12.8947 21.6759 13.3418 20.9085 13.502 20.001C14.0625 19.9209 14.5964 19.7674 15.1035 19.5405C15.6107 19.3136 16.0778 19 16.5049 18.5996C16.6917 18.4661 16.7852 18.286 16.7852 18.0591C16.7852 17.8322 16.7184 17.6387 16.585 17.4785ZM7.97656 31.4922C7.76302 31.4922 7.57617 31.5723 7.41602 31.7324C7.25586 31.8926 7.17578 32.0794 7.17578 32.293C7.17578 32.5065 7.25586 32.6934 7.41602 32.8535C7.57617 33.0137 7.76302 33.0938 7.97656 33.0938C9.04427 33.0938 9.97852 33.5208 10.7793 34.375C11.5801 35.2292 11.9805 36.2168 11.9805 37.3379C11.9805 37.5514 12.0605 37.7383 12.2207 37.8984C12.3809 38.0586 12.5677 38.1387 12.7812 38.1387C12.9948 38.1387 13.1816 38.0586 13.3418 37.8984C13.502 37.7383 13.582 37.5514 13.582 37.3379C13.582 35.763 13.0282 34.395 11.9204 33.2339C10.8127 32.0728 9.49805 31.4922 7.97656 31.4922ZM14.3828 25.0859C13.0215 25.0859 11.7869 25.4263 10.6792 26.1069C9.57145 26.7876 8.71061 27.6618 8.09668 28.7295C7.98991 28.9163 7.96989 29.1165 8.03662 29.3301C8.10335 29.5436 8.23014 29.7038 8.41699 29.8105C8.60384 29.944 8.80404 29.9774 9.01758 29.9106C9.23112 29.8439 9.39128 29.7171 9.49805 29.5303C9.97852 28.6761 10.6525 27.9888 11.52 27.4683C12.3875 26.9478 13.3418 26.6875 14.3828 26.6875C14.5964 26.6875 14.7832 26.6074 14.9434 26.4473C15.1035 26.2871 15.1836 26.1003 15.1836 25.8867C15.1836 25.6732 15.1035 25.4863 14.9434 25.3262C14.7832 25.166 14.5964 25.0859 14.3828 25.0859ZM28.7969 21.6426C28.263 21.6426 27.7892 21.4824 27.3755 21.1621C26.9618 20.8418 26.6748 20.4414 26.5146 19.9609C27.8493 19.7474 28.9637 19.1201 29.8579 18.0791C30.7521 17.0381 31.1992 15.8236 31.1992 14.4355C31.1992 14.222 31.1191 14.0352 30.959 13.875C30.7988 13.7148 30.612 13.6348 30.3984 13.6348C30.1849 13.6348 29.998 13.7148 29.8379 13.875C29.6777 14.0352 29.5977 14.222 29.5977 14.4355C29.5977 15.5299 29.2039 16.4709 28.4165 17.2583C27.6291 18.0457 26.6882 18.4395 25.5938 18.4395C25.1133 18.4395 24.6395 18.3527 24.1724 18.1792C23.7052 18.0057 23.2848 17.7588 22.9111 17.4385C22.751 17.2783 22.5641 17.2049 22.3506 17.2183C22.137 17.2316 21.9502 17.3184 21.79 17.4785C21.6566 17.6387 21.5898 17.8322 21.5898 18.0591C21.5898 18.286 21.6833 18.4661 21.8701 18.5996C22.2972 19 22.7643 19.3136 23.2715 19.5405C23.7786 19.7674 24.3125 19.9209 24.873 20.001C25.0332 20.9085 25.4803 21.6759 26.2144 22.3032C26.9484 22.9305 27.8092 23.2441 28.7969 23.2441C29.0104 23.2441 29.1973 23.1641 29.3574 23.0039C29.5176 22.8438 29.5977 22.6569 29.5977 22.4434C29.5977 22.2298 29.5176 22.043 29.3574 21.8828C29.1973 21.7227 29.0104 21.6426 28.7969 21.6426ZM30.3984 31.4922C28.877 31.4922 27.5623 32.0728 26.4546 33.2339C25.3468 34.395 24.793 35.763 24.793 37.3379C24.793 37.5514 24.873 37.7383 25.0332 37.8984C25.1934 38.0586 25.3802 38.1387 25.5938 38.1387C25.8073 38.1387 25.9941 38.0586 26.1543 37.8984C26.3145 37.7383 26.3945 37.5514 26.3945 37.3379C26.3945 36.2168 26.7949 35.2292 27.5957 34.375C28.3965 33.5208 29.3307 33.0938 30.3984 33.0938C30.612 33.0938 30.7988 33.0137 30.959 32.8535C31.1191 32.6934 31.1992 32.5065 31.1992 32.293C31.1992 32.0794 31.1191 31.8926 30.959 31.7324C30.7988 31.5723 30.612 31.4922 30.3984 31.4922ZM30.2783 28.7295C29.6644 27.6618 28.8035 26.7876 27.6958 26.1069C26.5881 25.4263 25.3535 25.0859 23.9922 25.0859C23.7786 25.0859 23.5918 25.166 23.4316 25.3262C23.2715 25.4863 23.1914 25.6732 23.1914 25.8867C23.1914 26.1003 23.2715 26.2871 23.4316 26.4473C23.5918 26.6074 23.7786 26.6875 23.9922 26.6875C25.0332 26.6875 25.9875 26.9478 26.855 27.4683C27.7225 27.9888 28.3965 28.6761 28.877 29.5303C28.9837 29.7171 29.1439 29.8439 29.3574 29.9106C29.571 29.9774 29.7712 29.944 29.958 29.8105C30.1449 29.7038 30.2716 29.5436 30.3384 29.3301C30.4051 29.1165 30.3851 28.9163 30.2783 28.7295Z" fill="#F50C18"/>
</g>
<defs>
<clipPath id="clip0_151_353">
<rect width="41" height="41" fill="white" transform="matrix(1 0 0 -1 0.769531 41.3418)"/>
</clipPath>
</defs>
</svg>
