<svg width="290" height="909" viewBox="0 0 290 909" fill="none" xmlns="http://www.w3.org/2000/svg">
<path fill-rule="evenodd" clip-rule="evenodd" d="M177.768 23.8512C77.8251 127.971 18.3886 230.388 44.7905 251.713C-32.9789 256.113 0.943345 131.969 67.3676 56.3363C61.6548 48.3074 36.7376 57.2195 22.7782 62.615C60.1701 25.6497 141.829 -8.40917 183.497 1.85184C194.939 4.67803 187.725 13.4938 177.768 23.8512Z" fill="#E10000"/>
<path fill-rule="evenodd" clip-rule="evenodd" d="M218.259 119.524C232.347 94.4255 239.48 76.0071 240.239 68.5723C240.82 62.8878 240.11 57.4281 240.11 57.4281C239.932 55.3566 239.545 52.5304 238.625 49.3028C237.302 44.6942 235.543 41.5308 235.398 41.2738C232.138 35.5572 207.221 36.9543 175.574 47.0226C168.989 75.8305 162.405 104.654 155.837 133.462C164.89 128.645 181.351 121.355 203.218 119.717C208.512 119.315 213.547 119.299 218.259 119.54V119.524Z" fill="#E10000"/>
<path fill-rule="evenodd" clip-rule="evenodd" d="M73.5973 174.362C58.0241 198.577 49.8098 216.53 48.5994 223.933C47.6796 229.569 48.0507 235.061 48.0507 235.061C48.0991 237.132 48.3251 239.974 49.0513 243.266C50.1003 247.939 51.6657 251.215 51.7948 251.472C54.7157 257.365 79.6652 257.461 111.861 249.288C120.156 220.914 128.451 192.539 136.762 164.165C127.434 168.436 110.57 174.731 88.638 175.084C83.3285 175.165 78.2935 174.892 73.6134 174.378L73.5973 174.362Z" fill="#E10000"/>
<path fill-rule="evenodd" clip-rule="evenodd" d="M112.232 266.133C212.159 162.029 271.611 59.5959 245.21 38.271C322.979 33.8711 289.057 158.015 222.632 233.648C228.345 241.677 253.262 232.764 267.222 227.369C229.83 264.35 148.155 298.409 106.503 288.148C95.0609 285.322 102.275 276.506 112.232 266.149V266.133Z" fill="#E10000"/>
<path fill-rule="evenodd" clip-rule="evenodd" d="M177.768 346.851C77.8251 450.971 18.3886 553.388 44.7905 574.713C-32.9789 579.113 0.943345 454.969 67.3676 379.336C61.6548 371.307 36.7376 380.22 22.7782 385.615C60.1701 348.65 141.829 314.591 183.497 324.852C194.939 327.678 187.725 336.494 177.768 346.851Z" fill="#E10000"/>
<path fill-rule="evenodd" clip-rule="evenodd" d="M218.259 442.524C232.347 417.426 239.48 399.007 240.239 391.572C240.82 385.888 240.11 380.428 240.11 380.428C239.932 378.357 239.545 375.53 238.625 372.303C237.302 367.694 235.543 364.531 235.398 364.274C232.138 358.557 207.221 359.954 175.574 370.023C168.989 398.83 162.405 427.654 155.837 456.462C164.89 451.645 181.351 444.355 203.218 442.717C208.512 442.315 213.547 442.299 218.259 442.54V442.524Z" fill="#E10000"/>
<path fill-rule="evenodd" clip-rule="evenodd" d="M73.5973 497.362C58.0241 521.577 49.8098 539.53 48.5994 546.933C47.6796 552.569 48.0507 558.061 48.0507 558.061C48.0991 560.132 48.3251 562.974 49.0513 566.266C50.1003 570.939 51.6657 574.215 51.7948 574.472C54.7157 580.365 79.6652 580.461 111.861 572.288C120.156 543.914 128.451 515.539 136.762 487.165C127.434 491.436 110.57 497.731 88.638 498.084C83.3285 498.165 78.2935 497.892 73.6134 497.378L73.5973 497.362Z" fill="#E10000"/>
<path fill-rule="evenodd" clip-rule="evenodd" d="M112.232 589.133C212.159 485.029 271.611 382.596 245.21 361.271C322.979 356.871 289.057 481.015 222.632 556.648C228.345 564.677 253.262 555.764 267.222 550.369C229.83 587.35 148.155 621.409 106.503 611.148C95.0609 608.322 102.275 599.506 112.232 589.149V589.133Z" fill="#E10000"/>
<path fill-rule="evenodd" clip-rule="evenodd" d="M177.768 642.851C77.8251 746.971 18.3886 849.388 44.7905 870.713C-32.9789 875.113 0.943345 750.969 67.3676 675.336C61.6548 667.307 36.7376 676.22 22.7782 681.615C60.1701 644.65 141.829 610.591 183.497 620.852C194.939 623.678 187.725 632.494 177.768 642.851Z" fill="#E10000"/>
<path fill-rule="evenodd" clip-rule="evenodd" d="M218.259 738.524C232.347 713.426 239.48 695.007 240.239 687.572C240.82 681.888 240.11 676.428 240.11 676.428C239.932 674.357 239.545 671.53 238.625 668.303C237.302 663.694 235.543 660.531 235.398 660.274C232.138 654.557 207.221 655.954 175.574 666.023C168.989 694.83 162.405 723.654 155.837 752.462C164.89 747.645 181.351 740.355 203.218 738.717C208.512 738.315 213.547 738.299 218.259 738.54V738.524Z" fill="#E10000"/>
<path fill-rule="evenodd" clip-rule="evenodd" d="M73.5973 793.362C58.0241 817.577 49.8098 835.53 48.5994 842.933C47.6796 848.569 48.0507 854.061 48.0507 854.061C48.0991 856.132 48.3251 858.974 49.0513 862.266C50.1003 866.939 51.6657 870.215 51.7948 870.472C54.7157 876.365 79.6652 876.461 111.861 868.288C120.156 839.914 128.451 811.539 136.762 783.165C127.434 787.436 110.57 793.731 88.638 794.084C83.3285 794.165 78.2935 793.892 73.6134 793.378L73.5973 793.362Z" fill="#E10000"/>
<path fill-rule="evenodd" clip-rule="evenodd" d="M112.232 885.133C212.159 781.029 271.611 678.596 245.21 657.271C322.979 652.871 289.057 777.015 222.632 852.648C228.345 860.677 253.262 851.764 267.222 846.369C229.83 883.35 148.155 917.409 106.503 907.148C95.0609 904.322 102.275 895.506 112.232 885.149V885.133Z" fill="#E10000"/>
</svg>
