<svg width="290" height="290" viewBox="0 0 290 290" fill="none" xmlns="http://www.w3.org/2000/svg">
<path fill-rule="evenodd" clip-rule="evenodd" d="M177.768 23.8512C77.8251 127.971 18.3886 230.388 44.7905 251.713C-32.9789 256.113 0.943345 131.969 67.3676 56.3363C61.6548 48.3074 36.7376 57.2195 22.7782 62.615C60.1701 25.6497 141.829 -8.40917 183.497 1.85184C194.939 4.67803 187.725 13.4938 177.768 23.8512Z" fill="#E10000"/>
<path fill-rule="evenodd" clip-rule="evenodd" d="M218.259 119.524C232.347 94.4255 239.48 76.0071 240.239 68.5723C240.82 62.8878 240.11 57.4281 240.11 57.4281C239.932 55.3566 239.545 52.5304 238.625 49.3028C237.302 44.6942 235.543 41.5308 235.398 41.2738C232.138 35.5572 207.221 36.9543 175.574 47.0226C168.989 75.8305 162.405 104.654 155.837 133.462C164.89 128.645 181.351 121.355 203.218 119.717C208.512 119.315 213.547 119.299 218.259 119.54V119.524Z" fill="#E10000"/>
<path fill-rule="evenodd" clip-rule="evenodd" d="M73.5973 174.362C58.0241 198.577 49.8098 216.53 48.5994 223.933C47.6796 229.569 48.0507 235.061 48.0507 235.061C48.0991 237.132 48.3251 239.974 49.0513 243.266C50.1003 247.939 51.6657 251.215 51.7948 251.472C54.7157 257.365 79.6652 257.461 111.861 249.288C120.156 220.914 128.451 192.539 136.762 164.165C127.434 168.436 110.57 174.731 88.638 175.084C83.3285 175.165 78.2935 174.892 73.6134 174.378L73.5973 174.362Z" fill="#E10000"/>
<path fill-rule="evenodd" clip-rule="evenodd" d="M112.232 266.133C212.159 162.029 271.611 59.5959 245.21 38.271C322.979 33.8711 289.057 158.015 222.632 233.648C228.345 241.677 253.262 232.764 267.222 227.369C229.83 264.35 148.155 298.409 106.503 288.148C95.0609 285.322 102.275 276.506 112.232 266.149V266.133Z" fill="#E10000"/>
</svg>
