<svg width="48" height="48" viewBox="0 0 48 48" fill="none" xmlns="http://www.w3.org/2000/svg">
<path d="M47.8516 47.8516H0V0H2.05078V45.8008H47.8516V47.8516ZM41.5527 41.6504H33.3008V29.4922H41.5527V41.6504ZM35.3516 39.5996H39.502V31.543H35.3516V39.5996ZM28.6133 41.6504H20.3613V23.9258H28.6133V41.6504ZM22.3145 39.5996H26.4648V25.9766H22.3145V39.5996ZM15.5762 41.6504H7.32422V15.3809H15.5762V41.6504ZM9.375 39.5996H13.5254V17.3828H9.375V39.5996Z" fill="#BE5B60"/>
<path d="M47.8516 47.8516H0V0H2.05078V45.8008H47.8516V47.8516ZM41.5527 41.6504H33.3008V29.4922H41.5527V41.6504ZM35.3516 39.5996H39.502V31.543H35.3516V39.5996ZM28.6133 41.6504H20.3613V23.9258H28.6133V41.6504ZM22.3145 39.5996H26.4648V25.9766H22.3145V39.5996ZM15.5762 41.6504H7.32422V15.3809H15.5762V41.6504ZM9.375 39.5996H13.5254V17.3828H9.375V39.5996Z" fill="white"/>
</svg>
