<svg width="26" height="26" viewBox="0 0 26 26" fill="none" xmlns="http://www.w3.org/2000/svg">
<g id="Item" clip-path="url(#clip0_151_315)">
<path id="Vector" d="M19.124 11.1836V13.6738H22.4688V11.1836H19.124ZM21.6143 12.8438H19.9541V12.0137H21.6143V12.8438ZM19.124 14.5039V17.0186H22.4688V14.5039H19.124ZM21.6143 16.1885H19.9541V15.334H21.6143V16.1885ZM19.124 17.8486V20.3389H22.4688V17.8486H19.124ZM21.6143 19.5088H19.9541V18.6787H21.6143V19.5088ZM19.124 21.1689V23.6836H22.4688V21.1689H19.124ZM21.6143 22.8535H19.9541V21.999H21.6143V22.8535ZM14.1191 4.51855V2.00391H10.7988V4.51855H8.28418V7.83887H10.7988V10.3535H14.1191V7.83887H16.6338V4.51855H14.1191ZM15.8037 7.00879H13.2891V9.49902H11.6289V7.00879H9.11426V5.34863H11.6289V2.83398H13.2891V5.34863H15.8037V7.00879ZM18.2939 9.49902V0.34375H6.62402V9.49902H0.789062V25.3438H24.1289V9.49902H18.2939ZM6.62402 24.5137H1.61914V10.3535H6.62402V24.5137ZM12.0439 24.5137H9.96875V17.0186H12.0439V24.5137ZM14.9492 24.5137H12.874V17.0186H14.9492V24.5137ZM17.4639 24.5137H15.8037V16.1885H9.11426V24.5137H7.4541V1.17383H17.4639V24.5137ZM23.2988 24.5137H18.2939V10.3535H23.2988V24.5137ZM2.44922 11.1836V13.6738H5.79395V11.1836H2.44922ZM4.96387 12.8438H3.30371V12.0137H4.96387V12.8438ZM2.44922 14.5039V17.0186H5.79395V14.5039H2.44922ZM4.96387 16.1885H3.30371V15.334H4.96387V16.1885ZM2.44922 17.8486V20.3389H5.79395V17.8486H2.44922ZM4.96387 19.5088H3.30371V18.6787H4.96387V19.5088ZM2.44922 21.1689V23.6836H5.79395V21.1689H2.44922ZM4.96387 22.8535H3.30371V21.999H4.96387V22.8535Z" fill="#DC2626"/>
</g>
<defs>
<clipPath id="clip0_151_315">
<rect width="25" height="25" fill="white" transform="matrix(1 0 0 -1 0.789062 25.3438)"/>
</clipPath>
</defs>
</svg>
