<svg width="50" height="47" viewBox="0 0 50 47" fill="none" xmlns="http://www.w3.org/2000/svg">
<path d="M42.625 21.5417V17.625H38.7083V13.7083C38.7052 12.6705 38.2916 11.6761 37.5577 10.9423C36.8239 10.2084 35.8295 9.79477 34.7917 9.79167H30.875V5.875H26.9583V9.79167H23.0417V5.875H19.125V9.79167H15.2083C14.1705 9.79477 13.1761 10.2084 12.4423 10.9423C11.7084 11.6761 11.2948 12.6705 11.2917 13.7083V17.625H7.375V21.5417H11.2917V25.4583H7.375V29.375H11.2917V33.2917C11.2948 34.3295 11.7084 35.3239 12.4423 36.0577C13.1761 36.7916 14.1705 37.2052 15.2083 37.2083H19.125V41.125H23.0417V37.2083H26.9583V41.125H30.875V37.2083H34.7917C35.8295 37.2052 36.8239 36.7916 37.5577 36.0577C38.2916 35.3239 38.7052 34.3295 38.7083 33.2917V29.375H42.625V25.4583H38.7083V21.5417H42.625ZM34.7917 33.2917H15.2083V13.7083H34.7917V33.2917Z" fill="url(#paint0_linear_217_1396)"/>
<path d="M23.746 15.666H21.1121L17.1758 31.3327H19.187L20.0957 27.6608H24.6312L25.5164 31.3327H27.5961L23.746 15.666ZM20.3601 26.0922L22.3537 17.5264H22.4438L24.3688 26.0922H20.3601ZM29.3919 15.666H31.3503V31.3327H29.3919V15.666Z" fill="url(#paint1_linear_217_1396)"/>
<defs>
<linearGradient id="paint0_linear_217_1396" x1="25" y1="5.875" x2="25" y2="41.125" gradientUnits="userSpaceOnUse">
<stop stop-color="#7189D5"/>
<stop offset="1" stop-color="#358FD1"/>
</linearGradient>
<linearGradient id="paint1_linear_217_1396" x1="24.263" y1="15.666" x2="24.263" y2="31.3327" gradientUnits="userSpaceOnUse">
<stop stop-color="#7189D5"/>
<stop offset="1" stop-color="#358FD1"/>
</linearGradient>
</defs>
</svg>
