<svg width="50" height="51" viewBox="0 0 50 51" fill="none" xmlns="http://www.w3.org/2000/svg">
<path d="M33.0623 18.1442C30.4727 18.1442 27.4296 19.8497 27.0284 22.3899C26.852 23.5208 28.1876 24.2284 29.0273 23.4825L29.9899 22.6277C31.4827 21.2982 34.6428 21.2982 36.1357 22.6277L37.0983 23.4825C37.9531 24.2315 39.2715 23.5077 39.0971 22.3899C38.695 19.8497 35.6518 18.1442 33.0623 18.1442ZM16.9343 24.1922C18.7155 24.1922 20.1599 22.7477 20.1599 20.9666C20.1599 19.1854 18.7155 17.741 16.9343 17.741C15.1532 17.741 13.7087 19.1854 13.7087 20.9666C13.7087 22.7477 15.1532 24.1922 16.9343 24.1922ZM35.6377 30.7078C33.024 31.5445 29.1462 32.0243 24.9983 32.0243C20.8504 32.0243 16.9726 31.5455 14.3589 30.7078C13.357 30.3923 12.4034 31.2491 12.5737 32.2541C13.3731 37.0068 19.7628 40.3201 24.9983 40.3201C30.2338 40.3201 36.6235 37.0068 37.4229 32.2541C37.5922 31.2572 36.6497 30.3913 35.6377 30.7078ZM24.9983 0.806641C11.1918 0.806641 0 11.9984 0 25.8049C0 39.6115 11.1918 50.8032 24.9983 50.8032C38.8048 50.8032 49.9966 39.6115 49.9966 25.8049C49.9966 11.9984 38.8048 0.806641 24.9983 0.806641ZM24.9983 45.9649C13.8821 45.9649 4.83838 36.9211 4.83838 25.8049C4.83838 14.6888 13.8821 5.64502 24.9983 5.64502C36.1145 5.64502 45.1582 14.6888 45.1582 25.8049C45.1582 36.9211 36.1145 45.9649 24.9983 45.9649Z" fill="white"/>
</svg>
