<svg width="33" height="26" viewBox="0 0 33 26" fill="none" xmlns="http://www.w3.org/2000/svg">
<g id="Item" clip-path="url(#clip0_151_326)">
<path id="Vector" d="M21.8096 6.66699H28.8408C28.9548 6.66699 29.0483 6.63037 29.1216 6.55713C29.1948 6.48389 29.2314 6.3903 29.2314 6.27637C29.2314 6.16244 29.1948 6.06885 29.1216 5.99561C29.0483 5.92236 28.9548 5.88574 28.8408 5.88574H21.8096C21.6956 5.88574 21.6021 5.92236 21.5288 5.99561C21.4556 6.06885 21.4189 6.16244 21.4189 6.27637C21.4189 6.3903 21.4556 6.48389 21.5288 6.55713C21.6021 6.63037 21.6956 6.66699 21.8096 6.66699ZM21.8096 9.01074H25.7158C25.8298 9.01074 25.9233 8.97412 25.9966 8.90088C26.0698 8.82764 26.1064 8.73405 26.1064 8.62012C26.1064 8.50619 26.0698 8.4126 25.9966 8.33936C25.9233 8.26611 25.8298 8.22949 25.7158 8.22949H21.8096C21.6956 8.22949 21.6021 8.26611 21.5288 8.33936C21.4556 8.4126 21.4189 8.50619 21.4189 8.62012C21.4189 8.73405 21.4556 8.82764 21.5288 8.90088C21.6021 8.97412 21.6956 9.01074 21.8096 9.01074ZM22.2734 20.0215L21.9561 19.9482C20.7842 19.6064 19.8768 18.9839 19.2339 18.0806C18.591 17.1772 18.1719 16.5547 17.9766 16.2129C17.944 16.1315 17.8952 16.0705 17.8301 16.0298C17.765 15.9891 17.708 15.9688 17.6592 15.9688H16.8047C16.7721 15.6595 16.8006 15.1672 16.8901 14.4917C16.9797 13.8162 17.3174 13.1611 17.9033 12.5264C18.0173 12.5264 18.119 12.5223 18.2085 12.5142C18.298 12.506 18.4079 12.4857 18.5381 12.4531C18.8473 12.2904 19.0793 12.0625 19.2339 11.7695C19.3885 11.4766 19.4658 11.3138 19.4658 11.2812C19.4658 11.2487 19.5716 10.8906 19.7832 10.207C19.9948 9.52344 19.9704 8.88867 19.71 8.30273C20.2959 6.74023 20.3488 5.58057 19.8687 4.82373C19.3885 4.06689 18.9938 3.59082 18.6846 3.39551C18.6195 2.64681 18.3265 2.06901 17.8057 1.66211C17.2848 1.27148 16.7192 0.982584 16.1089 0.79541C15.4985 0.608236 14.9329 0.498373 14.4121 0.46582C13.875 0.433268 13.582 0.416992 13.5332 0.416992C12.4427 0.46582 11.4987 0.681479 10.7012 1.06396C9.90365 1.44645 9.22819 1.98763 8.6748 2.6875C7.89355 3.66406 7.47445 4.73421 7.41748 5.89795C7.36051 7.06169 7.389 7.92025 7.50293 8.47363C7.19369 8.75033 7.09196 9.16537 7.19775 9.71875C7.30355 10.2721 7.43783 10.7686 7.60059 11.208C7.63314 11.2894 7.65755 11.3626 7.67383 11.4277C7.6901 11.4928 7.71452 11.5498 7.74707 11.5986C7.90983 12.0706 8.12549 12.3962 8.39404 12.5752C8.6626 12.7542 8.91895 12.8438 9.16309 12.8438C9.30957 13.0716 9.53337 13.4785 9.83447 14.0645C10.1356 14.6504 10.3268 15.3096 10.4082 16.042H9.94434C9.86296 16.042 9.78971 16.0623 9.72461 16.103C9.6595 16.1437 9.62695 16.2048 9.62695 16.2861C9.31771 16.9535 8.80501 17.6615 8.08887 18.4102C7.37272 19.1589 6.50195 19.6715 5.47656 19.9482L5.08594 20.0215C4.07682 20.347 3.1084 20.7946 2.18066 21.3643C1.25293 21.9339 0.789062 23.1546 0.789062 25.0264C0.789062 25.1403 0.825684 25.2339 0.898926 25.3071C0.972168 25.3804 1.06576 25.417 1.17969 25.417C1.29362 25.417 1.38721 25.3804 1.46045 25.3071C1.53369 25.2339 1.57031 25.1403 1.57031 25.0264C1.57031 23.4639 1.92839 22.4507 2.64453 21.9868C3.36068 21.5229 4.23145 21.1283 5.25684 20.8027L5.64746 20.7295C6.68913 20.4202 7.60465 19.8791 8.39404 19.106C9.18343 18.3328 9.77344 17.5719 10.1641 16.8232H10.7988C10.9128 16.8232 11.0063 16.7866 11.0796 16.7134C11.1528 16.6401 11.1895 16.5465 11.1895 16.4326C11.1895 15.3096 10.9412 14.3371 10.4448 13.5151C9.94841 12.6932 9.7002 12.2578 9.7002 12.209C9.61882 12.1439 9.5415 12.1032 9.46826 12.0869C9.39502 12.0706 9.31771 12.0625 9.23633 12.0625C9.23633 12.0625 9.1346 12.0422 8.93115 12.0015C8.7277 11.9608 8.56901 11.7451 8.45508 11.3545C8.40625 11.2731 8.37777 11.208 8.36963 11.1592C8.36149 11.1104 8.33301 11.0452 8.28418 10.9639C8.21908 10.6872 8.11735 10.3128 7.979 9.84082C7.84066 9.36881 7.86914 9.09212 8.06445 9.01074C8.14583 8.97819 8.21501 8.92122 8.27197 8.83984C8.32894 8.75846 8.33301 8.66081 8.28418 8.54688C8.21908 8.23763 8.18652 7.493 8.18652 6.31299C8.18652 5.13297 8.53646 4.05469 9.23633 3.07812C9.6595 2.49219 10.2332 2.0446 10.9575 1.73535C11.6818 1.42611 12.516 1.24707 13.46 1.19824C13.4762 1.19824 13.7041 1.21452 14.1436 1.24707C14.5993 1.26335 15.0957 1.34879 15.6328 1.50342C16.1699 1.65804 16.6663 1.89811 17.1221 2.22363C17.5778 2.54915 17.8138 3.01302 17.8301 3.61523C17.8301 3.69662 17.8504 3.76986 17.8911 3.83496C17.9318 3.90006 17.9847 3.93262 18.0498 3.93262C18.0498 3.93262 18.3387 4.23779 18.9165 4.84814C19.4943 5.4585 19.4658 6.5612 18.8311 8.15625C18.7985 8.1888 18.7904 8.23763 18.8066 8.30273C18.8229 8.36784 18.8311 8.4248 18.8311 8.47363C19.0752 8.81543 19.1322 9.25895 19.002 9.8042C18.8717 10.3494 18.766 10.736 18.6846 10.9639C18.652 11.0452 18.591 11.1755 18.5015 11.3545C18.4119 11.5335 18.2939 11.6637 18.1475 11.7451C18.0986 11.7451 18.0539 11.7573 18.0132 11.7817C17.9725 11.8062 17.9359 11.7939 17.9033 11.7451C17.8219 11.7126 17.7446 11.7085 17.6714 11.7329C17.5981 11.7573 17.5452 11.7858 17.5127 11.8184C16.5361 12.7949 16.056 13.7878 16.0723 14.7969C16.0885 15.806 16.0967 16.3512 16.0967 16.4326C16.0967 16.514 16.1455 16.5872 16.2432 16.6523C16.3408 16.7174 16.4222 16.75 16.4873 16.75H17.5127C18.0173 17.7266 18.6439 18.5526 19.3926 19.228C20.1413 19.9035 20.9469 20.3796 21.8096 20.6562L22.127 20.7295C23.1361 21.0387 23.9865 21.4212 24.6782 21.877C25.37 22.3327 25.7158 23.3581 25.7158 24.9531C25.7158 25.0671 25.7524 25.1606 25.8257 25.2339C25.8989 25.3071 25.9925 25.3438 26.1064 25.3438C26.2204 25.3438 26.314 25.3071 26.3872 25.2339C26.4604 25.1606 26.4971 25.0671 26.4971 24.9531C26.4645 23.1139 26.0088 21.9136 25.1299 21.3521C24.251 20.7905 23.2988 20.347 22.2734 20.0215ZM14.4609 24.6357C14.4609 24.8799 14.3796 25.0833 14.2168 25.2461C14.054 25.4089 13.8506 25.4902 13.6064 25.4902C13.3623 25.4902 13.1589 25.4089 12.9961 25.2461C12.8333 25.0833 12.752 24.8799 12.752 24.6357C12.752 24.4079 12.8333 24.2085 12.9961 24.0376C13.1589 23.8667 13.3623 23.7812 13.6064 23.7812C13.8506 23.7812 14.054 23.8667 14.2168 24.0376C14.3796 24.2085 14.4609 24.4079 14.4609 24.6357ZM17.7568 24.6357C17.7568 24.8799 17.6714 25.0833 17.5005 25.2461C17.3296 25.4089 17.1221 25.4902 16.8779 25.4902C16.6501 25.4902 16.4507 25.4089 16.2798 25.2461C16.1089 25.0833 16.0234 24.8799 16.0234 24.6357C16.0234 24.4079 16.1089 24.2085 16.2798 24.0376C16.4507 23.8667 16.6501 23.7812 16.8779 23.7812C17.1221 23.7812 17.3296 23.8667 17.5005 24.0376C17.6714 24.2085 17.7568 24.4079 17.7568 24.6357ZM11.1162 24.6357C11.1162 24.8799 11.0308 25.0833 10.8599 25.2461C10.689 25.4089 10.4814 25.4902 10.2373 25.4902C10.0094 25.4902 9.81006 25.4089 9.63916 25.2461C9.46826 25.0833 9.38281 24.8799 9.38281 24.6357C9.38281 24.4079 9.46826 24.2085 9.63916 24.0376C9.81006 23.8667 10.0094 23.7812 10.2373 23.7812C10.4814 23.7812 10.689 23.8667 10.8599 24.0376C11.0308 24.2085 11.1162 24.4079 11.1162 24.6357ZM26.4971 1.97949H20.1006C19.9704 1.97949 19.8727 2.01611 19.8076 2.08936C19.7425 2.1626 19.71 2.25619 19.71 2.37012C19.71 2.48405 19.7425 2.57764 19.8076 2.65088C19.8727 2.72412 19.9704 2.76074 20.1006 2.76074H26.4971C27.7829 2.76074 28.8734 3.21647 29.7686 4.12793C30.6637 5.03939 31.1113 6.12174 31.1113 7.375C31.1113 8.62826 30.6556 9.71061 29.7441 10.6221C28.8327 11.5335 27.7503 11.9893 26.4971 11.9893H24.0068C23.958 11.9893 23.901 12.0055 23.8359 12.0381C23.7708 12.0706 23.722 12.1032 23.6895 12.1357L21.7363 14.4062V12.6973C21.7363 12.5671 21.6997 12.4694 21.6265 12.4043C21.5532 12.3392 21.4596 12.3066 21.3457 12.3066H19.71C19.5798 12.3066 19.4821 12.3392 19.417 12.4043C19.3519 12.4694 19.3193 12.5671 19.3193 12.6973C19.3193 12.8112 19.3519 12.9048 19.417 12.978C19.4821 13.0513 19.5798 13.0879 19.71 13.0879H20.9551V15.4316C20.9551 15.4967 20.9754 15.5659 21.0161 15.6392C21.0568 15.7124 21.1097 15.7734 21.1748 15.8223C21.2236 15.8223 21.2521 15.8223 21.2603 15.8223C21.2684 15.8223 21.2969 15.8223 21.3457 15.8223C21.3783 15.8223 21.4271 15.806 21.4922 15.7734C21.5573 15.7409 21.6143 15.7002 21.6631 15.6514L24.2266 12.8438H26.4971C27.2458 12.8438 27.9456 12.7054 28.5967 12.4287C29.2477 12.1357 29.8174 11.7451 30.3057 11.2568C30.7939 10.7686 31.1764 10.1989 31.4531 9.54785C31.7461 8.89681 31.8926 8.19694 31.8926 7.44824C31.8926 6.71582 31.7461 6.01595 31.4531 5.34863C31.1764 4.68131 30.7939 4.09945 30.3057 3.60303C29.8174 3.10661 29.2477 2.71191 28.5967 2.41895C27.9456 2.12598 27.2458 1.97949 26.4971 1.97949Z" fill="#F50C18"/>
</g>
<defs>
<clipPath id="clip0_151_326">
<rect width="31.25" height="25" fill="white" transform="matrix(1 0 0 -1 0.789062 25.3438)"/>
</clipPath>
</defs>
</svg>
