<svg width="26" height="26" viewBox="0 0 26 26" fill="none" xmlns="http://www.w3.org/2000/svg">
<g id="Item" clip-path="url(#clip0_151_332)">
<path id="Vector" d="M15.1689 17.8486H5.15918C4.63835 17.8486 4.19482 17.6655 3.82861 17.2993C3.4624 16.9331 3.2793 16.4896 3.2793 15.9688V5.95898C3.2793 5.45443 3.4624 5.01904 3.82861 4.65283C4.19482 4.28662 4.63835 4.10352 5.15918 4.10352H21.4189C21.9398 4.10352 22.3833 4.28662 22.7495 4.65283C23.1157 5.01904 23.2988 5.45443 23.2988 5.95898V7.22852C23.2988 7.39128 23.2378 7.53369 23.1157 7.65576C22.9937 7.77783 22.8431 7.83887 22.6641 7.83887C22.485 7.83887 22.3345 7.77783 22.2124 7.65576C22.0903 7.53369 22.0293 7.39128 22.0293 7.22852V5.95898C22.0293 5.79622 21.9683 5.65381 21.8462 5.53174C21.7241 5.40967 21.5817 5.34863 21.4189 5.34863H5.15918C4.99642 5.34863 4.854 5.40967 4.73193 5.53174C4.60986 5.65381 4.54883 5.79622 4.54883 5.95898V15.9688C4.54883 16.1478 4.60986 16.2983 4.73193 16.4204C4.854 16.5425 4.99642 16.6035 5.15918 16.6035H15.1689C15.3317 16.6035 15.4741 16.6646 15.5962 16.7866C15.7183 16.9087 15.7793 17.0511 15.7793 17.2139C15.7793 17.3929 15.7183 17.5435 15.5962 17.6655C15.4741 17.7876 15.3317 17.8486 15.1689 17.8486ZM15.1689 22.8535H2.66895C2.14811 22.8535 1.70459 22.6704 1.33838 22.3042C0.972168 21.938 0.789062 21.4945 0.789062 20.9736V19.7285C0.789062 19.5495 0.850098 19.3989 0.972168 19.2769C1.09424 19.1548 1.24479 19.0938 1.42383 19.0938H15.1689C15.3317 19.0938 15.4741 19.1548 15.5962 19.2769C15.7183 19.3989 15.7793 19.5495 15.7793 19.7285C15.7793 19.8913 15.7183 20.0337 15.5962 20.1558C15.4741 20.2778 15.3317 20.3389 15.1689 20.3389H2.03418V20.9736C2.03418 21.1364 2.09521 21.2788 2.21729 21.4009C2.33936 21.5229 2.48991 21.584 2.66895 21.584H15.1689C15.3317 21.584 15.4741 21.645 15.5962 21.7671C15.7183 21.8892 15.7793 22.0397 15.7793 22.2188C15.7793 22.3978 15.7183 22.5483 15.5962 22.6704C15.4741 22.7925 15.3317 22.8535 15.1689 22.8535ZM23.9092 22.8535H18.9043C18.3997 22.8535 17.9644 22.6704 17.5981 22.3042C17.2319 21.938 17.0488 21.4945 17.0488 20.9736V10.9639C17.0488 10.443 17.2319 9.99951 17.5981 9.6333C17.9644 9.26709 18.3997 9.08398 18.9043 9.08398H23.9092C24.43 9.08398 24.8735 9.26709 25.2397 9.6333C25.606 9.99951 25.7891 10.443 25.7891 10.9639V20.9736C25.7891 21.4945 25.606 21.938 25.2397 22.3042C24.8735 22.6704 24.43 22.8535 23.9092 22.8535ZM18.9043 10.3535C18.7415 10.3535 18.5991 10.4146 18.4771 10.5366C18.355 10.6587 18.2939 10.8011 18.2939 10.9639V20.9736C18.2939 21.1364 18.355 21.2788 18.4771 21.4009C18.5991 21.5229 18.7415 21.584 18.9043 21.584H23.9092C24.0882 21.584 24.2388 21.5229 24.3608 21.4009C24.4829 21.2788 24.5439 21.1364 24.5439 20.9736V10.9639C24.5439 10.8011 24.4829 10.6587 24.3608 10.5366C24.2388 10.4146 24.0882 10.3535 23.9092 10.3535H18.9043ZM21.4189 20.3389C21.3376 20.3389 21.2562 20.3226 21.1748 20.29C21.0934 20.2575 21.0283 20.2168 20.9795 20.168C20.9144 20.1029 20.8656 20.0337 20.833 19.9604C20.8005 19.8872 20.7842 19.8099 20.7842 19.7285C20.7842 19.6471 20.8005 19.5658 20.833 19.4844C20.8656 19.403 20.9144 19.3379 20.9795 19.2891C21.0283 19.224 21.0934 19.1751 21.1748 19.1426C21.2562 19.11 21.3376 19.0938 21.4189 19.0938C21.5003 19.0938 21.5776 19.11 21.6509 19.1426C21.7241 19.1751 21.7933 19.224 21.8584 19.2891C21.9072 19.3379 21.9479 19.403 21.9805 19.4844C22.013 19.5658 22.0293 19.6471 22.0293 19.7285C22.0293 19.8099 22.013 19.8872 21.9805 19.9604C21.9479 20.0337 21.9072 20.1029 21.8584 20.168C21.7933 20.2168 21.7241 20.2575 21.6509 20.29C21.5776 20.3226 21.5003 20.3389 21.4189 20.3389Z" fill="#F50C18"/>
</g>
<defs>
<clipPath id="clip0_151_332">
<rect width="25" height="25" fill="white" transform="matrix(1 0 0 -1 0.789062 25.3438)"/>
</clipPath>
</defs>
</svg>
