<svg width="26" height="26" viewBox="0 0 26 26" fill="none" xmlns="http://www.w3.org/2000/svg">
<g id="Item" clip-path="url(#clip0_151_320)">
<path id="Vector" d="M22.9299 24.0742L21.8313 17.5801C21.7662 17.2383 21.6197 16.9372 21.3918 16.6768C21.164 16.4163 20.8791 16.2292 20.5373 16.1152L17.5588 15.2363C17.5263 14.862 17.4367 14.508 17.2903 14.1743C17.1438 13.8407 16.9485 13.5355 16.7043 13.2588C16.509 13.0472 16.2852 12.8641 16.0329 12.7095C15.7807 12.5549 15.5162 12.4287 15.2395 12.3311C15.2883 12.2822 15.3371 12.2334 15.386 12.1846C15.4348 12.1357 15.4755 12.0788 15.508 12.0137C15.8661 11.5742 16.1428 11.1226 16.3381 10.6587C16.5334 10.1948 16.6555 9.79199 16.7043 9.4502H16.924C17.2333 9.4502 17.4937 9.3444 17.7053 9.13281C17.9169 8.92122 18.0227 8.66895 18.0227 8.37598V7.81445C18.0227 7.61914 17.9698 7.43604 17.864 7.26514C17.7582 7.09424 17.6239 6.95996 17.4612 6.8623V5.51953C17.4612 5.42188 17.4245 5.33643 17.3513 5.26318C17.278 5.18994 17.1926 5.15332 17.0949 5.15332C16.981 5.15332 16.8915 5.18994 16.8264 5.26318C16.7613 5.33643 16.7287 5.42188 16.7287 5.51953V7.0332C16.6474 7.0332 16.566 7.04541 16.4846 7.06982C16.4032 7.09424 16.3218 7.12272 16.2405 7.15527C16.2242 7.17155 16.212 7.17969 16.2038 7.17969C16.1957 7.17969 16.1916 7.17969 16.1916 7.17969C16.1591 7.19596 16.1347 7.20817 16.1184 7.21631C16.1021 7.22445 16.0858 7.23665 16.0696 7.25293V4.29883C16.0696 3.89193 15.9231 3.54199 15.6301 3.24902C15.3371 2.95605 14.9872 2.80957 14.5803 2.80957H13.5793C13.4003 2.80957 13.2294 2.84212 13.0666 2.90723C12.9039 2.97233 12.7574 3.05371 12.6272 3.15137L12.5295 3.24902C12.4319 3.31413 12.3261 3.36703 12.2121 3.40771C12.0982 3.4484 11.9843 3.46875 11.8703 3.46875C11.7564 3.46875 11.6425 3.4484 11.5285 3.40771C11.4146 3.36703 11.3088 3.31413 11.2112 3.24902L11.1135 3.15137C10.9833 3.05371 10.8368 2.97233 10.674 2.90723C10.5113 2.84212 10.3404 2.80957 10.1613 2.80957H9.16037C8.75347 2.80957 8.40354 2.95605 8.11057 3.24902C7.8176 3.54199 7.67111 3.89193 7.67111 4.29883V7.25293C7.65484 7.23665 7.63856 7.22445 7.62229 7.21631C7.60601 7.20817 7.5816 7.19596 7.54904 7.17969C7.54904 7.17969 7.54498 7.17969 7.53684 7.17969C7.5287 7.17969 7.51649 7.17155 7.50022 7.15527C7.41884 7.12272 7.33746 7.09424 7.25608 7.06982C7.1747 7.04541 7.09332 7.0332 7.01194 7.0332V3.22461C7.01194 2.63867 7.22352 2.13412 7.6467 1.71094C8.06988 1.28776 8.57444 1.07617 9.16037 1.07617H14.5803C15.1662 1.07617 15.6708 1.28776 16.094 1.71094C16.5171 2.13412 16.7287 2.63867 16.7287 3.22461V3.81055C16.7287 3.9082 16.7613 3.99365 16.8264 4.06689C16.8915 4.14014 16.981 4.17676 17.0949 4.17676C17.1926 4.17676 17.278 4.14014 17.3513 4.06689C17.4245 3.99365 17.4612 3.9082 17.4612 3.81055V3.22461C17.4612 2.42708 17.1763 1.74756 16.6067 1.18604C16.037 0.624512 15.3615 0.34375 14.5803 0.34375H9.16037C8.37912 0.34375 7.70367 0.624512 7.13401 1.18604C6.56434 1.74756 6.27951 2.42708 6.27951 3.22461V6.8623C6.11675 6.95996 5.98248 7.09424 5.87668 7.26514C5.77089 7.43604 5.71799 7.61914 5.71799 7.81445V8.37598C5.71799 8.66895 5.82378 8.92122 6.03537 9.13281C6.24696 9.3444 6.50738 9.4502 6.81662 9.4502H7.03635C7.08518 9.79199 7.20725 10.1948 7.40256 10.6587C7.59787 11.1226 7.87457 11.5742 8.23264 12.0137C8.26519 12.0788 8.30588 12.1357 8.35471 12.1846C8.40354 12.2334 8.44423 12.2822 8.47678 12.3311C7.85829 12.5426 7.33339 12.9089 6.90207 13.4297C6.47076 13.9505 6.23069 14.5527 6.18186 15.2363L3.20334 16.1152C2.86154 16.2292 2.57671 16.4163 2.34885 16.6768C2.12099 16.9372 1.9745 17.2383 1.9094 17.5801L1.44553 20.2168C1.42925 20.3145 1.45367 20.404 1.51877 20.4854C1.58388 20.5667 1.66526 20.6156 1.76291 20.6318C1.86057 20.6481 1.95009 20.6278 2.03147 20.5708C2.11285 20.5138 2.16168 20.4365 2.17795 20.3389L2.6174 17.7021C2.66623 17.4906 2.75982 17.3075 2.89817 17.1528C3.03651 16.9982 3.20334 16.8883 3.39865 16.8232L6.15744 15.9932V16.7256C5.8482 16.7744 5.56744 16.9006 5.31516 17.104C5.06288 17.3075 4.87977 17.5638 4.76584 17.873C4.74957 17.9544 4.72922 18.0358 4.70481 18.1172C4.68039 18.1986 4.66819 18.2799 4.66819 18.3613L4.39963 21.8037C4.38335 21.9176 4.39963 22.0397 4.44846 22.1699C4.49729 22.3001 4.56239 22.4059 4.64377 22.4873C4.72515 22.585 4.82688 22.6623 4.94895 22.7192C5.07102 22.7762 5.19716 22.8047 5.32736 22.8047H5.79123C5.88889 22.8047 5.97434 22.7681 6.04758 22.6948C6.12082 22.6216 6.15744 22.5361 6.15744 22.4385C6.15744 22.3245 6.12082 22.235 6.04758 22.1699C5.97434 22.1048 5.88889 22.0723 5.79123 22.0723H5.32736C5.29481 22.0723 5.26633 22.0641 5.24192 22.0479C5.2175 22.0316 5.19716 22.0153 5.18088 21.999C5.1646 21.9827 5.1524 21.9624 5.14426 21.938C5.13612 21.9136 5.13205 21.8851 5.13205 21.8525L5.40061 18.4346C5.40061 18.3695 5.40468 18.3125 5.41281 18.2637C5.42095 18.2148 5.4413 18.166 5.47385 18.1172C5.53895 17.9056 5.66916 17.7388 5.86447 17.6167C6.05979 17.4946 6.27138 17.4255 6.49924 17.4092H6.54807C6.56434 17.4092 6.57248 17.4092 6.57248 17.4092C6.80035 17.4092 7.0038 17.4702 7.18283 17.5923C7.36187 17.7144 7.50022 17.873 7.59787 18.0684C7.61415 18.1335 7.63042 18.1945 7.6467 18.2515C7.66298 18.3084 7.67111 18.3695 7.67111 18.4346L7.93967 21.8525C7.93967 21.8851 7.9356 21.9136 7.92746 21.938C7.91932 21.9624 7.90712 21.9827 7.89084 21.999C7.87457 22.0153 7.85422 22.0316 7.82981 22.0479C7.80539 22.0641 7.77691 22.0723 7.74436 22.0723H7.28049C7.18283 22.0723 7.09738 22.1048 7.02414 22.1699C6.9509 22.235 6.91428 22.3245 6.91428 22.4385C6.91428 22.5361 6.9509 22.6216 7.02414 22.6948C7.09738 22.7681 7.18283 22.8047 7.28049 22.8047H7.74436C7.87457 22.8047 8.0007 22.7762 8.12278 22.7192C8.24485 22.6623 8.34657 22.585 8.42795 22.4873C8.50933 22.4059 8.57444 22.3001 8.62326 22.1699C8.67209 22.0397 8.68837 21.9176 8.67209 21.8037L8.40354 18.3613C8.40354 18.2637 8.39133 18.166 8.36692 18.0684C8.3425 17.9707 8.30588 17.8812 8.25705 17.7998C8.14312 17.5068 7.96408 17.2668 7.71994 17.0796C7.4758 16.8924 7.19911 16.7744 6.88986 16.7256V15.7734L8.1594 15.3828C8.20822 15.513 8.29774 15.7205 8.42795 16.0054C8.55816 16.2902 8.72906 16.7174 8.94065 17.2871C9.16851 17.8568 9.42079 18.4875 9.69748 19.1792C9.97417 19.8709 10.2427 20.5749 10.5031 21.291C10.5031 21.291 10.5031 21.2951 10.5031 21.3032C10.5031 21.3114 10.5113 21.3154 10.5276 21.3154C10.7066 21.7874 10.8816 22.2513 11.0525 22.707C11.2234 23.1628 11.3821 23.5859 11.5285 23.9766C11.5611 24.0417 11.6058 24.0986 11.6628 24.1475C11.7198 24.1963 11.789 24.2207 11.8703 24.2207C11.9517 24.2207 12.0209 24.1963 12.0779 24.1475C12.1348 24.0986 12.1796 24.0417 12.2121 23.9766C12.3586 23.5859 12.5173 23.1628 12.6882 22.707C12.8591 22.2513 13.0341 21.7874 13.2131 21.3154C13.2294 21.3154 13.2375 21.3114 13.2375 21.3032C13.2375 21.2951 13.2375 21.291 13.2375 21.291C13.4979 20.5749 13.7665 19.8709 14.0432 19.1792C14.3199 18.4875 14.5722 17.8568 14.8 17.2871C15.0116 16.7174 15.1825 16.2902 15.3127 16.0054C15.4429 15.7205 15.5324 15.513 15.5813 15.3828L16.8508 15.7734V17.9463C16.4113 18.0277 16.0451 18.2393 15.7522 18.5811C15.4592 18.9229 15.3127 19.3298 15.3127 19.8018C15.3127 20.3226 15.4958 20.7661 15.862 21.1323C16.2282 21.4985 16.6718 21.6816 17.1926 21.6816C17.7134 21.6816 18.161 21.4985 18.5354 21.1323C18.9097 20.7661 19.0969 20.3226 19.0969 19.8018C19.0969 19.346 18.9504 18.9432 18.6574 18.5933C18.3645 18.2433 18.0064 18.0277 17.5832 17.9463V15.9932L20.342 16.8232C20.5373 16.8883 20.7042 16.9982 20.8425 17.1528C20.9808 17.3075 21.0744 17.4906 21.1233 17.7021L22.2219 24.1963C22.2219 24.2451 22.2178 24.2939 22.2097 24.3428C22.2016 24.3916 22.1812 24.4404 22.1487 24.4893C22.0998 24.5218 22.0551 24.5503 22.0144 24.5747C21.9737 24.5991 21.9208 24.6113 21.8557 24.6113H1.88498C1.81988 24.6113 1.76698 24.5991 1.72629 24.5747C1.6856 24.5503 1.64084 24.5218 1.59201 24.4893C1.55946 24.4404 1.53912 24.3916 1.53098 24.3428C1.52284 24.2939 1.51877 24.2451 1.51877 24.1963L1.88498 22.0479C1.90126 21.9502 1.88091 21.8607 1.82395 21.7793C1.76698 21.6979 1.68967 21.6491 1.59201 21.6328C1.49436 21.6165 1.40484 21.6369 1.32346 21.6938C1.24208 21.7508 1.18511 21.8281 1.15256 21.9258L0.810764 24.0742C0.778212 24.2207 0.782281 24.3713 0.822971 24.5259C0.863661 24.6805 0.932834 24.8229 1.03049 24.9531C1.14442 25.0833 1.27463 25.181 1.42112 25.2461C1.5676 25.3112 1.72222 25.3438 1.88498 25.3438H21.8557C22.0184 25.3438 22.1731 25.3112 22.3196 25.2461C22.466 25.181 22.5962 25.0833 22.7102 24.9531C22.8078 24.8229 22.877 24.6805 22.9177 24.5259C22.9584 24.3713 22.9625 24.2207 22.9299 24.0742ZM16.7287 7.76562C16.8264 7.74935 16.9078 7.73714 16.9729 7.729C17.038 7.72087 17.0705 7.7168 17.0705 7.7168C17.1031 7.7168 17.1356 7.71273 17.1682 7.70459C17.2007 7.69645 17.2333 7.68424 17.2658 7.66797C17.2658 7.70052 17.2699 7.72494 17.278 7.74121C17.2862 7.75749 17.2903 7.7819 17.2903 7.81445V8.37598C17.2903 8.47363 17.2536 8.55501 17.1804 8.62012C17.1071 8.68522 17.0217 8.71777 16.924 8.71777H16.7287V7.76562ZM7.01194 8.71777H6.81662C6.71897 8.71777 6.63352 8.68522 6.56028 8.62012C6.48703 8.55501 6.45041 8.47363 6.45041 8.37598V7.81445C6.45041 7.7819 6.45448 7.75749 6.46262 7.74121C6.47076 7.72494 6.47483 7.70052 6.47483 7.66797C6.50738 7.68424 6.53993 7.69645 6.57248 7.70459C6.60503 7.71273 6.63759 7.7168 6.67014 7.7168C6.67014 7.7168 6.70269 7.72087 6.76779 7.729C6.8329 7.73714 6.91428 7.74935 7.01194 7.76562V8.71777ZM7.74436 9.13281V8.15625C7.80946 8.17253 7.8705 8.18066 7.92746 8.18066C7.98443 8.18066 8.03733 8.17253 8.08615 8.15625C8.18381 8.10742 8.26112 8.04232 8.31809 7.96094C8.37505 7.87956 8.40354 7.7819 8.40354 7.66797V4.29883C8.40354 4.08724 8.47678 3.9082 8.62326 3.76172C8.76975 3.61523 8.94878 3.54199 9.16037 3.54199H10.1613C10.259 3.54199 10.3485 3.55827 10.4299 3.59082C10.5113 3.62337 10.5845 3.6722 10.6496 3.7373L10.7717 3.81055C10.9182 3.94076 11.0891 4.03841 11.2844 4.10352C11.4797 4.16862 11.675 4.20117 11.8703 4.20117C12.0656 4.20117 12.261 4.16862 12.4563 4.10352C12.6516 4.03841 12.8225 3.94076 12.969 3.81055L13.091 3.7373C13.1561 3.6722 13.2294 3.62337 13.3108 3.59082C13.3921 3.55827 13.4817 3.54199 13.5793 3.54199H14.5803C14.7919 3.54199 14.9709 3.61523 15.1174 3.76172C15.2639 3.9082 15.3371 4.08724 15.3371 4.29883V7.66797C15.3371 7.7819 15.3656 7.87956 15.4226 7.96094C15.4795 8.04232 15.5569 8.10742 15.6545 8.15625C15.6871 8.17253 15.7196 8.18066 15.7522 8.18066C15.7847 8.18066 15.8173 8.18066 15.8498 8.18066C15.8661 8.18066 15.8864 8.18066 15.9109 8.18066C15.9353 8.18066 15.9638 8.17253 15.9963 8.15625V9.13281C15.9963 9.39323 15.9068 9.75537 15.7278 10.2192C15.5487 10.6831 15.2883 11.1348 14.9465 11.5742C14.8326 11.7207 14.7024 11.8672 14.5559 12.0137C14.4094 12.1602 14.2466 12.3066 14.0676 12.4531C14.0513 12.4531 14.0432 12.4531 14.0432 12.4531C14.0432 12.4531 14.035 12.4613 14.0188 12.4775C13.7421 12.6729 13.4247 12.8397 13.0666 12.978C12.7085 13.1164 12.3098 13.1855 11.8703 13.1855C11.4309 13.1855 11.0321 13.1164 10.674 12.978C10.316 12.8397 9.99859 12.6729 9.7219 12.4775C9.70562 12.4613 9.69748 12.4531 9.69748 12.4531C9.69748 12.4531 9.68934 12.4531 9.67307 12.4531C9.49403 12.3066 9.33127 12.1602 9.18479 12.0137C9.0383 11.8672 8.90809 11.7207 8.79416 11.5742C8.45236 11.1348 8.19195 10.6831 8.01291 10.2192C7.83388 9.75537 7.74436 9.39323 7.74436 9.13281ZM14.2629 15.041L11.8703 16.8477L9.47776 15.041C9.59169 14.8945 9.68121 14.7277 9.74631 14.5405C9.81141 14.3534 9.84397 14.1784 9.84397 14.0156V13.4297C10.1207 13.5762 10.4299 13.6942 10.7717 13.7837C11.1135 13.8732 11.4797 13.918 11.8703 13.918C12.261 13.918 12.6272 13.8732 12.969 13.7837C13.3108 13.6942 13.62 13.5762 13.8967 13.4297V14.0156C13.8967 14.1784 13.9293 14.3534 13.9944 14.5405C14.0595 14.7277 14.149 14.8945 14.2629 15.041ZM8.8674 14.626C8.76975 14.5934 8.66802 14.5731 8.56223 14.5649C8.45643 14.5568 8.34657 14.569 8.23264 14.6016C8.23264 14.6016 8.2245 14.6016 8.20822 14.6016L6.96311 14.9922C7.06076 14.4714 7.3049 14.0197 7.69553 13.6372C8.08615 13.2547 8.55816 13.0228 9.11154 12.9414V14.0156C9.11154 14.1296 9.08713 14.2394 9.0383 14.3452C8.98947 14.451 8.93251 14.5446 8.8674 14.626ZM9.84397 17.5801C9.84397 17.5475 9.8399 17.519 9.83176 17.4946C9.82362 17.4702 9.81141 17.4499 9.79514 17.4336C9.79514 17.4336 9.79514 17.4295 9.79514 17.4214C9.79514 17.4132 9.79514 17.4092 9.79514 17.4092C9.77886 17.3766 9.76665 17.3522 9.75852 17.3359C9.75038 17.3197 9.74631 17.2952 9.74631 17.2627C9.73003 17.2627 9.7219 17.2627 9.7219 17.2627C9.70562 17.1976 9.68528 17.1325 9.66086 17.0674C9.63645 17.0023 9.60796 16.9372 9.57541 16.8721C9.57541 16.8721 9.57541 16.868 9.57541 16.8599C9.57541 16.8517 9.57541 16.8477 9.57541 16.8477C9.55914 16.8314 9.54693 16.8151 9.53879 16.7988C9.53065 16.7826 9.52658 16.7581 9.52658 16.7256C9.52658 16.7256 9.52251 16.7215 9.51438 16.7134C9.50624 16.7052 9.50217 16.7012 9.50217 16.7012C9.50217 16.6849 9.4981 16.6686 9.48996 16.6523C9.48182 16.6361 9.46962 16.6198 9.45334 16.6035C9.45334 16.6035 9.45334 16.5994 9.45334 16.5913C9.45334 16.5832 9.45334 16.5791 9.45334 16.5791C9.43707 16.5465 9.42486 16.514 9.41672 16.4814C9.40858 16.4489 9.39637 16.4163 9.3801 16.3838C9.3801 16.3838 9.37603 16.3797 9.36789 16.3716C9.35975 16.3634 9.35569 16.3594 9.35569 16.3594C9.35569 16.3431 9.35162 16.3309 9.34348 16.3228C9.33534 16.3146 9.33127 16.3024 9.33127 16.2861C9.33127 16.2699 9.3272 16.2576 9.31906 16.2495C9.31093 16.2414 9.30686 16.2292 9.30686 16.2129C9.30686 16.2129 9.30686 16.2088 9.30686 16.2007C9.30686 16.1925 9.30686 16.1885 9.30686 16.1885C9.29058 16.1885 9.28244 16.1844 9.28244 16.1763C9.28244 16.1681 9.28244 16.1641 9.28244 16.1641C9.26617 16.1152 9.24582 16.0664 9.22141 16.0176C9.19699 15.9688 9.17665 15.9199 9.16037 15.8711C9.16037 15.8548 9.15223 15.8345 9.13596 15.8101C9.11968 15.7856 9.11154 15.7572 9.11154 15.7246C9.11154 15.7246 9.10748 15.7165 9.09934 15.7002C9.0912 15.6839 9.08713 15.6758 9.08713 15.6758L11.1379 17.2139L10.2834 17.5801L9.91721 17.7266C9.90093 17.694 9.88873 17.6655 9.88059 17.6411C9.87245 17.6167 9.86024 17.5964 9.84397 17.5801ZM10.7229 19.8262C10.6903 19.7285 10.6578 19.6309 10.6252 19.5332C10.5927 19.4355 10.552 19.3379 10.5031 19.2402C10.4543 19.0938 10.4014 18.9513 10.3445 18.813C10.2875 18.6746 10.2346 18.5404 10.1858 18.4102L10.3078 18.3613L10.8694 18.9961L10.7229 19.8262ZM11.8703 22.7803C11.8703 22.7803 11.8663 22.7762 11.8581 22.7681C11.85 22.7599 11.8459 22.7477 11.8459 22.7314C11.7645 22.5199 11.671 22.2757 11.5652 21.999C11.4594 21.7223 11.3495 21.4294 11.2356 21.1201L11.5774 19.2646H12.1633L12.5051 21.1201C12.3912 21.4456 12.2772 21.7508 12.1633 22.0356C12.0494 22.3205 11.9517 22.5687 11.8703 22.7803ZM12.3098 18.5322H11.4309L11.0158 18.0439L11.8703 17.7021L12.7248 18.0439L12.3098 18.5322ZM13.2375 19.2402C13.1887 19.3379 13.148 19.4355 13.1154 19.5332C13.0829 19.6309 13.0503 19.7285 13.0178 19.8262L12.8713 18.9961L13.4328 18.3613L13.5549 18.4102C13.5061 18.5404 13.4532 18.6746 13.3962 18.813C13.3392 18.9513 13.2863 19.0938 13.2375 19.2402ZM14.6291 15.7246C14.6291 15.7572 14.621 15.7816 14.6047 15.7979C14.5884 15.8141 14.5803 15.8385 14.5803 15.8711C14.5803 15.8711 14.5803 15.8792 14.5803 15.8955C14.564 15.9118 14.5518 15.9321 14.5437 15.9565C14.5355 15.981 14.5233 16.0013 14.5071 16.0176C14.5071 16.0176 14.5071 16.0216 14.5071 16.0298C14.5071 16.0379 14.5071 16.042 14.5071 16.042C14.4908 16.0583 14.4786 16.0786 14.4704 16.103C14.4623 16.1274 14.4582 16.1478 14.4582 16.1641C14.4582 16.1641 14.4582 16.1681 14.4582 16.1763C14.4582 16.1844 14.4501 16.1885 14.4338 16.1885C14.4338 16.1885 14.4338 16.1925 14.4338 16.2007C14.4338 16.2088 14.4338 16.2129 14.4338 16.2129C14.4338 16.2292 14.4297 16.2414 14.4216 16.2495C14.4135 16.2576 14.4094 16.2699 14.4094 16.2861C14.4094 16.2861 14.4053 16.2943 14.3972 16.3105C14.3891 16.3268 14.385 16.3431 14.385 16.3594C14.385 16.3594 14.3809 16.3594 14.3728 16.3594C14.3646 16.3594 14.3606 16.3675 14.3606 16.3838C14.3443 16.4163 14.3321 16.4489 14.3239 16.4814C14.3158 16.514 14.3036 16.5465 14.2873 16.5791C14.2873 16.5791 14.2873 16.5872 14.2873 16.6035C14.2711 16.6198 14.2588 16.6361 14.2507 16.6523C14.2426 16.6686 14.2385 16.6849 14.2385 16.7012C14.2385 16.7012 14.2344 16.7052 14.2263 16.7134C14.2182 16.7215 14.2141 16.7337 14.2141 16.75C14.2141 16.7663 14.21 16.7826 14.2019 16.7988C14.1937 16.8151 14.1897 16.8314 14.1897 16.8477C14.1734 16.8477 14.1653 16.8517 14.1653 16.8599C14.1653 16.868 14.1653 16.8721 14.1653 16.8721C14.1327 16.9372 14.1042 17.0023 14.0798 17.0674C14.0554 17.1325 14.035 17.1976 14.0188 17.2627C14.0188 17.2627 14.0106 17.2627 13.9944 17.2627C13.9944 17.2952 13.9903 17.3197 13.9822 17.3359C13.974 17.3522 13.9618 17.3766 13.9455 17.4092C13.9455 17.4092 13.9455 17.4132 13.9455 17.4214C13.9455 17.4295 13.9455 17.4336 13.9455 17.4336C13.9293 17.4499 13.917 17.4702 13.9089 17.4946C13.9008 17.519 13.8967 17.5475 13.8967 17.5801C13.8804 17.5964 13.8682 17.6167 13.8601 17.6411C13.8519 17.6655 13.8397 17.694 13.8235 17.7266L13.4572 17.5801L12.6028 17.2139L14.6535 15.6758C14.6535 15.6758 14.6495 15.6839 14.6413 15.7002C14.6332 15.7165 14.6291 15.7246 14.6291 15.7246ZM15.5324 14.6016C15.4185 14.569 15.3086 14.5568 15.2029 14.5649C15.0971 14.5731 14.9872 14.5934 14.8733 14.626C14.8082 14.5446 14.7512 14.451 14.7024 14.3452C14.6535 14.2394 14.6291 14.1296 14.6291 14.0156V12.9414C15.1825 13.0228 15.6545 13.2507 16.0451 13.625C16.4358 13.9993 16.6799 14.4551 16.7776 14.9922L15.5324 14.6016ZM18.3645 19.8018C18.3645 20.111 18.2505 20.3796 18.0227 20.6074C17.7948 20.8353 17.5181 20.9492 17.1926 20.9492C16.8834 20.9492 16.6148 20.8353 16.3869 20.6074C16.1591 20.3796 16.0451 20.111 16.0451 19.8018C16.0451 19.4762 16.1591 19.1995 16.3869 18.9717C16.6148 18.7438 16.8834 18.6299 17.1926 18.6299C17.5181 18.6299 17.7948 18.7438 18.0227 18.9717C18.2505 19.1995 18.3645 19.4762 18.3645 19.8018Z" fill="#F50C18"/>
</g>
<defs>
<clipPath id="clip0_151_320">
<rect width="25" height="25" fill="white" transform="matrix(1 0 0 -1 0.789062 25.3438)"/>
</clipPath>
</defs>
</svg>
