<svg width="26" height="26" viewBox="0 0 26 26" fill="none" xmlns="http://www.w3.org/2000/svg">
<g id="Item" clip-path="url(#clip0_151_337)">
<path id="Vector" d="M23.0547 0.417969H1.96094C1.65169 0.417969 1.37907 0.527832 1.14307 0.747559C0.907064 0.967285 0.789062 1.24805 0.789062 1.58984V10.1836C0.789062 10.4928 0.907064 10.7655 1.14307 11.0015C1.37907 11.2375 1.65169 11.3555 1.96094 11.3555H23.0547C23.3639 11.3555 23.6366 11.2375 23.8726 11.0015C24.1086 10.7655 24.2266 10.4928 24.2266 10.1836V1.58984C24.2266 1.24805 24.1086 0.967285 23.8726 0.747559C23.6366 0.527832 23.3639 0.417969 23.0547 0.417969ZM23.4453 10.1836C23.4453 10.2975 23.4087 10.3911 23.3354 10.4644C23.2622 10.5376 23.1686 10.5742 23.0547 10.5742H1.96094C1.84701 10.5742 1.75342 10.5376 1.68018 10.4644C1.60693 10.3911 1.57031 10.2975 1.57031 10.1836V1.58984C1.57031 1.47591 1.60693 1.38232 1.68018 1.30908C1.75342 1.23584 1.84701 1.19922 1.96094 1.19922H23.0547C23.1686 1.19922 23.2622 1.23584 23.3354 1.30908C23.4087 1.38232 23.4453 1.47591 23.4453 1.58984V10.1836ZM23.0547 14.4805H1.96094C1.65169 14.4805 1.37907 14.5985 1.14307 14.8345C0.907064 15.0705 0.789062 15.3431 0.789062 15.6523V24.2461C0.789062 24.5553 0.907064 24.828 1.14307 25.064C1.37907 25.3 1.65169 25.418 1.96094 25.418H23.0547C23.3639 25.418 23.6366 25.3 23.8726 25.064C24.1086 24.828 24.2266 24.5553 24.2266 24.2461V15.6523C24.2266 15.3105 24.1086 15.0298 23.8726 14.8101C23.6366 14.5903 23.3639 14.4805 23.0547 14.4805ZM23.4453 24.2461C23.4453 24.36 23.4087 24.4536 23.3354 24.5269C23.2622 24.6001 23.1686 24.6367 23.0547 24.6367H1.96094C1.84701 24.6367 1.75342 24.6001 1.68018 24.5269C1.60693 24.4536 1.57031 24.36 1.57031 24.2461V15.6523C1.57031 15.5384 1.60693 15.4448 1.68018 15.3716C1.75342 15.2983 1.84701 15.2617 1.96094 15.2617H23.0547C23.1686 15.2617 23.2622 15.2983 23.3354 15.3716C23.4087 15.4448 23.4453 15.5384 23.4453 15.6523V24.2461ZM18.7578 4.32422H9.38281C9.26888 4.32422 9.17529 4.36084 9.10205 4.43408C9.02881 4.50732 8.99219 4.60091 8.99219 4.71484C8.99219 4.82878 9.02881 4.92236 9.10205 4.99561C9.17529 5.06885 9.26888 5.10547 9.38281 5.10547H18.7578C18.8717 5.10547 18.9653 5.06885 19.0386 4.99561C19.1118 4.92236 19.1484 4.82878 19.1484 4.71484C19.1484 4.60091 19.1118 4.50732 19.0386 4.43408C18.9653 4.36084 18.8717 4.32422 18.7578 4.32422ZM14.0703 6.66797H9.38281C9.26888 6.66797 9.17529 6.70459 9.10205 6.77783C9.02881 6.85107 8.99219 6.94466 8.99219 7.05859C8.99219 7.17253 9.02881 7.26611 9.10205 7.33936C9.17529 7.4126 9.26888 7.44922 9.38281 7.44922H14.0703C14.1842 7.44922 14.2778 7.4126 14.3511 7.33936C14.4243 7.26611 14.4609 7.17253 14.4609 7.05859C14.4609 6.94466 14.4243 6.85107 14.3511 6.77783C14.2778 6.70459 14.1842 6.66797 14.0703 6.66797ZM18.7578 18.3867H9.38281C9.26888 18.3867 9.17529 18.4233 9.10205 18.4966C9.02881 18.5698 8.99219 18.6634 8.99219 18.7773C8.99219 18.8913 9.02881 18.9849 9.10205 19.0581C9.17529 19.1313 9.26888 19.168 9.38281 19.168H18.7578C18.8717 19.168 18.9653 19.1313 19.0386 19.0581C19.1118 18.9849 19.1484 18.8913 19.1484 18.7773C19.1484 18.6634 19.1118 18.5698 19.0386 18.4966C18.9653 18.4233 18.8717 18.3867 18.7578 18.3867ZM14.0703 20.7305H9.38281C9.26888 20.7305 9.17529 20.7671 9.10205 20.8403C9.02881 20.9136 8.99219 21.0072 8.99219 21.1211C8.99219 21.235 9.02881 21.3286 9.10205 21.4019C9.17529 21.4751 9.26888 21.5117 9.38281 21.5117H14.0703C14.1842 21.5117 14.2778 21.4751 14.3511 21.4019C14.4243 21.3286 14.4609 21.235 14.4609 21.1211C14.4609 21.0072 14.4243 20.9136 14.3511 20.8403C14.2778 20.7671 14.1842 20.7305 14.0703 20.7305ZM7.35645 3.54297C7.27506 3.51042 7.18148 3.49821 7.07568 3.50635C6.96989 3.51449 6.8763 3.58366 6.79492 3.71387L5.40332 6.05762L4.45117 5.27637C4.38607 5.19499 4.30062 5.1543 4.19482 5.1543C4.08903 5.1543 3.99544 5.19499 3.91406 5.27637C3.83268 5.34147 3.8042 5.43913 3.82861 5.56934C3.85303 5.69954 3.90592 5.80534 3.9873 5.88672L5.62305 7.22949L7.50293 4.17773C7.55176 4.0638 7.56803 3.94173 7.55176 3.81152C7.53548 3.68131 7.47038 3.5918 7.35645 3.54297ZM5.08594 18.3867C4.66276 18.3867 4.29655 18.5413 3.9873 18.8506C3.67806 19.1598 3.52344 19.526 3.52344 19.9492C3.52344 20.3887 3.67806 20.759 3.9873 21.0601C4.29655 21.3612 4.66276 21.5117 5.08594 21.5117C5.50911 21.5117 5.87533 21.3612 6.18457 21.0601C6.49381 20.759 6.64844 20.3887 6.64844 19.9492C6.64844 19.526 6.49381 19.1598 6.18457 18.8506C5.87533 18.5413 5.50911 18.3867 5.08594 18.3867ZM5.08594 20.7305C4.85807 20.7305 4.6709 20.6613 4.52441 20.5229C4.37793 20.3846 4.30469 20.1934 4.30469 19.9492C4.30469 19.7214 4.37793 19.5342 4.52441 19.3877C4.6709 19.2412 4.85807 19.168 5.08594 19.168C5.3138 19.168 5.50098 19.2412 5.64746 19.3877C5.79395 19.5342 5.86719 19.7214 5.86719 19.9492C5.86719 20.1934 5.79395 20.3846 5.64746 20.5229C5.50098 20.6613 5.3138 20.7305 5.08594 20.7305Z" fill="#F50C18"/>
</g>
<defs>
<clipPath id="clip0_151_337">
<rect width="25" height="25" fill="white" transform="matrix(1 0 0 -1 0.789062 25.3438)"/>
</clipPath>
</defs>
</svg>
