<svg id="ee8YzlZ0KtV1" xmlns="http://www.w3.org/2000/svg" xmlns:xlink="http://www.w3.org/1999/xlink" viewBox="0 0 830 184" shape-rendering="geometricPrecision" text-rendering="geometricPrecision">
<style><![CDATA[
#ee8YzlZ0KtV4_ts {animation: ee8YzlZ0KtV4_ts__ts 3000ms linear 1 normal forwards}@keyframes ee8YzlZ0KtV4_ts__ts { 0% {transform: translate(326.365054px,176.200005px) scale(0,1);animation-timing-function: cubic-bezier(0,0,0.58,1)} 23.333333% {transform: translate(326.365054px,176.200005px) scale(1,1)} 100% {transform: translate(326.365054px,176.200005px) scale(1,1)}}
]]></style>
<path d="M166.57,4.61005c-2.44-3.09-5.15-3.2-8.41-3.2-24.88.04-49.77-.1-74.6501.06-13.67.09-27.37-.920004-41,.98C20.5599,5.52005,5.19986,20,1.73986,41.93c-3,19.01-1.199996,38.25-1.219996,57.37-.04,33.66,18.850036,53.2,52.380036,53.7c36.07.54,72.1601.11,108.2401.18c2.92,0,5.14-.52,7.05-3.03c7.09-9.3,14.37-18.45,21.62-27.62c1.47-1.86,2.57-3.32.57-5.77-6.97-8.54-13.7-17.2699-20.86-26.35-6.95,8.73-13.33,16.65-19.59,24.66-1.77,2.26-3.48,3.75-6.71,3.74-27.12-.14-54.2501.12-81.3701-.21-10.34-.13-18.79-4.78-23.64-14.34-3.88-7.67-2.29-9.97,6.3-9.97c32.35-.01,64.7001-.11,97.0501.08c4.49.03,6.16-.95,5.9-5.7-.41-7.19-.51-14.46.02-21.63.42-5.71-1.49-6.95-7-6.91-32.1.28-64.2001.13-96.3001.12-8.21,0-9.77-2.17-6.12-9.58c5.17-10.5,14.35-14.78,25.61-14.83c25.13-.12,50.2701.16,75.4001-.2c5.66-.08,8.93,1.83,12.29,6.17c27.56,35.59,55.37,70.98,83.13,106.41c1.94,2.47,3.48,5.11,7.58,5.02c13.39-.28,26.79-.11,41.22-.11-.75-1.7-.91-2.43-1.33-2.95-38.49-48.5-77.02-96.97-115.39-145.56995Z" fill="#fff"/><path d="M232.29,62.8086c1.69,2.17,2.83,2.11,4.48-.03c15.44-20.01,30.95-39.96,47.52-61.32996-15,0-28.1.06-41.2-.05-2.66-.02-4.01,1.47-5.43,3.24-7.74,9.70996-15.49,19.41996-23.25,29.10996-1.44,1.79-2.72,3.24-.66,5.73c6.33,7.65,12.45,15.48,18.54,23.33Z" fill="#fff"/><g id="ee8YzlZ0KtV4_ts" transform="translate(326.365054,176.200005) scale(0,1)"><path d="M647.88,169.32h-643.0299v13.76h643.0299v-13.76Z" transform="translate(-326.365054,-176.200005)" fill="#f40c18"/></g><path d="M312.52,65.0573v-63.27996h40.98v4.48h-36.6v24.91996h28.52v4.48h-28.52v24.82h36.6v4.58h-40.98Z" fill="#fff"/><path d="M418.04,1.77734L395.46,33.4173l22.58,31.64h-5.35l-19.86-27.94-19.86,27.94h-5.36l22.58-31.64L367.61,1.77734h5.36L392.83,29.7173L412.69,1.77734h5.35Z" fill="#fff"/><path d="M483.27,1.77734v4.48h-25.02v58.79996h-4.48v-58.79996h-25.12v-4.48h54.61.01Z" fill="#fff"/><path d="M497.38,65.0573v-63.27996h40.98v4.48h-36.6v24.91996h28.52v4.48h-28.52v24.82h36.6v4.58h-40.98Z" fill="#fff"/><path d="M559.49,13.65v51.4h-4.38v-64.05l43.81,52.37v-51.59h4.38v64.35L559.49,13.66v-.01Z" fill="#fff"/><path d="M662.14,40.5687c1.65,2.43,2.48,5.05,2.48,7.84c0,2.4001-.58,4.69-1.75,6.86s-2.86,4.07-5.06,5.69c-4.54,3.25-9.83,4.8701-15.87,4.8701-2.99,0-5.84-.42-8.57-1.27-2.73-.84-5.16-2.0501-7.3-3.6001-3.7-2.73-5.94-6.07-6.72-10.03l4.19-2.34c.2,3.57,1.95,6.49,5.26,8.76c1.69,1.3,3.67,2.29,5.94,2.97s4.67,1.02,7.2,1.02c5.19,0,9.57-1.33,13.14-3.99c3.44-2.53,5.16-5.52,5.16-8.96c0-2.01-.63-3.89-1.9-5.6499-1.27-1.75-3.03-3.2401-5.31-4.4801-2.14-1.1-5.97-1.9799-11.49-2.63-.45-.06-2.09-.32-4.92-.78-2.82-.45-5.24-1.17-7.25-2.14-3.18-1.5599-5.68-3.6199-7.5-6.1799s-2.73-5.3401-2.73-8.3201c0-2.3999.6-4.66,1.8-6.77s2.9-3.96995,5.11-5.59995c2.14-1.56,4.58-2.76,7.3-3.6c2.73-.84,5.58-1.27,8.57-1.27c6.04,0,11.33,1.62,15.87,4.87c3.76,2.86,5.97,6.16995,6.62,9.93005l-4.19,2.34c-.07-1.62-.53-3.1801-1.41-4.6701s-2.13-2.8599-3.75-4.08995c-1.75-1.3-3.76-2.29-6.04-2.97-2.27-.68-4.64-1.02-7.11-1.02s-4.85.34-7.16,1.02c-2.3.68-4.3,1.67-5.99,2.97-1.69,1.23005-2.99,2.60995-3.89,4.13995-.91,1.53-1.36,3.1-1.36,4.72c0,2.0101.75,4.0101,2.24,5.9901s3.34,3.52,5.55,4.63c1.36.65,2.87,1.1199,4.53,1.41c1.65.29,3.78.6,6.38.93.45.07,1.59.23,3.41.49s3.57.6199,5.26,1.07c1.69.4499,3.11,1.01,4.28,1.6499c2.98,1.69,5.31,3.75,6.96,6.1801l.02.0099Z" fill="#fff"/><path d="M682.25,65.0573v-63.27996h4.38v63.27996h-4.38Z" fill="#fff"/><path d="M729.75,55.2173L753.7,1.77734h4.87L729.76,66.1273L701.03,1.77734h4.77L729.75,55.2173Z" fill="#fff"/><path d="M797.41,65.7377c-5.78,0-11.13-1.44-16.06-4.33s-8.83-6.81-11.68-11.78c-2.86-4.96-4.28-10.37-4.28-16.21s1.43-11.24,4.28-16.21c2.86-4.97,6.75-8.89004,11.68-11.78004s10.29-4.33,16.06-4.33s11.13,1.44,16.06,4.33s8.83,6.81004,11.68,11.78004c2.86,4.96,4.28,10.37,4.28,16.21s-1.43,11.24-4.28,16.21c-2.86,4.96-6.75,8.89-11.68,11.78s-10.29,4.33-16.06,4.33Zm0-60.16004c-5,0-9.61,1.25-13.82,3.75-4.22,2.50004-7.58,5.87004-10.07,10.12004-2.5,4.25-3.75,8.91-3.75,13.97s1.25,9.72,3.75,13.97s5.86,7.63,10.07,10.12c4.22,2.5,8.83,3.75,13.82,3.75s9.6-1.25,13.82-3.75s7.56-5.87,10.03-10.12s3.7-8.91,3.7-13.97-1.23-9.72-3.7-13.97-5.81-7.63-10.03-10.12004c-4.22-2.5-8.83-3.75-13.82-3.75Z" fill="#fff"/><path d="M367.03,87.2266h8.08l4.67,64.8404h-8.57l-3.11-50.52-18.69,38.84h-9.15l-18.69-38.84-3.12,50.52h-8.57l4.67-64.8404h8.08l22.2,45.8504l22.2-45.8504Z" fill="#fff"/><path d="M393.8,87.2266h36.12v7.3h-27.16v20.7404h25.99v7.3h-25.99v22.2h27.45v7.3h-36.41v-64.8404Z" fill="#fff"/><path d="M443.45,87.2266h18.01c5.58,0,10.64.81,15.19,2.43c4.54,1.62,8.44,3.88,11.68,6.77s5.74,6.3104,7.5,10.2704c1.75,3.96,2.63,8.27,2.63,12.95s-.88,8.99-2.63,12.95-4.25,7.38-7.5,10.27-7.14,5.14-11.68,6.77c-4.54,1.62-9.61,2.43-15.19,2.43h-18.01v-64.8404Zm18.01,57.6304c3.89,0,7.54-.57,10.95-1.7s6.38-2.77,8.91-4.92c2.53-2.14,4.53-4.77,5.99-7.89c1.46-3.11,2.19-6.68,2.19-10.71s-.73-7.51-2.19-10.66-3.46-5.79-5.99-7.93c-2.53-2.1404-5.5-3.7804-8.91-4.9204-3.41-1.13-7.06-1.7-10.95-1.7h-9.05v50.4304h9.05Z" fill="#fff"/><path d="M540.02,86.0586c2.92,0,5.97.28,9.15.83s5.84,1.28,7.98,2.19l-1.46,6.91c-2.21-.78-4.58-1.41-7.11-1.9s-5.03-.73-7.5-.73c-8.11,0-14.44,2.27-18.98,6.8104-4.54,4.54-6.81,11.03-6.81,19.47s2.27,14.93,6.81,19.47s10.87,6.81,18.98,6.81c2.46,0,4.96-.24,7.5-.73c2.53-.49,4.9-1.12,7.11-1.9l1.46,6.91c-2.14.91-4.8,1.64-7.98,2.19s-6.23.83-9.15.83c-5.32,0-10.08-.84-14.26-2.53-4.19-1.69-7.71-4.02-10.56-7.01-2.86-2.99-5.05-6.52-6.57-10.61-1.53-4.09-2.29-8.57-2.29-13.43s.76-9.35,2.29-13.43c1.52-4.09,3.72-7.6304,6.57-10.6104c2.86-2.99,6.38-5.32,10.56-7.01c4.19-1.69,8.94-2.53,14.26-2.53Z" fill="#fff"/><path d="M595.9,153.227c-5.06,0-9.57-.91-13.53-2.73s-7.27-4.25-9.93-7.3-4.69-6.62-6.08-10.71c-1.4-4.09-2.09-8.37-2.09-12.85s.7-8.76,2.09-12.85s3.42-7.6601,6.08-10.7101s5.97-5.48,9.93-7.3s8.47-2.73,13.53-2.73s9.57.91,13.53,2.73s7.27,4.25,9.93,7.3s4.69,6.6201,6.09,10.7101c1.39,4.09,2.09,8.37,2.09,12.85s-.7,8.76-2.09,12.85c-1.4,4.09-3.42,7.66-6.09,10.71-2.66,3.05-5.97,5.48-9.93,7.3s-8.47,2.73-13.53,2.73Zm0-7.2c3.7,0,6.98-.68,9.83-2.05c2.86-1.36,5.22-3.24,7.11-5.65c1.88-2.4,3.31-5.21,4.28-8.42s1.46-6.63,1.46-10.27-.49-7.06-1.46-10.27-2.4-6-4.28-8.37-4.25-4.2501-7.11-5.6501c-2.86-1.39-6.13-2.09-9.83-2.09s-6.98.7-9.83,2.09c-2.86,1.4-5.23,3.28-7.11,5.6501s-3.31,5.16-4.28,8.37-1.46,6.64-1.46,10.27.49,7.06,1.46,10.27s2.4,6.02,4.28,8.42s4.25,4.28,7.11,5.65c2.86,1.36,6.13,2.05,9.83,2.05Z" fill="#fff"/><path d="M639.71,152.059v-64.8402h36.51v7.2999h-27.55v22.2003h26.38v7.3h-26.38v28.04h-8.96Z" fill="#fff"/></svg>
