<svg width="42" height="42" viewBox="0 0 42 42" fill="none" xmlns="http://www.w3.org/2000/svg">
<g id="Item" clip-path="url(#clip0_151_368)">
<path id="Vector" d="M41.5282 8.27051L35.3221 2.06445C35.242 1.98438 35.1486 1.92432 35.0418 1.88428C34.9351 1.84424 34.8149 1.82422 34.6815 1.82422H7.85531C7.72184 1.82422 7.60173 1.84424 7.49495 1.88428C7.38818 1.92432 7.29476 1.98438 7.21468 2.06445L1.00863 8.27051C0.875163 8.43066 0.795085 8.61084 0.768392 8.81104C0.741699 9.01123 0.795085 9.20475 0.928548 9.3916L13.9012 29.1309C13.6343 29.6647 13.4274 30.2319 13.2806 30.8325C13.1338 31.4331 13.0604 32.0537 13.0604 32.6943C13.0604 33.8154 13.2873 34.8831 13.741 35.8975C14.1681 36.8851 14.7487 37.7459 15.4827 38.48C16.2168 39.214 17.0776 39.7946 18.0653 40.2217C19.0796 40.6755 20.1473 40.9023 21.2684 40.9023C22.3895 40.9023 23.4572 40.6755 24.4715 40.2217C25.4591 39.7946 26.32 39.214 27.054 38.48C27.7881 37.7459 28.3687 36.8851 28.7957 35.8975C29.2495 34.8831 29.4764 33.8154 29.4764 32.6943C29.4764 32.0537 29.403 31.4331 29.2562 30.8325C29.1094 30.2319 28.9025 29.6647 28.6356 29.1309L41.6082 9.3916C41.7417 9.20475 41.7951 9.01123 41.7684 8.81104C41.7417 8.61084 41.6616 8.43066 41.5282 8.27051ZM8.21566 3.58594H34.3211L38.7655 8.03027H32.5594H9.97738H3.77132L8.21566 3.58594ZM30.9578 9.79199L21.2684 24.4863L11.5789 9.79199H30.9578ZM3.25081 9.79199H9.49691L19.3065 24.7266C18.4256 24.9401 17.6115 25.2871 16.8641 25.7676C16.1167 26.248 15.4627 26.8353 14.9022 27.5293L3.25081 9.79199ZM21.2684 39.1406C19.5067 39.1406 17.9919 38.5067 16.724 37.2388C15.4561 35.9709 14.8221 34.4561 14.8221 32.6943C14.8221 30.9059 15.4561 29.3844 16.724 28.1299C17.9919 26.8753 19.5067 26.248 21.2684 26.248C23.0301 26.248 24.5449 26.8753 25.8128 28.1299C27.0807 29.3844 27.7147 30.9059 27.7147 32.6943C27.7147 34.4561 27.0807 35.9709 25.8128 37.2388C24.5449 38.5067 23.0301 39.1406 21.2684 39.1406ZM27.6346 27.5293C27.0741 26.8353 26.4201 26.248 25.6727 25.7676C24.9253 25.2871 24.1112 24.9401 23.2303 24.7266L33.0399 9.79199H39.286L27.6346 27.5293ZM21.5487 29.4912H20.1873C19.9471 29.4912 19.7402 29.578 19.5667 29.7515C19.3932 29.925 19.3065 30.1318 19.3065 30.3721C19.3065 30.6123 19.3932 30.8192 19.5667 30.9927C19.7402 31.1662 19.9471 31.2529 20.1873 31.2529H20.7078V35.9775C20.7078 36.2178 20.7879 36.4246 20.9481 36.5981C21.1082 36.7716 21.3084 36.8584 21.5487 36.8584C21.7889 36.8584 21.9958 36.7716 22.1693 36.5981C22.3428 36.4246 22.4295 36.2178 22.4295 35.9775V30.3721C22.4295 30.1318 22.3428 29.925 22.1693 29.7515C21.9958 29.578 21.7889 29.4912 21.5487 29.4912Z" fill="#F50C18"/>
</g>
<defs>
<clipPath id="clip0_151_368">
<rect width="41" height="41" fill="white" transform="matrix(1 0 0 -1 0.769531 41.3418)"/>
</clipPath>
</defs>
</svg>
