<svg width="42" height="42" viewBox="0 0 42 42" fill="none" xmlns="http://www.w3.org/2000/svg">
<g id="Item" clip-path="url(#clip0_151_358)">
<path id="Vector" d="M36.9248 19.8418C36.2308 19.4948 35.39 19.2946 34.4023 19.2412C33.4147 19.1878 32.8942 19.1611 32.8408 19.1611C32.654 19.1611 32.5072 19.2145 32.4004 19.3213C32.2936 19.4281 32.2402 19.5749 32.2402 19.7617C32.2402 19.9219 32.2936 20.062 32.4004 20.1821C32.5072 20.3022 32.654 20.3623 32.8408 20.3623C33.1611 20.3623 33.715 20.3957 34.5024 20.4624C35.2899 20.5291 35.9238 20.6826 36.4043 20.9229C36.4577 20.9495 36.5044 20.9696 36.5444 20.9829C36.5845 20.9963 36.6312 21.0029 36.6846 21.0029C36.7913 21.0029 36.8914 20.9696 36.9849 20.9028C37.0783 20.8361 37.1517 20.7493 37.2051 20.6426C37.2852 20.5091 37.2985 20.3623 37.2451 20.2021C37.1917 20.042 37.085 19.9219 36.9248 19.8418ZM39.9277 28.4102L37.4453 27.6895C37.3919 27.6895 37.3519 27.6628 37.3252 27.6094C37.2985 27.556 37.2852 27.5026 37.2852 27.4492V26.6084C37.3919 26.555 37.492 26.4883 37.5854 26.4082C37.6789 26.3281 37.7656 26.248 37.8457 26.168C38.2728 25.7409 38.6064 25.2537 38.8467 24.7065C39.0869 24.1593 39.207 23.5788 39.207 22.9648V21.8037L39.4473 21.3232C39.5807 21.083 39.6808 20.8161 39.7476 20.5225C39.8143 20.2288 39.8477 19.9352 39.8477 19.6416V16.5586C39.8477 16.3717 39.7876 16.2249 39.6675 16.1182C39.5474 16.0114 39.4072 15.958 39.2471 15.958H33.4814C32.4137 15.958 31.5062 16.325 30.7588 17.0591C30.0114 17.7931 29.6377 18.694 29.6377 19.7617V19.8018C29.6377 20.042 29.6711 20.2822 29.7378 20.5225C29.8045 20.7627 29.8913 20.9896 29.998 21.2031L30.2783 21.8037V22.8047C30.2783 23.5788 30.4585 24.2995 30.8188 24.9668C31.1792 25.6341 31.653 26.168 32.2402 26.5684V27.4492C32.2402 27.5293 32.2135 27.5894 32.1602 27.6294C32.1068 27.6694 31.96 27.7161 31.7197 27.7695L30.5186 28.1299L26.9951 26.8486C27.0218 26.7686 27.0218 26.6885 26.9951 26.6084C26.9684 26.5283 26.915 26.4616 26.835 26.4082L25.7139 25.207V23.2451C25.7939 23.1917 25.8607 23.145 25.9141 23.105C25.9674 23.0649 26.0208 23.0182 26.0742 22.9648C26.7949 22.2975 27.3488 21.5168 27.7358 20.6226C28.1229 19.7284 28.3164 18.8008 28.3164 17.8398V16.2383C28.5299 15.7845 28.6901 15.3107 28.7969 14.8169C28.9036 14.3231 28.957 13.8226 28.957 13.3154V6.90918C28.957 6.74902 28.897 6.60889 28.7769 6.48877C28.6567 6.36865 28.5166 6.30859 28.3564 6.30859H19.3477C17.7728 6.30859 16.4248 6.86914 15.3037 7.99023C14.1826 9.11133 13.6221 10.4593 13.6221 12.0342V13.3154C13.6221 13.8226 13.6755 14.3231 13.7822 14.8169C13.889 15.3107 14.0492 15.7845 14.2627 16.2383V17.5996C14.2627 18.7207 14.4963 19.7684 14.9634 20.7427C15.4305 21.717 16.0511 22.5378 16.8252 23.2051V25.207L15.7041 26.4082C15.6507 26.4616 15.6107 26.5283 15.584 26.6084C15.5573 26.6885 15.5439 26.7686 15.5439 26.8486L11.8604 28.21C11.7269 28.2633 11.5934 28.3234 11.46 28.3901C11.3265 28.4569 11.2064 28.5303 11.0996 28.6104L10.5391 28.29C11.3932 27.9163 11.9871 27.5226 12.3208 27.1089C12.6545 26.6951 12.8213 26.4749 12.8213 26.4482C12.8747 26.3682 12.9014 26.2814 12.9014 26.188C12.9014 26.0946 12.8747 25.9945 12.8213 25.8877C12.6077 25.4606 12.4743 24.8934 12.4209 24.186C12.3675 23.4787 12.3275 22.8047 12.3008 22.1641C12.3008 21.9505 12.2941 21.7437 12.2808 21.5435C12.2674 21.3433 12.2607 21.1631 12.2607 21.0029C12.154 19.5615 11.6134 18.3604 10.6392 17.3994C9.66488 16.4385 8.49707 15.958 7.13574 15.958C5.80111 15.958 4.64665 16.4385 3.67236 17.3994C2.69808 18.3604 2.15755 19.5615 2.05078 21.0029C2.05078 21.1631 2.04411 21.3433 2.03076 21.5435C2.01742 21.7437 2.01074 21.9505 2.01074 22.1641C1.98405 22.8047 1.94401 23.4787 1.89062 24.186C1.83724 24.8934 1.70378 25.4606 1.49023 25.8877C1.43685 25.9945 1.41016 26.0946 1.41016 26.188C1.41016 26.2814 1.43685 26.3682 1.49023 26.4482C1.49023 26.4749 1.65706 26.6951 1.99072 27.1089C2.32438 27.5226 2.91829 27.9163 3.77246 28.29L2.1709 29.0908C1.74382 29.3044 1.40348 29.618 1.1499 30.0317C0.896322 30.4455 0.769531 30.8926 0.769531 31.373V35.8174C0.769531 35.9775 0.82959 36.1177 0.949707 36.2378C1.06982 36.3579 1.20996 36.418 1.37012 36.418C1.53027 36.418 1.67041 36.3579 1.79053 36.2378C1.91064 36.1177 1.9707 35.9775 1.9707 35.8174V31.373C1.9707 31.1061 2.03743 30.8659 2.1709 30.6523C2.30436 30.4388 2.47786 30.2786 2.69141 30.1719L4.69336 29.1709L5.41406 29.8516C5.6543 30.0651 5.9279 30.2319 6.23486 30.3521C6.54183 30.4722 6.84212 30.5322 7.13574 30.5322C7.45605 30.5322 7.76969 30.4722 8.07666 30.3521C8.38363 30.2319 8.65723 30.0651 8.89746 29.8516L9.57812 29.1709L10.2588 29.4912C10.0986 29.7581 9.97852 30.0317 9.89844 30.312C9.81836 30.5923 9.77832 30.8792 9.77832 31.1729V35.8174C9.77832 35.9775 9.83171 36.1177 9.93848 36.2378C10.0452 36.3579 10.1921 36.418 10.3789 36.418C10.5391 36.418 10.6792 36.3579 10.7993 36.2378C10.9194 36.1177 10.9795 35.9775 10.9795 35.8174V31.1729C10.9795 30.7725 11.0929 30.3988 11.3198 30.0518C11.5467 29.7048 11.8604 29.4645 12.2607 29.3311L16.1445 27.9297L17.7861 30.332C17.8929 30.4922 18.0264 30.619 18.1865 30.7124C18.3467 30.8058 18.5068 30.8659 18.667 30.8926C18.6937 30.8926 18.7204 30.8926 18.7471 30.8926C18.7738 30.8926 18.8005 30.8926 18.8271 30.8926C18.9873 30.8926 19.1408 30.8659 19.2876 30.8125C19.4344 30.7591 19.5612 30.6657 19.668 30.5322L20.6689 29.5312V35.8174C20.6689 35.9775 20.729 36.1177 20.8491 36.2378C20.9692 36.3579 21.1094 36.418 21.2695 36.418C21.4297 36.418 21.5698 36.3579 21.6899 36.2378C21.8101 36.1177 21.8701 35.9775 21.8701 35.8174V29.5312L22.8711 30.5322C22.9779 30.6657 23.1113 30.7591 23.2715 30.8125C23.4316 30.8659 23.5918 30.8926 23.752 30.8926C23.7786 30.8926 23.7987 30.8926 23.812 30.8926C23.8254 30.8926 23.8454 30.8926 23.8721 30.8926C24.0589 30.8659 24.2324 30.8058 24.3926 30.7124C24.5527 30.619 24.6862 30.4922 24.793 30.332L26.3945 27.9297L30.2783 29.3311C30.6787 29.4645 30.999 29.7048 31.2393 30.0518C31.4795 30.3988 31.5996 30.7725 31.5996 31.1729V35.8174C31.5996 35.9775 31.6597 36.1177 31.7798 36.2378C31.8999 36.3579 32.04 36.418 32.2002 36.418C32.3604 36.418 32.5005 36.3579 32.6206 36.2378C32.7407 36.1177 32.8008 35.9775 32.8008 35.8174V31.1729C32.8008 30.7725 32.7207 30.3787 32.5605 29.9917C32.4004 29.6047 32.1868 29.2643 31.9199 28.9707L32.04 28.9307C32.1201 28.904 32.2069 28.8773 32.3003 28.8506C32.3937 28.8239 32.4938 28.7839 32.6006 28.7305L34.1621 30.292V35.8174C34.1621 35.9775 34.2155 36.1177 34.3223 36.2378C34.429 36.3579 34.5758 36.418 34.7627 36.418C34.9229 36.418 35.063 36.3579 35.1831 36.2378C35.3032 36.1177 35.3633 35.9775 35.3633 35.8174V30.292L36.8848 28.7705C36.9115 28.7705 36.9448 28.7839 36.9849 28.8105C37.0249 28.8372 37.0716 28.8506 37.125 28.8506L39.6074 29.5713C39.901 29.6514 40.1346 29.8115 40.3081 30.0518C40.4816 30.292 40.5684 30.5589 40.5684 30.8525V35.8174C40.5684 35.9775 40.6284 36.1177 40.7485 36.2378C40.8687 36.3579 41.0088 36.418 41.1689 36.418C41.3291 36.418 41.4692 36.3579 41.5894 36.2378C41.7095 36.1177 41.7695 35.9775 41.7695 35.8174V30.8525C41.7695 30.292 41.596 29.7848 41.249 29.3311C40.902 28.8773 40.4616 28.5703 39.9277 28.4102ZM4.61328 27.3291C4.05273 27.1423 3.62565 26.9287 3.33203 26.6885C3.03841 26.4482 2.82487 26.248 2.69141 26.0879C2.77148 25.8743 2.83822 25.6475 2.8916 25.4072C2.94499 25.167 2.99837 24.9268 3.05176 24.6865C3.21191 25.0602 3.42546 25.4139 3.69238 25.7476C3.95931 26.0812 4.26628 26.3682 4.61328 26.6084V27.3291ZM8.05664 28.9707C7.81641 29.2109 7.51611 29.3311 7.15576 29.3311C6.79541 29.3311 6.49512 29.2109 6.25488 28.9707L5.69434 28.4502C5.72103 28.3434 5.74772 28.2433 5.77441 28.1499C5.80111 28.0565 5.81445 27.9564 5.81445 27.8496V27.209C6.02799 27.2891 6.24821 27.3424 6.4751 27.3691C6.70199 27.3958 6.9222 27.4092 7.13574 27.4092C7.37598 27.4092 7.60954 27.3958 7.83643 27.3691C8.06331 27.3424 8.27018 27.2891 8.45703 27.209V27.8496C8.45703 27.9564 8.47038 28.0565 8.49707 28.1499C8.52376 28.2433 8.5638 28.3434 8.61719 28.4502L8.05664 28.9707ZM7.13574 26.208C6.25488 26.208 5.49414 25.8877 4.85352 25.2471C4.21289 24.6064 3.89258 23.8457 3.89258 22.9648C3.89258 22.8047 3.83252 22.6646 3.7124 22.5444C3.59229 22.4243 3.45215 22.3643 3.29199 22.3643C3.2653 22.3643 3.24528 22.3643 3.23193 22.3643C3.21859 22.3643 3.21191 22.3643 3.21191 22.3643C3.21191 22.3376 3.21191 22.3109 3.21191 22.2842C3.21191 22.2575 3.21191 22.2308 3.21191 22.2041C3.21191 22.0173 3.21859 21.8237 3.23193 21.6235C3.24528 21.4233 3.25195 21.2432 3.25195 21.083C3.27865 20.5492 3.39876 20.042 3.6123 19.5615C3.82585 19.0811 4.10612 18.654 4.45312 18.2803C4.82682 17.9066 5.24056 17.6263 5.69434 17.4395C6.14811 17.2526 6.62858 17.1592 7.13574 17.1592C7.6429 17.1592 8.13005 17.2526 8.59717 17.4395C9.06429 17.6263 9.47135 17.9066 9.81836 18.2803C10.1921 18.654 10.479 19.0811 10.6792 19.5615C10.8794 20.042 11.0062 20.5492 11.0596 21.083C11.0596 21.2432 11.0662 21.4233 11.0796 21.6235C11.0929 21.8237 11.0996 22.0173 11.0996 22.2041C11.0996 22.2308 11.0996 22.2508 11.0996 22.2642C11.0996 22.2775 11.0996 22.2975 11.0996 22.3242C10.7793 21.8171 10.3656 21.3833 9.8584 21.0229C9.35124 20.6626 8.77734 20.3757 8.13672 20.1621C7.52279 19.9753 6.99561 19.8685 6.55518 19.8418C6.11475 19.8151 5.88119 19.8018 5.85449 19.8018C5.77441 19.8018 5.70101 19.8151 5.63428 19.8418C5.56755 19.8685 5.49414 19.9085 5.41406 19.9619L4.33301 21.083C4.22624 21.2165 4.17285 21.3633 4.17285 21.5234C4.17285 21.6836 4.23958 21.8304 4.37305 21.9639C4.47982 22.0706 4.61995 22.124 4.79346 22.124C4.96696 22.124 5.1071 22.0573 5.21387 21.9238L6.13477 21.0029C6.50846 21.0296 7.18245 21.1764 8.15674 21.4434C9.13102 21.7103 9.87175 22.391 10.3789 23.4854C10.2454 24.2594 9.87842 24.9067 9.27783 25.4272C8.67725 25.9478 7.96322 26.208 7.13574 26.208ZM9.6582 27.3291V26.6484C10.0319 26.4082 10.3522 26.1213 10.6191 25.7876C10.8861 25.4539 11.0996 25.0869 11.2598 24.6865C11.2865 24.9268 11.3332 25.167 11.3999 25.4072C11.4666 25.6475 11.54 25.8743 11.6201 26.0879C11.4867 26.248 11.2664 26.4482 10.9595 26.6885C10.6525 26.9287 10.2188 27.1423 9.6582 27.3291ZM15.4639 17.5996V16.1182C15.4639 16.0648 15.4572 16.0181 15.4438 15.978C15.4305 15.938 15.4105 15.8913 15.3838 15.8379C15.1969 15.4375 15.0568 15.0304 14.9634 14.6167C14.87 14.203 14.8232 13.7692 14.8232 13.3154V12.0342C14.8232 10.7796 15.2637 9.71191 16.1445 8.83105C17.0254 7.9502 18.0931 7.50977 19.3477 7.50977H27.7559V13.3154C27.7559 13.7692 27.7025 14.203 27.5957 14.6167C27.4889 15.0304 27.3421 15.4375 27.1553 15.8379C27.1286 15.8913 27.1152 15.938 27.1152 15.978C27.1152 16.0181 27.1152 16.0648 27.1152 16.1182V17.8398C27.1152 18.6406 26.9551 19.408 26.6348 20.1421C26.3145 20.8761 25.8607 21.5234 25.2734 22.084C25.1934 22.1374 25.1133 22.1974 25.0332 22.2642C24.9531 22.3309 24.873 22.391 24.793 22.4443C24.793 22.4443 24.793 22.451 24.793 22.4644C24.793 22.4777 24.793 22.4844 24.793 22.4844C24.2324 22.8848 23.6185 23.1851 22.9512 23.3853C22.2839 23.5854 21.5898 23.6722 20.8691 23.6455C19.3477 23.5387 18.0664 22.9048 17.0254 21.7437C15.9844 20.5825 15.4639 19.2012 15.4639 17.5996ZM18.8271 29.6914C18.8271 29.6914 18.8138 29.6914 18.7871 29.6914L16.9053 26.8887L17.5059 26.248L20.3486 28.1699L18.8271 29.6914ZM21.2695 27.3691L18.0264 25.167V24.0459C18.4535 24.2594 18.9006 24.4329 19.3677 24.5664C19.8348 24.6999 20.3219 24.7933 20.8291 24.8467C20.9092 24.8467 20.9826 24.8467 21.0493 24.8467C21.116 24.8467 21.1895 24.8467 21.2695 24.8467C21.8568 24.8467 22.424 24.7799 22.9712 24.6465C23.5184 24.513 24.0322 24.3128 24.5127 24.0459V25.167L21.2695 27.3691ZM23.792 29.6914C23.792 29.6914 23.7853 29.6914 23.772 29.6914C23.7586 29.6914 23.752 29.6914 23.752 29.6914C23.752 29.6914 23.7453 29.6914 23.7319 29.6914C23.7186 29.6914 23.7119 29.6914 23.7119 29.6914L22.2305 28.1699L25.0332 26.248L25.6338 26.8887L23.792 29.6914ZM34.7627 29.1709L33.4014 27.8096C33.4014 27.7562 33.408 27.7028 33.4214 27.6494C33.4347 27.596 33.4414 27.5293 33.4414 27.4492V27.209C33.6283 27.2624 33.8151 27.3091 34.002 27.3491C34.1888 27.3892 34.389 27.4092 34.6025 27.4092C34.6292 27.4092 34.6559 27.4092 34.6826 27.4092C34.7093 27.4092 34.736 27.4092 34.7627 27.4092C34.9762 27.4092 35.1965 27.3958 35.4233 27.3691C35.6502 27.3424 35.8704 27.2891 36.084 27.209V27.4492C36.084 27.5026 36.084 27.5627 36.084 27.6294C36.084 27.6961 36.0973 27.7562 36.124 27.8096L34.7627 29.1709ZM37.0049 25.2871C36.6846 25.6074 36.3242 25.8477 35.9238 26.0078C35.5234 26.168 35.0964 26.2347 34.6426 26.208C33.7884 26.1813 33.0477 25.8343 32.4204 25.167C31.7931 24.4997 31.4795 23.7122 31.4795 22.8047V21.6836C31.4795 21.6302 31.4795 21.5835 31.4795 21.5435C31.4795 21.5034 31.4661 21.4567 31.4395 21.4033L31.0791 20.6826C30.999 20.5225 30.939 20.369 30.8989 20.2222C30.8589 20.0754 30.8389 19.9352 30.8389 19.8018V19.7617C30.8389 19.041 31.0991 18.4271 31.6196 17.9199C32.1401 17.4128 32.7607 17.1592 33.4814 17.1592H38.6465V19.6416C38.6465 19.8285 38.6198 20.022 38.5664 20.2222C38.513 20.4224 38.4463 20.6159 38.3662 20.8027L38.0459 21.4033C38.0459 21.4567 38.0392 21.5034 38.0259 21.5435C38.0125 21.5835 38.0059 21.6302 38.0059 21.6836V22.9648C38.0059 23.4186 37.9191 23.8457 37.7456 24.2461C37.5721 24.6465 37.3252 24.9935 37.0049 25.2871ZM38.6064 31.333C38.4463 31.333 38.3062 31.3931 38.186 31.5132C38.0659 31.6333 38.0059 31.7734 38.0059 31.9336V35.8174C38.0059 35.9775 38.0659 36.1177 38.186 36.2378C38.3062 36.3579 38.4463 36.418 38.6064 36.418C38.7666 36.418 38.9067 36.3579 39.0269 36.2378C39.147 36.1177 39.207 35.9775 39.207 35.8174V31.9336C39.207 31.7734 39.147 31.6333 39.0269 31.5132C38.9067 31.3931 38.7666 31.333 38.6064 31.333ZM3.93262 32.1338C3.77246 32.1338 3.63232 32.1938 3.51221 32.314C3.39209 32.4341 3.33203 32.5742 3.33203 32.7344V35.8174C3.33203 35.9775 3.39209 36.1177 3.51221 36.2378C3.63232 36.3579 3.77246 36.418 3.93262 36.418C4.09277 36.418 4.23291 36.3579 4.35303 36.2378C4.47314 36.1177 4.5332 35.9775 4.5332 35.8174V32.7344C4.5332 32.5742 4.47314 32.4341 4.35303 32.314C4.23291 32.1938 4.09277 32.1338 3.93262 32.1338ZM26.1943 13.5557C25.0732 12.4079 23.5451 11.8273 21.6099 11.814C19.6746 11.8006 18.2132 11.8607 17.2256 11.9941C16.932 12.0475 16.6851 12.1877 16.4849 12.4146C16.2847 12.6414 16.1846 12.915 16.1846 13.2354V14.5967C16.1846 14.7835 16.2446 14.9303 16.3647 15.0371C16.4849 15.1439 16.625 15.1973 16.7852 15.1973C16.9453 15.1973 17.0854 15.1439 17.2056 15.0371C17.3257 14.9303 17.3857 14.7835 17.3857 14.5967V13.2354C17.3857 13.2087 17.3857 13.1953 17.3857 13.1953C17.3857 13.1953 17.3991 13.1953 17.4258 13.1953C17.7995 13.1419 18.34 13.0819 19.0474 13.0151C19.7547 12.9484 20.5088 12.9417 21.3096 12.9951C22.2438 13.0485 23.0513 13.1953 23.7319 13.4355C24.4126 13.6758 24.9531 13.9961 25.3535 14.3965C25.4603 14.5033 25.6004 14.5566 25.7739 14.5566C25.9474 14.5566 26.0876 14.5033 26.1943 14.3965C26.3011 14.2897 26.3545 14.1496 26.3545 13.9761C26.3545 13.8026 26.3011 13.6624 26.1943 13.5557ZM14.2227 32.6543C14.0625 32.6543 13.9224 32.7077 13.8022 32.8145C13.6821 32.9212 13.6221 33.068 13.6221 33.2549V35.8174C13.6221 35.9775 13.6821 36.1177 13.8022 36.2378C13.9224 36.3579 14.0625 36.418 14.2227 36.418C14.3828 36.418 14.5229 36.3579 14.6431 36.2378C14.7632 36.1177 14.8232 35.9775 14.8232 35.8174V33.2549C14.8232 33.068 14.7632 32.9212 14.6431 32.8145C14.5229 32.7077 14.3828 32.6543 14.2227 32.6543ZM28.3564 32.6543C28.1696 32.6543 28.0228 32.7077 27.916 32.8145C27.8092 32.9212 27.7559 33.068 27.7559 33.2549V35.8174C27.7559 35.9775 27.8092 36.1177 27.916 36.2378C28.0228 36.3579 28.1696 36.418 28.3564 36.418C28.5166 36.418 28.6567 36.3579 28.7769 36.2378C28.897 36.1177 28.957 35.9775 28.957 35.8174V33.2549C28.957 33.068 28.897 32.9212 28.7769 32.8145C28.6567 32.7077 28.5166 32.6543 28.3564 32.6543Z" fill="#F50C18"/>
</g>
<defs>
<clipPath id="clip0_151_358">
<rect width="41" height="41" fill="white" transform="matrix(1 0 0 -1 0.769531 41.3418)"/>
</clipPath>
</defs>
</svg>
