<svg width="42" height="42" viewBox="0 0 42 42" fill="none" xmlns="http://www.w3.org/2000/svg">
<rect width="42" height="42" rx="10" fill="#FF0000"/>
<path d="M16.9995 22C15.9587 22.5876 15.1172 23.4726 14.5827 24.5416C14.0482 25.6106 13.8451 26.8148 13.9995 28C15.1847 28.1544 16.3889 27.9513 17.4579 27.4168C18.5269 26.8823 19.4119 26.0408 19.9995 25M13.9995 21C15.7826 21.2119 17.4426 22.0175 18.7123 23.2872C19.982 24.557 20.7876 26.2169 20.9995 28C21.8834 27.4904 22.6228 26.7638 23.1477 25.8889C23.6727 25.014 23.9658 24.0197 23.9995 23C25.6786 22.4093 27.1449 21.334 28.2129 19.91C29.2808 18.486 29.9026 16.7773 29.9995 15C29.9995 14.2044 29.6834 13.4413 29.1208 12.8787C28.5582 12.3161 27.7952 12 26.9995 12C25.2222 12.0969 23.5135 12.7187 22.0895 13.7867C20.6655 14.8546 19.5902 16.3209 18.9995 18C17.9798 18.0337 16.9855 18.3268 16.1106 18.8518C15.2357 19.3767 14.5091 20.1161 13.9995 21ZM23.9995 17C23.9995 17.2652 24.1049 17.5196 24.2924 17.7071C24.4799 17.8946 24.7343 18 24.9995 18C25.2647 18 25.5191 17.8946 25.7066 17.7071C25.8942 17.5196 25.9995 17.2652 25.9995 17C25.9995 16.7348 25.8942 16.4804 25.7066 16.2929C25.5191 16.1054 25.2647 16 24.9995 16C24.7343 16 24.4799 16.1054 24.2924 16.2929C24.1049 16.4804 23.9995 16.7348 23.9995 17Z" stroke="white" stroke-width="1.5" stroke-linecap="round" stroke-linejoin="round"/>
</svg>
