<svg width="26" height="26" viewBox="0 0 26 26" fill="none" xmlns="http://www.w3.org/2000/svg">
<g id="SVG" clip-path="url(#clip0_151_181)">
<path id="Vector" d="M24.7891 12.7129C24.7891 19.4007 19.3675 24.8223 12.6797 24.8223C5.99185 24.8223 0.570312 19.4007 0.570312 12.7129C0.570312 6.02505 5.99185 0.603516 12.6797 0.603516C19.3675 0.603516 24.7891 6.02505 24.7891 12.7129ZM11.279 19.1247L20.2634 10.1403C20.5685 9.83525 20.5685 9.34058 20.2634 9.0355L19.1585 7.93066C18.8535 7.62554 18.3588 7.62554 18.0537 7.93066L10.7266 15.2577L7.30571 11.8369C7.00063 11.5318 6.50596 11.5318 6.20083 11.8369L5.096 12.9417C4.79092 13.2468 4.79092 13.7415 5.096 14.0465L10.1741 19.1247C10.4792 19.4298 10.9739 19.4298 11.279 19.1247Z" fill="#23A455"/>
</g>
<defs>
<clipPath id="clip0_151_181">
<rect width="25" height="25" fill="white" transform="translate(0.179688 0.212891)"/>
</clipPath>
</defs>
</svg>
