<svg width="26" height="26" viewBox="0 0 26 26" fill="none" xmlns="http://www.w3.org/2000/svg">
<g id="SVG" clip-path="url(#clip0_151_175)">
<path id="Vector" d="M12.6797 0.603516C5.99023 0.603516 0.570312 6.02344 0.570312 12.7129C0.570312 19.4023 5.99023 24.8223 12.6797 24.8223C19.3691 24.8223 24.7891 19.4023 24.7891 12.7129C24.7891 6.02344 19.3691 0.603516 12.6797 0.603516ZM18.6172 15.8916C18.8467 16.1211 18.8467 16.4922 18.6172 16.7217L16.6836 18.6504C16.4541 18.8799 16.083 18.8799 15.8535 18.6504L12.6797 15.4473L9.50098 18.6504C9.27148 18.8799 8.90039 18.8799 8.6709 18.6504L6.74219 16.7168C6.51269 16.4873 6.51269 16.1162 6.74219 15.8867L9.94531 12.7129L6.74219 9.53418C6.51269 9.30469 6.51269 8.93359 6.74219 8.7041L8.67578 6.77051C8.90527 6.54102 9.27637 6.54102 9.50586 6.77051L12.6797 9.97852L15.8584 6.77539C16.0879 6.5459 16.459 6.5459 16.6885 6.77539L18.6221 8.70898C18.8516 8.93848 18.8516 9.30957 18.6221 9.53906L15.4141 12.7129L18.6172 15.8916Z" fill="#EE4343"/>
</g>
<defs>
<clipPath id="clip0_151_175">
<rect width="25" height="25" fill="white" transform="translate(0.179688 0.212891)"/>
</clipPath>
</defs>
</svg>
